<svg 
  class="o-svg__cloud-service"
  xmlns="http://www.w3.org/2000/svg" 
  viewBox="0 0 42 41">
  <defs/>
  <defs>
    <linearGradient id="a" x1="50%" x2="50%" y1="0%" y2="100%">
      <stop offset="0%" stop-color="#062FF9"/>
      <stop offset="100%" stop-color="#0225D0"/>
    </linearGradient>
    <linearGradient id="b" x1="50%" x2="50%" y1="0%" y2="100%">
      <stop offset="0%" stop-color="#062FF9"/>
      <stop offset="100%" stop-color="#0225D0"/>
    </linearGradient>
    <linearGradient id="c" x1="50%" x2="50%" y1="0%" y2="100%">
      <stop offset="0%" stop-color="#062FF9"/>
      <stop offset="100%" stop-color="#0225D0"/>
    </linearGradient>
    <linearGradient id="d" x1="50%" x2="50%" y1="0%" y2="100%">
      <stop offset="0%" stop-color="#062FF9"/>
      <stop offset="100%" stop-color="#0225D0"/>
    </linearGradient>
    <linearGradient id="e" x1="50%" x2="50%" y1="0%" y2="100%">
      <stop offset="0%" stop-color="#062FF9"/>
      <stop offset="100%" stop-color="#0225D0"/>
    </linearGradient>
    <linearGradient id="f" x1="50%" x2="50%" y1="0%" y2="100%">
      <stop offset="0%" stop-color="#062FF9"/>
      <stop offset="100%" stop-color="#0225D0"/>
    </linearGradient>
    <linearGradient id="g" x1="50%" x2="50%" y1="0%" y2="100%">
      <stop offset="0%" stop-color="#062FF9"/>
      <stop offset="100%" stop-color="#0225D0"/>
    </linearGradient>
    <linearGradient id="h" x1="50%" x2="50%" y1="0%" y2="100%">
      <stop offset="0%" stop-color="#062FF9"/>
      <stop offset="100%" stop-color="#0225D0"/>
    </linearGradient>
  </defs>
  <g fill="none" fill-rule="nonzero">
    <path fill="url(#a)" d="M9.72 38.245a.568.568 0 00-.58.56c0 .31.258.558.58.558.323 0 .581-.248.581-.559 0-.31-.258-.559-.58-.559z" transform="translate(.597)"/>
    <path fill="url(#b)" d="M5.985 38.245a.568.568 0 00-.581.56c0 .31.258.558.58.558.323 0 .581-.248.581-.559 0-.31-.258-.559-.58-.559z" transform="translate(.597)"/>
    <path fill="url(#c)" d="M7.85 38.245a.572.572 0 00-.581.56c0 .31.264.558.58.558.323 0 .587-.248.587-.559 0-.31-.264-.559-.587-.559z" transform="translate(.597)"/>
    <path fill="url(#d)" d="M37.382 24.234c2.381-1.073 3.91-3.366 3.91-5.906 0-3.283-2.495-6.021-5.844-6.467-.611-3.739-3.982-6.528-7.944-6.528a8.36 8.36 0 00-2.519.388C23.45 2.426 20.073.313 16.298.313c-5.155 0-9.365 3.967-9.513 8.95C2.897 9.861 0 13.111 0 16.93c0 2.721 1.495 5.245 3.903 6.645V35.55c0 .535.223 1.02.58 1.38H3.211c-.89 0-1.613.696-1.613 1.552v.653c0 .856.723 1.553 1.613 1.553h34.866c.89 0 1.613-.697 1.613-1.553v-.653c0-.856-.724-1.553-1.613-1.553h-1.274c.357-.359.58-.844.58-1.38V24.235zM.645 16.93c0-3.597 2.794-6.646 6.499-7.09.161-.02.282-.208.282-.365 0-4.71 3.98-8.541 8.872-8.541 3.615 0 6.838 2.077 8.211 5.293a.325.325 0 00.41.172 7.718 7.718 0 012.585-.446c3.722 0 6.877 2.677 7.339 6.226a.316.316 0 00.288.27c3.145.306 5.516 2.834 5.516 5.878 0 2.2-1.266 4.2-3.265 5.217v-6.26c0-1.103-.931-2-2.077-2H5.981c-1.146 0-2.078.897-2.078 2v5.566C1.88 21.531.645 19.31.645 16.931zm3.903.354c0-.76.643-1.379 1.433-1.379h29.324c.79 0 1.432.619 1.432 1.379v18.264c0 .76-.642 1.379-1.432 1.379H5.981c-.79 0-1.433-.619-1.433-1.38V17.286zM16.996 37.55h7.295v.633c0 .171-.145.31-.323.31h-6.649a.317.317 0 01-.323-.31v-.633zm22.049.931v.653c0 .513-.435.931-.968.931H3.21c-.534 0-.968-.418-.968-.931v-.653c0-.513.434-.931.968-.931h13.14v.633c0 .514.434.932.968.932h6.649c.534 0 .968-.418.968-.932v-.633h13.14c.534 0 .969.418.969.931z" transform="translate(.597)"/>
    <path fill="url(#e)" d="M7.15 35.862h26.987c.823 0 1.493-.645 1.493-1.438V18.413c0-.792-.67-1.437-1.493-1.437H7.15c-.823 0-1.493.645-1.493 1.437v16.011c0 .793.67 1.438 1.493 1.438zm-.848-17.45c0-.45.38-.815.848-.815h26.987c.468 0 .848.366.848.816v16.011c0 .45-.38.817-.848.817H7.15c-.467 0-.848-.367-.848-.817V18.413z" transform="translate(.597)"/>
    <path fill="url(#f)" d="M32.674 19.005c.468 0 .848.366.848.816 0 .172.144.311.323.311a.317.317 0 00.322-.31c0-.793-.67-1.438-1.493-1.438a.317.317 0 00-.322.31c0 .172.144.31.322.31z" transform="translate(.597)"/>
    <path fill="url(#g)" d="M31.502 23.577c.126.121.33.121.456 0a.302.302 0 000-.44l-3.672-3.535a.331.331 0 00-.456 0 .302.302 0 000 .44l3.672 3.535z" transform="translate(.597)"/>
    <path fill="url(#h)" d="M28.95 24.655c.126.122.33.122.456 0a.302.302 0 000-.439l-2.24-2.157a.331.331 0 00-.457 0 .302.302 0 000 .44l2.24 2.156z" transform="translate(.597)"/>
  </g>
</svg>
