<svg 
  class="o-svg__data"
  xmlns="http://www.w3.org/2000/svg" 
  viewBox="0 0 46 48">
  <defs/>
  <defs>
    <linearGradient id="a" x1="50%" x2="50%" y1="0%" y2="100%">
      <stop offset="0%" stop-color="#EC686B" stop-opacity=".99"/>
      <stop offset="100%" stop-color="#EB4D51"/>
    </linearGradient>
    <linearGradient id="b" x1="50%" x2="50%" y1="0%" y2="100%">
      <stop offset="0%" stop-color="#EC686B" stop-opacity=".99"/>
      <stop offset="100%" stop-color="#EB4D51"/>
    </linearGradient>
    <linearGradient id="c" x1="50%" x2="50%" y1="0%" y2="100%">
      <stop offset="0%" stop-color="#EC686B" stop-opacity=".99"/>
      <stop offset="100%" stop-color="#EB4D51"/>
    </linearGradient>
    <linearGradient id="d" x1="50%" x2="50%" y1="0%" y2="100%">
      <stop offset="0%" stop-color="#EC686B" stop-opacity=".99"/>
      <stop offset="100%" stop-color="#EB4D51"/>
    </linearGradient>
    <linearGradient id="e" x1="50%" x2="50%" y1="0%" y2="100%">
      <stop offset="0%" stop-color="#EC686B" stop-opacity=".99"/>
      <stop offset="100%" stop-color="#EB4D51"/>
    </linearGradient>
    <linearGradient id="f" x1="50%" x2="50%" y1="0%" y2="100%">
      <stop offset="0%" stop-color="#EC686B" stop-opacity=".99"/>
      <stop offset="100%" stop-color="#EB4D51"/>
    </linearGradient>
    <linearGradient id="g" x1="50%" x2="50%" y1="0%" y2="100%">
      <stop offset="0%" stop-color="#EC686B" stop-opacity=".99"/>
      <stop offset="100%" stop-color="#EB4D51"/>
    </linearGradient>
  </defs>
  <g fill="none" fill-rule="nonzero">
    <path fill="url(#a)" d="M43.484 2.378H24.437v-.56c0-.802-.644-1.454-1.437-1.454s-1.438.652-1.438 1.454v.56H2.517C1.129 2.378 0 3.52 0 4.923v26.713c0 1.404 1.129 2.546 2.516 2.546h13.678L8.75 45.369c-.44.67-.268 1.57.397 2.018.704.469 1.564.24 1.99-.398l8.518-12.807h1.907v9.964c0 .801.645 1.454 1.438 1.454.793 0 1.438-.653 1.438-1.454v-9.964h1.9l8.518 12.807c.438.656 1.32.86 1.995.395.654-.441.837-1.34.391-2.016l-7.443-11.186h13.685c1.387 0 2.516-1.142 2.516-2.546V4.923c0-1.403-1.129-2.545-2.516-2.545zm-21.203-.56c0-.401.323-.727.719-.727.396 0 .719.326.719.727v.56H22.28v-.56zm-11.74 44.764a.714.714 0 01-.998.199.73.73 0 01-.196-1.007l7.713-11.592h1.729l-8.248 12.4zm13.178-2.436c0 .394-.33.727-.719.727a.724.724 0 01-.719-.727v-9.964h1.438v9.964zm12.926 1.627a.73.73 0 01-.195 1.008l-.004.002c-.321.225-.78.12-.994-.2l-8.248-12.401h1.728l7.713 11.59zm8.636-14.137a1.81 1.81 0 01-1.797 1.819H2.516a1.81 1.81 0 01-1.797-1.819V4.923a1.81 1.81 0 011.797-1.818h40.968c.991 0 1.797.815 1.797 1.818v26.713z"/>
    <path fill="url(#b)" d="M43.482 4.56H2.512a.361.361 0 00-.359.364v26.713c0 .201.161.364.36.364h40.969c.198 0 .359-.163.359-.364V4.924a.361.361 0 00-.36-.364zm-.36 26.713H2.872V5.288h40.25v25.985z"/>
    <path fill="url(#c)" d="M35.009 9.974h5.245c.199 0 .36-.162.36-.363a.361.361 0 00-.36-.364H35.01a.361.361 0 00-.36.364c0 .2.161.363.36.363zM35.009 12.055h5.245c.199 0 .36-.162.36-.363a.361.361 0 00-.36-.364H35.01a.361.361 0 00-.36.364c0 .2.161.363.36.363zM35.009 14.136h5.245c.199 0 .36-.162.36-.363a.361.361 0 00-.36-.364H35.01a.361.361 0 00-.36.364c0 .2.161.363.36.363zM35.009 16.217h5.245c.199 0 .36-.162.36-.363a.361.361 0 00-.36-.364H35.01a.361.361 0 00-.36.364c0 .2.161.363.36.363z"/>
    <path fill="url(#d)" d="M18.189 29.714h22.094c.199 0 .36-.163.36-.364v-7.876a.363.363 0 00-.434-.356l-2.42.518-1.983-1.515a.357.357 0 00-.36-.042l-2.833 1.255-2.062-.804a.357.357 0 00-.34.046L28.2 22.055l-2.452-.762a.346.346 0 00-.296.04l-2.645 1.675-4.669.673a.362.362 0 00-.309.36v5.31c0 .2.161.363.36.363zm21.735-.728H18.548V27.31l4.19-.05c.08 0 .158-.029.22-.079l2.76-2.227 2.442.758a.352.352 0 00.317-.054l1.913-1.406 2.155 2.095c.12.115.302.134.441.045l2.443-1.565 2.2.464a.37.37 0 00.148 0l2.147-.46v4.155zm-16.94-5.269a.354.354 0 00.14-.052l2.57-1.628 2.466.766a.35.35 0 00.317-.054l1.998-1.469 2.017.787a.351.351 0 00.274-.006l2.775-1.23 1.945 1.486c.083.063.19.087.291.065l2.147-.46v2.166l-2.222.476-2.269-.479a.36.36 0 00-.265.048l-2.328 1.492-2.17-2.108a.353.353 0 00-.46-.032l-2.01 1.479-2.452-.762a.35.35 0 00-.33.064l-2.811 2.269-4.059.047v-2.226l4.435-.639z"/>
    <path fill="url(#e)" d="M11.165 18.617c3.25 0 5.817-2.675 5.817-5.886 0-3.245-2.609-5.884-5.815-5.884-3.207 0-5.815 2.64-5.815 5.884 0 3.236 2.594 5.886 5.813 5.886zm3.215-1.898l-2.52-3.625h4.381a5.069 5.069 0 01-1.86 3.625zm-3.213 1.169c-.863.025-1.9-.278-2.638-.742l2.636-3.782 2.631 3.782c-.808.504-1.805.76-2.63.742zm5.078-5.52h-4.719V7.592c2.523.18 4.542 2.221 4.719 4.774zm-5.437-4.775v5.02l-2.86 4.103a5.17 5.17 0 01-1.878-3.985c0-2.629 2.012-4.943 4.738-5.138z"/>
    <path fill="url(#f)" d="M10.083 20.172H7.43a.361.361 0 00-.36.363v8.815c0 .201.161.364.36.364h2.652c.198 0 .36-.163.36-.364v-8.815a.361.361 0 00-.36-.363zm-.36 8.814H7.79V20.9h1.933v8.087z"/>
    <path fill="url(#g)" d="M14.903 22.458H12.25a.361.361 0 00-.36.364v6.528c0 .201.161.364.36.364h2.652c.198 0 .36-.163.36-.364v-6.528a.361.361 0 00-.36-.364zm-.36 6.528H12.61v-5.8h1.933v5.8z"/>
  </g>
</svg>
