<svg 
  xmlns="http://www.w3.org/2000/svg" 
  viewBox="0 0 42 42">
  <defs/>
  <defs>
    <linearGradient id="a" x1="50%" x2="50%" y1="0%" y2="100%">
      <stop offset="0%" stop-color="#062FF9"/>
      <stop offset="100%" stop-color="#0225D0"/>
    </linearGradient>
    <linearGradient id="b" x1="50%" x2="50%" y1="0%" y2="100%">
      <stop offset="0%" stop-color="#062FF9"/>
      <stop offset="100%" stop-color="#0225D0"/>
    </linearGradient>
    <linearGradient id="c" x1="50%" x2="50%" y1="0%" y2="100%">
      <stop offset="0%" stop-color="#062FF9"/>
      <stop offset="100%" stop-color="#0225D0"/>
    </linearGradient>
    <linearGradient id="d" x1="50%" x2="50%" y1="0%" y2="100%">
      <stop offset="0%" stop-color="#062FF9"/>
      <stop offset="100%" stop-color="#0225D0"/>
    </linearGradient>
    <linearGradient id="e" x1="50%" x2="50%" y1="0%" y2="100%">
      <stop offset="0%" stop-color="#062FF9"/>
      <stop offset="100%" stop-color="#0225D0"/>
    </linearGradient>
    <linearGradient id="f" x1="50%" x2="50%" y1="0%" y2="100%">
      <stop offset="0%" stop-color="#062FF9"/>
      <stop offset="100%" stop-color="#0225D0"/>
    </linearGradient>
    <linearGradient id="g" x1="50%" x2="50%" y1="0%" y2="100%">
      <stop offset="0%" stop-color="#062FF9"/>
      <stop offset="100%" stop-color="#0225D0"/>
    </linearGradient>
  </defs>
  <g fill="none" fill-rule="nonzero">
    <path fill="url(#a)" d="M39.034 2.08H21.937v-.49c0-.7-.58-1.272-1.29-1.272-.712 0-1.291.571-1.291 1.273v.49H2.258C1.013 2.08 0 3.08 0 4.308v23.374c0 1.228 1.013 2.227 2.258 2.227h12.279L7.855 39.7a1.259 1.259 0 00.355 1.765c.633.41 1.405.21 1.787-.349l7.647-11.206h1.712v8.718c0 .702.579 1.273 1.29 1.273.712 0 1.29-.571 1.29-1.273V29.91h1.706l7.647 11.206a1.293 1.293 0 001.79.346 1.259 1.259 0 00.352-1.764l-6.682-9.788h12.285c1.245 0 2.258-1 2.258-2.227V4.308c0-1.228-1.013-2.227-2.258-2.227zm-19.033-.49c0-.35.29-.635.645-.635.356 0 .645.285.645.636v.49h-1.29v-.49zM9.462 40.76a.651.651 0 01-.896.173.629.629 0 01-.175-.88l6.924-10.144h1.551L9.462 40.76zm11.83-2.133a.65.65 0 01-.646.637.641.641 0 01-.645-.637V29.91h1.29v8.718zm11.603 1.424c.2.296.118.689-.175.882l-.004.002a.656.656 0 01-.892-.175L24.42 29.91h1.552l6.923 10.141zm7.752-12.37c0 .878-.723 1.592-1.613 1.592H2.258c-.89 0-1.613-.714-1.613-1.591V4.308c0-.878.724-1.591 1.613-1.591h36.776c.89 0 1.613.713 1.613 1.59v23.375z" transform="translate(.614)"/>
    <path fill="url(#b)" d="M39.032 3.99H2.256a.32.32 0 00-.323.318v23.374a.32.32 0 00.323.319h36.776a.32.32 0 00.322-.319V4.308a.32.32 0 00-.322-.318zm-.323 23.374H2.579V4.627h36.13v22.737z" transform="translate(.614)"/>
    <path fill="url(#c)" d="M31.426 8.728h4.709a.32.32 0 00.322-.319.32.32 0 00-.322-.318h-4.709a.32.32 0 00-.323.318.32.32 0 00.323.319zM31.426 10.548h4.709a.32.32 0 00.322-.318.32.32 0 00-.322-.318h-4.709a.32.32 0 00-.323.318.32.32 0 00.323.318zM31.426 12.37h4.709a.32.32 0 00.322-.319.32.32 0 00-.322-.318h-4.709a.32.32 0 00-.323.318.32.32 0 00.323.318zM31.426 14.19h4.709a.32.32 0 00.322-.318.32.32 0 00-.322-.318h-4.709a.32.32 0 00-.323.318.32.32 0 00.323.318z" transform="translate(.614)"/>
    <path fill="url(#d)" d="M16.327 26H36.16a.32.32 0 00.323-.319V18.79a.317.317 0 00-.12-.247.332.332 0 00-.27-.064l-2.172.454-1.78-1.326a.327.327 0 00-.323-.037l-2.543 1.099-1.85-.704a.327.327 0 00-.306.04l-1.805 1.294-2.201-.666a.318.318 0 00-.266.034l-2.374 1.466-4.191.589a.32.32 0 00-.277.315v4.645a.32.32 0 00.322.319zm19.51-.637H16.65v-1.467l3.762-.043a.325.325 0 00.197-.07l2.477-1.948 2.192.663c.097.03.202.012.285-.047l1.717-1.23 1.934 1.832c.108.102.271.118.396.04l2.193-1.369 1.975.406a.34.34 0 00.133 0l1.927-.402v3.635zm-15.206-4.61a.323.323 0 00.126-.046l2.307-1.425 2.214.67a.32.32 0 00.285-.046l1.793-1.286 1.81.689c.08.03.169.029.246-.006l2.492-1.077 1.746 1.301a.327.327 0 00.261.057l1.927-.402v1.895l-1.994.416-2.037-.418a.33.33 0 00-.239.042l-2.09 1.305-1.946-1.845a.323.323 0 00-.413-.028l-1.805 1.294-2.201-.666a.32.32 0 00-.296.055l-2.524 1.986-3.643.042v-1.948l3.981-.56z" transform="translate(.614)"/>
    <path fill="url(#e)" d="M10.022 16.29c2.919 0 5.222-2.34 5.222-5.15 0-2.84-2.342-5.149-5.22-5.149-2.878 0-5.22 2.31-5.22 5.148 0 2.832 2.328 5.151 5.218 5.151zm2.887-1.661l-2.263-3.171h3.933a4.4 4.4 0 01-1.67 3.17zm-2.885 1.023c-.774.022-1.705-.244-2.367-.65l2.365-3.308 2.362 3.308c-.725.442-1.62.666-2.36.65zm4.558-4.83h-4.235V6.643c2.265.157 4.076 1.944 4.235 4.177zm-4.88-4.178v4.393l-2.568 3.59a4.479 4.479 0 01-1.685-3.488c0-2.3 1.806-4.324 4.253-4.495z" transform="translate(.614)"/>
    <path fill="url(#f)" d="M9.051 17.65h-2.38a.32.32 0 00-.323.319v7.712A.32.32 0 006.67 26h2.381a.32.32 0 00.323-.319V17.97a.32.32 0 00-.323-.319zm-.323 7.713H6.993v-7.076h1.735v7.076z" transform="translate(.614)"/>
    <path fill="url(#g)" d="M13.378 19.65h-2.381a.32.32 0 00-.323.319v5.712a.32.32 0 00.323.319h2.38a.32.32 0 00.323-.319V19.97a.32.32 0 00-.322-.318zm-.323 5.713H11.32v-5.076h1.735v5.076z" transform="translate(.614)"/>
  </g>
</svg>
