<svg 
  class="o-svg__data-tablet"
  xmlns="http://www.w3.org/2000/svg" 
  viewBox="0 0 40 49">
  <defs/>
  <defs>
    <linearGradient id="a" x1="50%" x2="50%" y1="0%" y2="100%">
      <stop offset="0%" stop-color="#062FF9"/>
      <stop offset="100%" stop-color="#0225D0"/>
    </linearGradient>
    <linearGradient id="b" x1="50%" x2="50%" y1="0%" y2="100%">
      <stop offset="0%" stop-color="#062FF9"/>
      <stop offset="100%" stop-color="#0225D0"/>
    </linearGradient>
    <linearGradient id="c" x1="50%" x2="50%" y1="0%" y2="100%">
      <stop offset="0%" stop-color="#062FF9"/>
      <stop offset="100%" stop-color="#0225D0"/>
    </linearGradient>
    <linearGradient id="d" x1="50%" x2="50%" y1="0%" y2="100%">
      <stop offset="0%" stop-color="#062FF9"/>
      <stop offset="100%" stop-color="#0225D0"/>
    </linearGradient>
  </defs>
  <g fill="none" fill-rule="nonzero">
    <path fill="url(#a)" d="M37.205 49.001c1.097 0 1.99-.868 1.99-1.936V5.683c0-1.06-.893-1.922-1.99-1.922h-9.637l-.043-.124a1.363 1.363 0 00-1.293-.902h-3.4c-.197-1.538-1.534-2.737-3.167-2.737-1.633 0-2.97 1.199-3.168 2.737h-3.4c-.585 0-1.105.363-1.294.902l-.043.124H2.124c-1.098 0-1.99.862-1.99 1.922v41.382c0 1.068.892 1.936 1.99 1.936h35.08zm-7.866-9.712l5.743.002-5.743 5.677v-5.679zm6.293-1.926c-.002.015-.01.028-.01.043v1.115h-6.676a.388.388 0 00-.393.382v.542l-.005 6.073H3.705V7.229h7.028c.11.592.645 1.095 1.348 1.095h15.166c.679 0 1.232-.472 1.349-1.095h7.036v30.134zM19.665.764c1.2 0 2.199.855 2.389 1.971h-4.778c.19-1.116 1.189-1.97 2.389-1.97zm-6.569 2.737c.31.004 12.914 0 13.136 0 .248 0 .468.154.548.383 1.038 2.975 1.03 2.924 1.045 3.019a.572.572 0 01-.578.655H12.08c-.36 0-.669-.308-.555-.749l1.022-2.925c.08-.23.3-.383.548-.383zM.92 47.065V5.683c0-.638.54-1.157 1.204-1.157h9.369l-.677 1.938H3.311a.388.388 0 00-.393.383V45.9c0 .211.176.383.393.383H28.91c.01 0 .02.006.031.006.104 0 .205-.04.28-.115l6.955-6.874a.38.38 0 00.225-.31l.004-.02c0-.006.004-.012.004-.018v-.007c.002-.015.01-.028.01-.043V6.847a.388.388 0 00-.394-.383h-7.512l-.677-1.938h9.369c.663 0 1.203.52 1.203 1.157v41.382c0 .645-.54 1.17-1.203 1.17H2.124c-.664 0-1.204-.525-1.204-1.17z" transform="translate(.331)"/>
    <path fill="url(#b)" d="M32.56 27.521H6.778a.388.388 0 00-.393.383c0 .212.175.383.393.383H32.56a.388.388 0 00.393-.383.388.388 0 00-.393-.383zM32.56 31.281H6.778a.388.388 0 00-.393.383c0 .212.175.383.393.383H32.56a.388.388 0 00.393-.383.388.388 0 00-.393-.383zM32.56 35.04H6.778a.388.388 0 00-.393.384c0 .211.175.382.393.382H32.56a.388.388 0 00.393-.382.388.388 0 00-.393-.383z" transform="translate(.331)"/>
    <path fill="url(#c)" d="M27.899 15.527a.388.388 0 00-.393-.383.388.388 0 00-.394.383v8.235h-1.866v-7.461a.388.388 0 00-.393-.383.388.388 0 00-.393.383v7.461h-1.866v-5.1a.388.388 0 00-.393-.382.388.388 0 00-.393.383v5.099h-1.866v-3.051a.388.388 0 00-.394-.383.388.388 0 00-.393.383v3.051H17.29v-5.796a.388.388 0 00-.393-.383.388.388 0 00-.394.383v5.796h-1.865V19.05a.388.388 0 00-.394-.383.388.388 0 00-.393.383v4.712h-1.866v-3.051a.388.388 0 00-.393-.383.388.388 0 00-.393.383v3.051h-4.42a.388.388 0 00-.393.383c0 .211.175.383.393.383H32.56a.388.388 0 00.393-.383.388.388 0 00-.393-.383h-4.661v-8.235z" transform="translate(.331)"/>
    <path fill="url(#d)" d="M11.253 17.149a.384.384 0 00.1-.013l3.328-.852a.395.395 0 00.18-.1l2.06-2.033 2.375 1.94c.082.068.19.096.297.087l2.412-.27a.4.4 0 00.24-.118l2.823-2.907 3.132-.94a.38.38 0 00.26-.478.393.393 0 00-.491-.253l-3.231.968a.395.395 0 00-.17.103l-2.796 2.88-2.1.235-2.524-2.06a.401.401 0 00-.532.023l-2.24 2.21-3.223.825a.382.382 0 00-.28.467.392.392 0 00.38.286z" transform="translate(.331)"/>
  </g>
</svg>
