<svg
    class="o-svg o-svg__live-broadcast"
    xmlns="http://www.w3.org/2000/svg"
    viewBox="0 0 69 51">
    <defs/>
    <defs>
        <linearGradient id="a" x1="50%" x2="50%" y1="0%" y2="100%">
            <stop offset="0%" stop-color="#062FF9"/>
            <stop offset="100%" stop-color="#0225D0"/>
        </linearGradient>
        <linearGradient id="b" x1="50%" x2="50%" y1="0%" y2="100%">
            <stop offset="0%" stop-color="#062FF9"/>
            <stop offset="100%" stop-color="#0225D0"/>
        </linearGradient>
        <linearGradient id="c" x1="50%" x2="50%" y1="0%" y2="100%">
            <stop offset="0%" stop-color="#062FF9"/>
            <stop offset="100%" stop-color="#0225D0"/>
        </linearGradient>
        <linearGradient id="d" x1="50%" x2="50%" y1="0%" y2="100%">
            <stop offset="0%" stop-color="#062FF9"/>
            <stop offset="100%" stop-color="#0225D0"/>
        </linearGradient>
    </defs>
    <g fill="none" fill-rule="nonzero">
    <path fill="url(#a)" d="M40.2963241 36.6486499c1.1102832.5309515 2.2297559 1.1042671 3.3282986 1.7054551.2548714.1397536.5711737.0427554.7085359-.2127932.1373205-.2572092.0428846-.5784775-.2113386-.7168877-1.1148832-.6104965-2.2517105-1.1930993-3.3793482-1.7323227-.2613636-.1229243-.5717382-.0113605-.6957813.2520473-.1230082.2644445-.01173.5795036.2496336.7045012z"/>
    <path fill="url(#b)" d="M4.19088227 31.8979477l2.40172273-.0016818.00006273.1793568c0 .8778815.70131182 1.58563 1.56614318 1.58563l1.85800269-.0008356 4.2365687 15.956345c.217465.7871348.9311132 1.3366821 1.7361236 1.3366821l4.6759627-.0030993c.6661741-.0010366 1.2726214-.3718724 1.5829855-.9699717.3108764-.5980992.26749-1.3170602-.1276186-1.8976004l-2.9929169-3.9687293c-.2302195-.3491513-.3568241-.7602778-.3568241-1.1579811l-.0023-4.8562578 2.32139-.0008356c.2889323 0 .5227273-.2365509.5227273-.5288889V33.682239c2.5185.2646349 15.0363859 2.0691403 28.8582255 12.6072726 2.018825 1.5209786 4.9020945.0831624 4.9020945-2.4760674l-.0072136-14.0680531c3.1934141-.2676072 5.7117154-2.9789984 5.7102537-6.2766206-.0019987-3.2994416-2.5042105-6.0097116-5.7167564-6.2719664l-.0072137-14.05512703c0-2.54913867-2.8728359-4.00551885-4.90567-2.46264418C41.7079595 7.38834809 32.3978627 11.6105316 21.50776 13.3227776c-8.2692945.0044744-5.0878195.0027608-13.35608955.0072352-.859625 0-1.5687359.7041098-1.56766954 1.5866667l.00006273.1706407-2.39982.0008356c-1.88416.0010366-3.41609591 1.5536111-3.41508333 3.4594728l.00510333 9.8939456c.0010559 1.9093206 1.52784818 3.4563735 3.41661863 3.4563735zm55.83993403-8.4291666c.0015255 2.7115921-2.0439481 4.9510981-4.6565599 5.2186418l-.0045896-10.4321217c2.6042064.2611018 4.6601555 2.4860633 4.6611495 5.2134799zm-38.7563495 25.233786c.1623277.2386241.1801946.5330248.0484987.7860981-.1311941.253084-.3772419.4039019-.658511.4039019l-4.6754504.0030993c-.3323186 0-.6386055-.2375875-.7274273-.5588452l-4.162425-15.6765945c.1070441-.0000529 7.0540582-.0036494 6.6171105-.0034275.0019236 1.9085064.0098795 9.7899452.0093777 9.2992738 0 .6042978.1893841 1.2240922.5523345 1.7715662l2.9964923 3.9749279zM18.768345 37.0422172l-.0015995-3.3858726 1.8007013-.0008356v3.3856716l-1.7991018.0010366zM51.0765495 1.52299147c1.3378264-1.01739183 3.2302873-.06762374 3.2302873 1.6186856l.02093 40.67176713c0 1.6848919-1.8929313 2.6377064-3.2297854 1.6290201-13.5224946-10.309208-25.8719264-12.3958439-29.0542273-12.769779l-.0097018-18.3468699c3.8408222-.4793003 15.93348-2.7374126 29.0424972-12.80282393zM8.15217227 14.3878012l12.83336223-.0072352.0086773 18.2167104c-4.0263382-.0045273-12.93853498.0061987-12.83387453.0061987h-.00102454c-.28618273 0-.52120091-.23397-.52120091-.5278524-.00003137-.1086127-.00060637-1.9574072-.000575-1.8428499h1.39468863c.28893228 0 .52272728-.2365508.52272728-.5288889 0-.292338-.233795-.5288889-.52272728-.5288889H7.63697227l-.00102454-2.0484078h1.39627772c.28893228 0 .52272728-.2365508.52272728-.5288889 0-.292338-.233795-.5288889-.52272728-.5288889H7.63538318l-.00108727-2.0473818h1.39794c.28893227 0 .52272727-.2365508.52272727-.5288888 0-.2923381-.233795-.5288889-.52272727-.5288889H7.63378364l-.00108728-2.0484079h1.39952909c.28893228 0 .52272728-.2365508.52272728-.5288888 0-.2923381-.233795-.5288889-.52272728-.5288889H7.63212136l-.00102454-2.0473818h1.40112863c.28893228 0 .52272728-.2365509.52272728-.5288889s-.233795-.5288889-.52272728-.5288889H7.63053227c-.00006272-.1086126-.00108988-1.950172-.00108988-1.8356147 0-.2921264.23271034-.5288888.52272988-.5288888zm-3.96741636 1.758143l2.39987227-.0010366L6.59203 30.8381073l-2.39962136.0020627h-.00152637c-1.30975591 0-2.37010818-1.0732637-2.37116409-2.3985958l-.00510256-9.8939456c-.0010238-1.3232482 1.06280983-2.4006584 2.37014029-2.4016844z"/>
    <path fill="url(#c)" d="M61.4882209 28.9591026c.2041877.2065946.5349696.2066051.7391677 0 2.9995869-3.0328076 3.0000678-7.9462488 0-10.9816797-.2041877-.2065945-.53498-.2065945-.7391677 0-.2041877.2065946-.2041877.5412861 0 .7478807 2.5905005 2.6221041 2.5913891 6.8650518 0 9.4859078-.2041877.2066051-.2041877.541286 0 .7478912z"/>
    <path fill="url(#d)" d="M64.8869727 15.2875258c-.2041877-.2065946-.53498-.2065946-.7391677 0-.2041877.2065946-.2041877.541286 0 .7478806 4.0511364 4.0988889 4.0511364 10.7678499 0 14.8667388-.2041877.2065945-.2041877.541286 0 .7478806.2041877.2065946.5349695.2066051.7391677 0 4.4584873-4.511052 4.4584873-11.851448 0-16.3625z"/>
    </g>
</svg>
