<svg width="50px" height="40px" xmlns="http://www.w3.org/2000/svg" viewBox="0 0 48 38">
    <defs/>
    <defs>
        <linearGradient id="a" x1="50%" x2="50%" y1="0%" y2="100%">
            <stop offset="0%" stop-color="#062ff9"/>
            <stop offset="100%" stop-color="#0225d0"/>
        </linearGradient>
        <linearGradient id="b" x1="50%" x2="50%" y1="0%" y2="100%">
            <stop offset="0%" stop-color="#062ff9"/>
            <stop offset="100%" stop-color="#0225d0"/>
        </linearGradient>
        <linearGradient id="c" x1="50%" x2="50%" y1="0%" y2="100%">
            <stop offset="0%" stop-color="#062ff9"/>
            <stop offset="100%" stop-color="#0225d0"/>
        </linearGradient>
        <linearGradient id="d" x1="50%" x2="50%" y1="0%" y2="100%">
            <stop offset="0%" stop-color="#062ff9"/>
            <stop offset="100%" stop-color="#0225d0"/>
        </linearGradient>
    </defs>
    <g fill="none" fill-rule="nonzero">
        <path fill="url(#a)" d="M28.13 27.01c.775.382 1.556.794 2.323 1.226.178.1.399.03.495-.153a.388.388 0 00-.148-.515 47.967 47.967 0 00-2.359-1.245.36.36 0 00-.486.181.387.387 0 00.175.506z" transform="translate(-.1)"/>
        <path fill="url(#b)" d="M2.926 23.597h.001l1.675-.001v.129c0 .63.49 1.139 1.093 1.139h1.297L9.95 36.327c.152.565.65.96 1.212.96l3.264-.002c.465-.001.888-.267 1.105-.697.217-.43.187-.946-.09-1.364l-2.088-2.851c-.161-.25-.25-.546-.25-.832l-.001-3.49h1.62c.202 0 .365-.17.365-.38V24.88c1.758.19 10.497 1.486 20.145 9.058 1.41 1.093 3.422.06 3.422-1.779L38.65 22.05c2.23-.192 3.987-2.14 3.986-4.51-.001-2.37-1.748-4.317-3.99-4.506L38.64 2.936c0-1.832-2.006-2.878-3.425-1.77-6.1 4.821-12.6 7.855-20.201 9.085l-9.324.005c-.6 0-1.095.506-1.094 1.14v.123H2.921C1.606 11.52.536 12.635.537 14.005l.003 7.108c.001 1.372 1.067 2.484 2.386 2.484zm38.98-6.056c0 1.948-1.427 3.557-3.251 3.75l-.003-7.496c1.818.187 3.253 1.786 3.254 3.746zM14.85 35.67a.558.558 0 01.034.565.51.51 0 01-.46.29l-3.264.002a.541.541 0 01-.507-.402L7.748 24.863l4.62-.002c0 1.37.006 7.034.006 6.681 0 .434.132.88.385 1.273l2.092 2.856zm-1.75-8.378V24.86h1.256v2.432h-1.255zm22.554-25.52c.934-.731 2.255-.049 2.255 1.163l.014 29.222c0 1.21-1.321 1.895-2.254 1.17-9.44-7.407-18.06-8.906-20.282-9.175l-.007-13.182c2.681-.344 11.123-1.966 20.274-9.198zM5.69 11.016l8.958-.005.006 13.088c-2.81-.003-9.032.005-8.959.005a.371.371 0 01-.364-.38V22.4h.973c.202 0 .365-.17.365-.38s-.163-.38-.365-.38h-.974V20.17h.974c.202 0 .365-.17.365-.38s-.163-.38-.365-.38H5.33v-1.471h.975c.202 0 .365-.17.365-.38s-.163-.38-.365-.38H5.33v-1.472h.976c.202 0 .365-.17.365-.38s-.163-.38-.365-.38h-.977l-.001-1.471h.978c.202 0 .365-.17.365-.38s-.163-.38-.365-.38h-.978l-.001-1.319c0-.21.162-.38.365-.38zm-2.77 1.263h1.676l.005 10.556-1.675.002h-.001c-.915 0-1.655-.771-1.656-1.724l-.003-7.108c-.001-.95.742-1.725 1.654-1.726z" transform="translate(-.1)"/>
        <path fill="url(#c)" d="M42.923 21.485a.355.355 0 00.516 0c2.094-2.179 2.094-5.709 0-7.89a.355.355 0 00-.516 0 .391.391 0 000 .537c1.808 1.884 1.809 4.933 0 6.816a.391.391 0 000 .537z" transform="translate(-.1)"/>
        <path fill="url(#d)" d="M45.295 11.662a.355.355 0 00-.516 0 .391.391 0 000 .538c2.828 2.945 2.828 7.736 0 10.681a.391.391 0 000 .538.355.355 0 00.516 0c3.113-3.241 3.113-8.515 0-11.757z" transform="translate(-.1)"/>
    </g>
</svg>
