<svg xmlns="http://www.w3.org/2000/svg" xmlns:xlink="http://www.w3.org/1999/xlink" viewBox="0 0 43 39">
  <defs/>
  <defs>
    <linearGradient id="d" x1="50%" x2="50%" y1="0%" y2="100%">
      <stop offset="0%" stop-color="#062FF9"/>
      <stop offset="100%" stop-color="#0225D0"/>
    </linearGradient>
    <linearGradient id="e" x1="50%" x2="50%" y1="0%" y2="100%">
      <stop offset="0%" stop-color="#062FF9"/>
      <stop offset="100%" stop-color="#0225D0"/>
    </linearGradient>
    <linearGradient id="f" x1="50%" x2="50%" y1="0%" y2="100%">
      <stop offset="0%" stop-color="#062FF9"/>
      <stop offset="100%" stop-color="#0225D0"/>
    </linearGradient>
    <linearGradient id="g" x1="50%" x2="50%" y1="0%" y2="100%">
      <stop offset="0%" stop-color="#062FF9"/>
      <stop offset="100%" stop-color="#0225D0"/>
    </linearGradient>
    <linearGradient id="h" x1="50%" x2="50%" y1="0%" y2="100%">
      <stop offset="0%" stop-color="#062FF9"/>
      <stop offset="100%" stop-color="#0225D0"/>
    </linearGradient>
    <linearGradient id="i" x1="50%" x2="50%" y1="0%" y2="100%">
      <stop offset="0%" stop-color="#062FF9"/>
      <stop offset="100%" stop-color="#0225D0"/>
    </linearGradient>
    <linearGradient id="j" x1="50%" x2="50%" y1="0%" y2="100%">
      <stop offset="0%" stop-color="#062FF9"/>
      <stop offset="100%" stop-color="#0225D0"/>
    </linearGradient>
    <linearGradient id="k" x1="50%" x2="50%" y1="0%" y2="100%">
      <stop offset="0%" stop-color="#062FF9"/>
      <stop offset="100%" stop-color="#0225D0"/>
    </linearGradient>
    <linearGradient id="l" x1="50%" x2="50%" y1="0%" y2="100%">
      <stop offset="0%" stop-color="#062FF9"/>
      <stop offset="100%" stop-color="#0225D0"/>
    </linearGradient>
    <linearGradient id="m" x1="50%" x2="50%" y1="0%" y2="100%">
      <stop offset="0%" stop-color="#062FF9"/>
      <stop offset="100%" stop-color="#0225D0"/>
    </linearGradient>
    <filter id="a" width="104.6%" height="102.1%" x="-2.3%" y="-1%" filterUnits="objectBoundingBox">
      <feOffset in="SourceAlpha" result="shadowOffsetOuter1"/>
      <feGaussianBlur in="shadowOffsetOuter1" result="shadowBlurOuter1" stdDeviation="2.5"/>
      <feColorMatrix in="shadowBlurOuter1" values="0 0 0 0 0 0 0 0 0 0 0 0 0 0 0 0 0 0 0.15 0"/>
    </filter>
    <filter id="c">
      <feColorMatrix in="SourceGraphic" values="0 0 0 0 0.968627 0 0 0 0 0.709804 0 0 0 0 0.000000 0 0 0 1.000000 0"/>
    </filter>
    <rect id="b" width="327" height="720" x="0" y="0" rx="5"/>
  </defs>
  <g fill="none" fill-rule="evenodd">
    <g transform="translate(-15 -451)">
      <use fill="#000" filter="url(#a)" xlink:href="#b"/>
      <use fill="#FFF" xlink:href="#b"/>
    </g>
    <g filter="url(#c)" transform="translate(-39 -4297)">
      <g fill-rule="nonzero">
        <path fill="url(#d)" d="M2.90321287 36.3705319H38.3885021c.178312 0 .3225964-.1406704.3225964-.3145161V8.86265565c0-.17384565-.1442844-.31451613-.3225964-.31451613H2.90321287c-.17831194 0-.32259641.14067048-.32259641.31451613V36.0560158c0 .1738394.14428447.3145161.32259641.3145161zm.32259641-27.19336013H38.0659057V35.7414997H3.22580928V9.17717177z" transform="translate(39.596525 4297)"/>
        <path fill="url(#e)" d="M39.0343208.11333274H2.25802004c-1.24502214 0-2.25817489.98777565-2.25817489 2.20161291V36.6850481c0 1.2138372 1.01315275 2.2016129 2.25817489 2.2016129H39.0343273c1.2450221 0 2.2581748-.9877757 2.2581748-2.2016129V2.31494565c0-1.21383726-1.0131592-2.2016129-2.2581813-2.2016129zm1.6129885 36.57171536c0 .8673788-.7233257 1.5725806-1.6129885 1.5725806H2.25802004c-.88934669 0-1.61298206-.7052018-1.61298206-1.5725806V6.66104274H40.6473093V36.6850481zm0-30.65303762H.64503798V2.31494565c0-.86737888.72363537-1.57258065 1.61298206-1.57258065H39.0343273c.8896628 0 1.612982.70520177 1.612982 1.57258065v3.71706483z" transform="translate(39.596525 4297)"/>
        <path fill="url(#f)" d="M5.15980704 2.20560097c-.67228448 0-1.21918863.53012951-1.21918863 1.181895 0 .65114903.54690415 1.18127855 1.21918863 1.18127855.66441312 0 1.20469759-.53012952 1.20469759-1.18127855 0-.65176549-.54028447-1.181895-1.20469759-1.181895zm0 1.73414129c-.31660903 0-.5739958-.24755565-.5739958-.55224629 0-.30469065.25738677-.55286274.5739958-.55286274.30842152 0 .55950476.24817209.55950476.55286274 0 .30469064-.25108324.55224629-.55950476.55224629z" transform="translate(39.596525 4297)"/>
        <path fill="url(#g)" d="M8.49446035 2.20560097c-.67196833 0-1.21887248.53012951-1.21887248 1.181895 0 .65114903.54690415 1.18127855 1.21887248 1.18127855.66441312 0 1.20469759-.53012952 1.20469759-1.18127855 0-.65176549-.54028447-1.181895-1.20469759-1.181895zm0 1.73414129c-.31629288 0-.57367965-.24755565-.57367965-.55224629 0-.30469065.25738677-.55286274.57367965-.55286274.30842152 0 .55950476.24817209.55950476.55286274 0 .30469064-.25108324.55224629-.55950476.55224629z" transform="translate(39.596525 4297)"/>
        <path fill="url(#f)" d="M11.8294298 2.20560097c-.6722845 0-1.2191886.53012951-1.2191886 1.181895 0 .65114903.5469041 1.18127855 1.2191886 1.18127855.6644131 0 1.2046976-.53012952 1.2046976-1.18127855 0-.65176549-.5402909-1.181895-1.2046976-1.181895zm0 1.73414129c-.316609 0-.5739958-.24755565-.5739958-.55224629 0-.30469065.2573868-.55286274.5739958-.55286274.3084215 0 .5595048.24817209.5595048.55286274 0 .30469064-.2510897.55224629-.5595048.55224629z" transform="translate(39.596525 4297)"/>
        <path fill="url(#h)" d="M36.6772249 3.07297984H15.9910461c-.1783119 0-.3225964.14067048-.3225964.31451613 0 .17384564.1442845.31451613.3225964.31451613h20.6861788c.178312 0 .3225965-.14067049.3225965-.31451613 0-.17384565-.1442845-.31451613-.3225965-.31451613z" transform="translate(39.596525 4297)"/>
        <path fill="url(#i)" d="M20.6456994 12.1706042c-5.8190199 0-10.5530642 4.6157695-10.5530642 10.2887284 0 5.5929334 4.7000685 10.2893448 10.5530642 10.2893448 5.7917863 0 10.5536901-4.636559 10.5536901-10.2893448 0-5.6729589-4.734354-10.2887284-10.5536901-10.2887284zm0 .6290323c5.4633445 0 9.9084972 4.3331956 9.9084972 9.6596961 0 5.31141-4.4760575 9.6603126-9.9084972 9.6603126-5.4812034 0-9.9078713-4.3992944-9.9078713-9.6603126 0-5.3265005 4.4445204-9.6596961 9.9078713-9.6596961z" transform="translate(39.596525 4297)"/>
        <path fill="url(#j)" d="M14.1112317 26.1751708c-.6229853-1.0398406-.9616858-2.2100608-1.0148496-3.4013221h1.2416735c.178312 0 .3225965-.1406705.3225965-.3145161 0-.1738457-.1442845-.3145161-.3225965-.3145161h-1.2469512c.078249-1.7975667.8158269-3.427427 1.9865358-4.6695959l.8796946.8579309c.1260126.1228562.3301516.1228625.4561707 0 .1260126-.1228563.1260126-.3218884 0-.4447447l-.8796946-.8578553c1.2740816-1.1413476 2.9458988-1.8603 4.7896018-1.936545v1.2156803c0 .1738456.1442845.3145161.3225964.3145161.178312 0 .3225964-.1406705.3225964-.3145161v-1.2156803c1.8437869.0762512 3.5157203.7953483 4.789918 1.9369287l-.8793849.8568551c-.1260126.1228563-.1260126.3218884 0 .4447447.1260126.1228563.3301516.1228626.4561707 0l.8793849-.8568552c1.1705153 1.2420934 1.9079707 2.8718028 1.9862197 4.6691367h-1.246319c-.178312 0-.3225964.1406704-.3225964.3145161 0 .1738456.1442844.3145161.3225964.3145161h1.2410413c-.0532026 1.1908021-.3918643 2.3610223-1.0148496 3.4013221-.0901012.1498858-.0378019.3421621.1159347.4300002.1524784.0878443.3509526.036855.4410474-.1130308.7351327-1.2265815 1.1234936-2.6194854 1.1243646-4.0282031.0000387-.0016921.000942-.0029942.000942-.0046045 0-.0014594-.0007872-.0026105-.0008259-.0040699-.0023033-4.4292048-3.7046391-8.0062596-8.2162467-8.0062596-4.5184402 0-8.2164403 3.5848611-8.2164403 8.0103295 0 1.41102.3887544 2.8054587 1.1246743 4.0328076.2150879.3597875.7720764.0420885.556995-.3169694z" transform="translate(39.596525 4297)"/>
        <path fill="url(#k)" d="M22.7882558 27.5167771h-4.2844869c-.1783119 0-.3225964.1406705-.3225964.3145161 0 .1738457.1442845.3145162.3225964.3145162h4.2844869c.1779958 0 .3222802-.1406705.3222802-.3145162 0-.1738456-.1442844-.3145161-.3222802-.3145161z" transform="translate(39.596525 4297)"/>
        <path fill="url(#l)" d="M21.5151935 29.2761048h-1.7383688c-.1783119 0-.3225964.1406705-.3225964.3145162 0 .1738456.1442845.3145161.3225964.3145161h1.7383688c.178312 0 .3225965-.1406705.3225965-.3145161 0-.1738457-.1442845-.3145162-.3225965-.3145162z" transform="translate(39.596525 4297)"/>
        <path fill="url(#m)" d="M20.6460156 18.7275295c-.178312 0-.3225964.1406705-.3225964.3145161V24.99159c-.7613985.1454323-1.3379558.7998019-1.3379558 1.5840982 0 .1738457.1442845.3145162.3225965.3145162.1783119 0 .3225964-.1406705.3225964-.3145162 0-.5350485.4631-.986549 1.0115784-.986549.5626534 0 1.0203983.4422914 1.0203983.986549 0 .1738457.1442845.3145162.3225964.3145162.178312 0 .3225964-.1406705.3225964-.3145162 0-.7822959-.5767507-1.4358982-1.3392138-1.5835635v-5.9500853c0-.1738394-.1442909-.3145099-.3225964-.3145099z" transform="translate(39.596525 4297)"/>
      </g>
    </g>
  </g>
</svg>
