<svg xmlns="http://www.w3.org/2000/svg" xmlns:xlink="http://www.w3.org/1999/xlink" viewBox="0 0 43 41">
  <defs/>
  <defs>
    <linearGradient id="d" x1="50%" x2="50%" y1="0%" y2="100%">
      <stop offset="0%" stop-color="#062FF9"/>
      <stop offset="100%" stop-color="#0225D0"/>
    </linearGradient>
    <linearGradient id="e" x1="50%" x2="50%" y1="0%" y2="100%">
      <stop offset="0%" stop-color="#062FF9"/>
      <stop offset="100%" stop-color="#0225D0"/>
    </linearGradient>
    <linearGradient id="f" x1="50%" x2="50%" y1="0%" y2="100%">
      <stop offset="0%" stop-color="#062FF9"/>
      <stop offset="100%" stop-color="#0225D0"/>
    </linearGradient>
    <linearGradient id="g" x1="50%" x2="50%" y1="0%" y2="100%">
      <stop offset="0%" stop-color="#062FF9"/>
      <stop offset="100%" stop-color="#0225D0"/>
    </linearGradient>
    <linearGradient id="h" x1="50%" x2="50%" y1="0%" y2="100%">
      <stop offset="0%" stop-color="#062FF9"/>
      <stop offset="100%" stop-color="#0225D0"/>
    </linearGradient>
    <linearGradient id="i" x1="50%" x2="50%" y1="0%" y2="100%">
      <stop offset="0%" stop-color="#062FF9"/>
      <stop offset="100%" stop-color="#0225D0"/>
    </linearGradient>
    <linearGradient id="j" x1="50%" x2="50%" y1="0%" y2="100%">
      <stop offset="0%" stop-color="#062FF9"/>
      <stop offset="100%" stop-color="#0225D0"/>
    </linearGradient>
    <filter id="a" width="104.6%" height="102.2%" x="-2.3%" y="-1.1%" filterUnits="objectBoundingBox">
      <feOffset in="SourceAlpha" result="shadowOffsetOuter1"/>
      <feGaussianBlur in="shadowOffsetOuter1" result="shadowBlurOuter1" stdDeviation="2.5"/>
      <feColorMatrix in="shadowBlurOuter1" values="0 0 0 0 0 0 0 0 0 0 0 0 0 0 0 0 0 0 0.15 0"/>
    </filter>
    <filter id="c">
      <feColorMatrix in="SourceGraphic" values="0 0 0 0 0.968627 0 0 0 0 0.709804 0 0 0 0 0.000000 0 0 0 1.000000 0"/>
    </filter>
    <rect id="b" width="327" height="680" x="0" y="0" rx="5"/>
  </defs>
  <g fill="none" fill-rule="evenodd">
    <g transform="translate(-15 -296)">
      <use fill="#000" filter="url(#a)" xlink:href="#b"/>
      <use fill="#FFF" xlink:href="#b"/>
    </g>
    <g filter="url(#c)" transform="translate(-39 -4918)">
      <g fill-rule="nonzero">
        <path fill="url(#d)" d="M41.2860373 7.54986172c0-.09763125-.0462732-.1819375-.1155411-.2406636L34.0137593.09321094c-.0645516-.03488844-.1205156-.0900911-.2249336-.0900911H11.3746721c-.1783119 0-.3225964.14326297-.3225964.3203125v4.47256829c-.0002.00438187-.0025227.00801421-.0025227.01243453v1.28125c0 .00442031.0023227.00805265.0025227.01243453V10.22294c-.57297-.1106167-1.15854052-.1812713-1.7547503-.1812713-5.12310847 0-9.29102832 4.1384119-9.29102832 9.2252499 0 4.5810709 3.38426864 8.443982 7.91054149 9.1122116v1.7833782c-.54725901.086683-.96778924.5548774-.96778924 1.12176l-.01322645 7.3809482c0 1.2856318 1.05032875 2.3316507 2.34827606 2.3316507.70914434 0 1.33799446-.3219909 1.76797676-.819039v.4987265c0 .1770496.1442845.3203125.3225964.3203125h29.5887688c.1783119 0 .3225964-.1432629.3225964-.3203125V7.54986172zm-7.1746152-.32030656V1.10427734l6.0726259 6.12339485c-.0673195.00001922-6.4799877.00200515-6.0726259.00188297zM.65149636 19.2669186c0-4.7333667 3.87871861-8.5846249 8.64583549-8.5846249 4.73950905 0 8.65213905 3.7640307 8.65213905 8.5846249 0 5.2382433-4.6543759 9.1773759-9.67222117 8.5220614-4.34749636-.5067408-7.62575337-4.1709428-7.62575337-8.5220614zm7.91054148 9.196473c.49886955.0410576 1.0323924.0357596 1.48381446-.0006278v1.6816406H8.56203784v-1.6810128zm2.41947306 10.201825c0 .9321606-.7617533 1.6910257-1.70371549 1.6910257-.93565864 0-1.69677971-.7588651-1.69677971-1.6903979l.01323291-7.3809482c0-.2758915.22556586-.4998604.50279877-.4998604h2.40056892c.2816396 0 .5027988.219587.5027988.499239l-.0189042 7.3809418zm-.2904658-8.5013821v-1.7799381c.1166444-.0176364.2370632-.0377712.3610306-.0619741v1.9705561c-.1110119-.0614679-.231392-.1065871-.3610306-.1286439zm29.9497994 10.1924078h-28.943576V28.177487c3.0104052-.7922225 5.502598-3.0562745 6.4716583-6.156009h19.129393c.178312 0 .3225964-.143263.3225964-.3203125 0-.1770496-.1442844-.3203125-.3225964-.3203125h-2.1894941v-4.5744597c0-.1770496-.1442845-.3203125-.3225964-.3203125s-.3225964.1432629-.3225964.3203125v4.5744597h-2.2279347v-8.6703341c0-.1770495-.1442845-.3203125-.3225964-.3203125-.178312 0-.3225964.143263-.3225964.3203125v8.6703341h-2.2279348v-3.275695c0-.1770496-.1442844-.3203125-.3225964-.3203125-.1783119 0-.3225964.1432629-.3225964.3203125v3.275695h-2.2285605v-8.2711927c0-.1770495-.1442845-.3203125-.3225964-.3203125-.178312 0-.3225964.143263-.3225964.3203125v8.2711927h-2.2279412V11.2115589c0-.1770495-.144278-.3203125-.3225964-.3203125-.178299 0-.3225964.143263-.3225964.3203125V21.380853h-2.2279218v-8.2711927c0-.1770495-.1442845-.3203125-.3225964-.3203125-.178312 0-.3225964.143263-.3225964.3203125v8.2711927h-1.7519502c.1729762-.7370327.2492315-1.4130202.2492315-2.1139344 0-4.2684203-2.920833-7.8705394-6.8973887-8.9118177V.64375125h21.7641541l.0048067 6.90736609c0 .17704953.1442845.3203125.3225964.3203125 9.3900461-.00171687 6.1514039-.00112109 6.8520252-.00124922V40.3562423h-.0000064z" transform="translate(39.614395 4918)"/>
        <path fill="url(#e)" d="M30.2566466 4.78967125H14.2881242c-.178312 0-.3225964.14326297-.3225964.3203125v2.44113359c0 .17704954.1442844.3203125.3225964.3203125h15.9685224c.1783119 0 .3225964-.14326296.3225964-.3203125V5.10998375c0-.17704953-.1442845-.3203125-.3225964-.3203125zm-.3225964 2.44112719H14.6107206v-1.8005086h15.3233296v1.8005086z" transform="translate(39.614395 4918)"/>
        <path fill="url(#f)" d="M25.8020418 31.2098214c0 3.2826074 2.6650464 6.067795 6.11106 6.067795 3.3557446 0 6.1110599-2.7121948 6.1110599-6.067795 0-8.0310544-12.2221199-8.0208044-12.2221199 0zm6.11106 5.42717c-1.0735299-.0064959-1.9966073-.2703566-2.8801731-.8175528l2.8801731-4.0534458 2.8745405 4.054112c-.8450091.5287911-1.8036753.8168866-2.8745405.8168866zm3.3979338-1.1919084l-3.1339338-4.4198192c-.0604869-.0850815-.1587755-.1357549-.264-.1357549-.1045922 0-.2028809.0506734-.2633677.1357549l-3.1397213 4.4195821c-1.2926309-1.0256854-2.0627717-2.5809948-2.0627717-4.2350309 0-2.9922953 2.4522359-5.42717 5.4658671-5.42717s5.4658672 2.4348747 5.4658672 5.42717c0 1.6591995-.7706635 3.2132533-2.0679398 4.235268z" transform="translate(39.614395 4918)"/>
        <path fill="url(#g)" d="M15.0366446 28.0867745h8.2564423c.1783184 0 .3225964-.1432629.3225964-.3203125 0-.1770495-.144278-.3203125-.3225964-.3203125h-8.2564423c-.1783119 0-.3225964.143263-.3225964.3203125 0 .1770496.1442909.3203125.3225964.3203125z" transform="translate(39.614395 4918)"/>
        <path fill="url(#h)" d="M24.4499112 30.8895089h-9.4132666c-.1783119 0-.3225964.143263-.3225964.3203125s.1442845.3203125.3225964.3203125h9.4132601c.178312 0 .3225964-.143263.3225964-.3203125s-.144278-.3203125-.3225899-.3203125zM24.4499112 34.3328683h-9.4132666c-.1783119 0-.3225964.1432629-.3225964.3203125 0 .1770495.1442845.3203125.3225964.3203125h9.4132601c.178312 0 .3225964-.143263.3225964-.3203125 0-.1770496-.144278-.3203125-.3225899-.3203125z" transform="translate(39.614395 4918)"/>
        <path fill="url(#i)" d="M16.8695213 19.2637859c0-4.1402889-3.3960821-7.5085734-7.57093778-7.5085734-4.16791984 0-7.55833072 3.3682845-7.55833072 7.5085734 0 .2220919.00567125.4485657.02835623.6650264.13861322 1.5246107.72520964 2.9478744 1.69804428 4.1152661 4.54496408 5.4301361 13.40286799 2.1772218 13.40286799-4.7802925zm-12.90574692 4.371766c-.88903055-1.0672941-1.42585033-2.3685636-1.55312752-3.7686752-.02079457-.1995675-.02520123-.4035169-.02520123-.6030908 0-3.7868176 3.10120964-6.8679484 6.91313789-6.8679484 3.81886408 0 6.92574498 3.0811308 6.92574498 6.8679484 0 6.3800036-8.10636397 9.3244571-12.26055412 4.371766z" transform="translate(39.614395 4918)"/>
        <path fill="url(#j)" d="M9.05727495 14.6342709c0-.1770495-.14428447-.3203125-.32259641-.3203125-2.43585454 0-4.41742881 1.9687944-4.41742881 4.3886593 0 .1770495.14428447.3203125.32259641.3203125s.32259641-.143263.32259641-.3203125c0-2.0663936 1.69237304-3.7480343 3.77223599-3.7480343.17830549 0 .32259641-.1432629.32259641-.3203125z" transform="translate(39.614395 4918)"/>
      </g>
    </g>
  </g>
</svg>
