<svg xmlns="http://www.w3.org/2000/svg" xmlns:xlink="http://www.w3.org/1999/xlink" viewBox="0 0 43 42">
  <defs/>
  <defs>
    <linearGradient id="d" x1="50%" x2="50%" y1="0%" y2="100%">
      <stop offset="0%" stop-color="#062FF9"/>
      <stop offset="100%" stop-color="#0225D0"/>
    </linearGradient>
    <linearGradient id="e" x1="50%" x2="50%" y1="0%" y2="100%">
      <stop offset="0%" stop-color="#062FF9"/>
      <stop offset="100%" stop-color="#0225D0"/>
    </linearGradient>
    <linearGradient id="f" x1="50%" x2="50%" y1="0%" y2="100%">
      <stop offset="0%" stop-color="#062FF9"/>
      <stop offset="100%" stop-color="#0225D0"/>
    </linearGradient>
    <linearGradient id="g" x1="50%" x2="50%" y1="0%" y2="100%">
      <stop offset="0%" stop-color="#062FF9"/>
      <stop offset="100%" stop-color="#0225D0"/>
    </linearGradient>
    <linearGradient id="h" x1="50%" x2="50%" y1="0%" y2="100%">
      <stop offset="0%" stop-color="#062FF9"/>
      <stop offset="100%" stop-color="#0225D0"/>
    </linearGradient>
    <linearGradient id="i" x1="50%" x2="50%" y1="0%" y2="100%">
      <stop offset="0%" stop-color="#062FF9"/>
      <stop offset="100%" stop-color="#0225D0"/>
    </linearGradient>
    <linearGradient id="j" x1="50%" x2="50%" y1="0%" y2="100%">
      <stop offset="0%" stop-color="#062FF9"/>
      <stop offset="100%" stop-color="#0225D0"/>
    </linearGradient>
    <filter id="a" width="104.6%" height="102.2%" x="-2.3%" y="-1.1%" filterUnits="objectBoundingBox">
      <feOffset in="SourceAlpha" result="shadowOffsetOuter1"/>
      <feGaussianBlur in="shadowOffsetOuter1" result="shadowBlurOuter1" stdDeviation="2.5"/>
      <feColorMatrix in="shadowBlurOuter1" values="0 0 0 0 0 0 0 0 0 0 0 0 0 0 0 0 0 0 0.15 0"/>
    </filter>
    <filter id="c">
      <feColorMatrix in="SourceGraphic" values="0 0 0 0 0.968627 0 0 0 0 0.709804 0 0 0 0 0.000000 0 0 0 1.000000 0"/>
    </filter>
    <rect id="b" width="327" height="680" x="0" y="0" rx="5"/>
  </defs>
  <g fill="none" fill-rule="evenodd">
    <g transform="translate(-15 -435)">
      <use fill="#000" filter="url(#a)" xlink:href="#b"/>
      <use fill="#FFF" xlink:href="#b"/>
    </g>
    <g filter="url(#c)" transform="translate(-39 -5057)">
      <g fill-rule="nonzero">
        <path fill="url(#d)" d="M39.034166 2.08057182H21.9365561v-.48970091c0-.70161637-.5787186-1.27272727-1.2903857-1.27272727-.711667 0-1.2903856.5711109-1.2903856 1.27272727v.48970091H2.25817489C1.01315275 2.08057182 0 3.07986 0 4.30784455V27.68178c0 1.2279845 1.01315275 2.2272727 2.25817489 2.2272727H14.536846L7.85478392 39.69812c-.39592903.5854482-.24065692 1.3742845.35567545 1.76554.63207606.4102636 1.40406863.2099045 1.78688089-.3486318l7.64646404-11.2059691h1.7119805v8.7183091c0 .7016163.5787186 1.2727273 1.2903856 1.2727273.7116671 0 1.2903857-.571111 1.2903857-1.2727273v-8.7183091h1.7056833l7.6467802 11.2059691c.3933806.5747 1.1855032.7526209 1.7903456.34615.5873384-.3862027.7512561-1.1731618.3512624-1.7642927l-6.6814298-9.7878328H39.034166c1.2450221 0 2.2581748-.9992882 2.2581748-2.2272727V4.30784455c0-1.22797819-1.0131527-2.22727273-2.2581748-2.22727273zm-19.0331884-.48970091c0-.35112.2895174-.63636364.6451928-.63636364.3556755 0 .6451928.28524364.6451928.63636364v.48970091h-1.2903856v-.48970091zM9.46209474 40.7595555c-.18933829.2777854-.58060902.3778409-.89595992.1733836-.29771133-.1957582-.37159236-.5904436-.17547309-.8805936l6.92385457-10.1432864h1.5515532L9.46209474 40.7595555zm11.82926846-2.1321937c0 .3449027-.2955047.6363637-.6451928.6363637-.3556754 0-.6451928-.2852437-.6451928-.6363637v-8.7183091h1.2903856v8.7183091zm11.603393 1.4237364c.2004808.2962909.1185735.6888954-.1748473.8818409-.0012581.0006236-.0022065.0012409-.0034646.0018645-.2888851.1976228-.7009569.1050255-.8921791-.1752481l-7.4042845-10.8505028h1.5515532l6.9232223 10.1420455zM40.647148 27.68178c0 .8774882-.7236354 1.5909091-1.612982 1.5909091H2.25817489c-.88934669 0-1.61298206-.7134209-1.61298206-1.5909091V4.30784455c0-.87748819.72363537-1.5909091 1.61298206-1.5909091H39.034166c.8893466 0 1.612982.71342091 1.612982 1.5909091V27.68178z" transform="translate(39.614395 5057)"/>
        <path fill="url(#e)" d="M39.0316432 3.99028636H2.25565219c-.17831195 0-.32259642.14231-.32259642.31818182V27.6824036c0 .1758719.14428447.3181819.32259642.3181819H39.0316432c.178312 0 .3225965-.14231.3225965-.3181819V4.30846818c0-.17587182-.1442845-.31818182-.3225965-.31818182zm-.3225964 23.37393544H2.5782486V4.62665h36.1307982v22.7375718z" transform="translate(39.614395 5057)"/>
        <path fill="url(#f)" d="M31.4260586 8.72759364h4.7085205c.1783119 0 .3225964-.14231.3225964-.31818182S36.312891 8.09123 36.1345791 8.09123h-4.7085205c-.1783119 0-.3225964.14231-.3225964.31818182s.1442845.31818182.3225964.31818182zM31.4260586 10.5484336h4.7085205c.1783119 0 .3225964-.14231.3225964-.3181818 0-.1758718-.1442845-.3181818-.3225964-.3181818h-4.7085205c-.1783119 0-.3225964.14231-.3225964.3181818 0 .1758718.1442845.3181818.3225964.3181818zM31.4260586 12.36928h4.7085205c.1783119 0 .3225964-.14231.3225964-.3181818 0-.1758718-.1442845-.3181818-.3225964-.3181818h-4.7085205c-.1783119 0-.3225964.14231-.3225964.3181818 0 .1758718.1442845.3181818.3225964.3181818zM31.4260586 14.1901264h4.7085205c.1783119 0 .3225964-.14231.3225964-.3181819 0-.1758718-.1442845-.3181818-.3225964-.3181818h-4.7085205c-.1783119 0-.3225964.14231-.3225964.3181818 0 .1758719.1442845.3181819.3225964.3181819z" transform="translate(39.614395 5057)"/>
        <path fill="url(#g)" d="M16.3273464 25.9995209h19.8330662c.1783119 0 .3225964-.14231.3225964-.3181818V18.78947c0-.0957027-.0437892-.1870591-.1193994-.2473355-.0756101-.0602763-.1757892-.0826509-.2699874-.0640118l-2.1721707.4536573-1.7796353-1.3255518c-.0929336-.0689818-.2161138-.0832746-.3238546-.0372846l-2.5429694 1.09872-1.8505163-.7034809c-.1017533-.0385318-.2170622-.0236154-.3055827.0397728L25.3137405 19.29781l-2.2011528-.6661964c-.088843-.0292091-.1861832-.0149163-.2655742.0341791L20.4725877 20.13179l-4.1906048.5891327c-.1590916.0223746-.2772329.1566028-.2772329.3150764v4.6453273c0 .1758845.1442909.3181945.3225964.3181945zm19.5104762-.6363636H16.6499428v-1.4672382l3.761842-.0428782c.0718293-.0006236.1411359-.02548.1975258-.0696054l2.4768113-1.9488637 2.192333.6630846c.0960886.03045.2019389.0124281.2841623-.0466073l1.7172581-1.2304664 1.9343204 1.8326509c.1074246.1012964.2709293.1174537.396.0397728l2.1929652-1.3690537 1.9752707.4058091c.0434731.0086991.088527.0086991.1326323 0l1.9267587-.40208v3.6354755zm-15.2067755-4.6105309c.0447377-.0062173.0875785-.0217509.1256965-.0453664l2.3076353-1.4249836 2.2140695.6699191c.0960886.0310736.201939.0124281.2841623-.0466073l1.7935006-1.2851555 1.810824.6885646c.0787587.03045.1676017.0285854.245412-.0055937l2.4916185-1.0769691 1.7459241 1.3006955c.0746617.0553064.1710664.07644.2611676.0571709l1.9267587-.40208v1.8947982l-1.9941749.4163727-2.036706-.4188545c-.0815911-.0161573-.1676018-.0018646-.2384826.0422609L29.4788215 22.42184l-1.946921-1.8444618c-.1127797-.1075137-.2863688-.1199418-.4130137-.0279682l-1.8051528 1.2938545-2.2011527-.6661963c-.1008114-.0323146-.212333-.0111873-.2958209.0553063l-2.523433 1.985531-3.6433846.0416372V21.31192l3.9811043-.5592936z" transform="translate(39.614395 5057)"/>
        <path fill="url(#h)" d="M10.0222253 16.2900055c2.9183362 0 5.2217133-2.3403355 5.2217133-5.1505682 0-2.83878003-2.3416564-5.14808003-5.2198228-5.14808003-2.87848267 0-5.22013906 2.30930637-5.22013906 5.14808003 0 2.8315 2.32841058 5.1505682 5.21824856 5.1505682zm2.8864379-1.661291l-2.2629816-3.1710954h3.9335342c-.0873139 1.2253054-.6496446 2.3561173-1.6705526 3.1710954zm-2.8845474 1.0230628c-.77457338.0221454-1.70470272-.2434282-2.36761254-.6492564l2.36591564-3.3085945 2.36198 3.3085181c-.7257903.4415982-1.6203954.6659164-2.3602831.6493328zm4.5582873-4.8305218h-4.2356909V6.64387818c2.2649107.15699091 4.0764831 1.94373455 4.2356909 4.17737732zM9.70151935 6.64387182v4.39317458l-2.56746098 3.58988c-1.08625954-.8755219-1.6848888-2.1614728-1.6848888-3.4874955 0-2.29983726 1.80553986-4.32456181 4.25234978-4.49555908z" transform="translate(39.614395 5057)"/>
        <path fill="url(#i)" d="M9.05097142 17.6503536H6.6702486c-.17831194 0-.32259641.14231-.32259641.3181819v7.7128036c0 .1758718.14428447.3181818.32259641.3181818h2.38072282c.17831194 0 .32259641-.14231.32259641-.3181818v-7.7128036c0-.1758719-.14428447-.3181819-.32259641-.3181819zm-.32259641 7.7128037H6.99284502v-7.07644h1.73552999v7.07644z" transform="translate(39.614395 5057)"/>
        <path fill="url(#j)" d="M13.3776732 19.6508009h-2.3807228c-.1783119 0-.3225964.14231-.3225964.3181818v5.7123564c0 .1758718.1442845.3181818.3225964.3181818h2.3807228c.178312 0 .3225964-.14231.3225964-.3181818v-5.7123564c0-.1758718-.1442909-.3181818-.3225964-.3181818zm-.3225964 5.7123564h-1.73553v-5.0759928h1.73553v5.0759928z" transform="translate(39.614395 5057)"/>
      </g>
    </g>
  </g>
</svg>
