<svg xmlns="http://www.w3.org/2000/svg" xmlns:xlink="http://www.w3.org/1999/xlink" viewBox="0 0 40 47">
  <defs/>
  <defs>
    <linearGradient id="d" x1="50%" x2="50%" y1="0%" y2="100%">
      <stop offset="0%" stop-color="#062FF9"/>
      <stop offset="100%" stop-color="#0225D0"/>
    </linearGradient>
    <linearGradient id="e" x1="50%" x2="50%" y1="0%" y2="100%">
      <stop offset="0%" stop-color="#062FF9"/>
      <stop offset="100%" stop-color="#0225D0"/>
    </linearGradient>
    <linearGradient id="f" x1="50%" x2="50%" y1="0%" y2="100%">
      <stop offset="0%" stop-color="#062FF9"/>
      <stop offset="100%" stop-color="#0225D0"/>
    </linearGradient>
    <filter id="a" width="104.6%" height="102.2%" x="-2.3%" y="-1.1%" filterUnits="objectBoundingBox">
      <feOffset in="SourceAlpha" result="shadowOffsetOuter1"/>
      <feGaussianBlur in="shadowOffsetOuter1" result="shadowBlurOuter1" stdDeviation="2.5"/>
      <feColorMatrix in="shadowBlurOuter1" values="0 0 0 0 0 0 0 0 0 0 0 0 0 0 0 0 0 0 0.15 0"/>
    </filter>
    <filter id="c">
      <feColorMatrix in="SourceGraphic" values="0 0 0 0 0.968627 0 0 0 0 0.709804 0 0 0 0 0.000000 0 0 0 1.000000 0"/>
    </filter>
    <rect id="b" width="326" height="676" x="0" y="0" rx="5"/>
  </defs>
  <g fill="none" fill-rule="evenodd">
    <g transform="translate(-16 -452)">
      <use fill="#000" filter="url(#a)" xlink:href="#b"/>
      <use fill="#FFF" xlink:href="#b"/>
    </g>
    <g filter="url(#c)" transform="translate(-141 -3042)">
      <g fill-rule="nonzero">
        <path fill="url(#d)" d="M9.89062963 15.2792538c1.60662967-.545284 3.17382967-1.2598833 4.68931107-1.9503009l.1616741-.0732603c1.2557852-.57638 1.5086074-1.1541471 1.0810889-2.4796901-.9299259-2.75684373-1.9645926-5.61033696-2.8273259-8.44323635-.3674741-1.17488246-1.0912148-1.6835363-2.2826222-1.62409723C5.07472593 1.06390215 1.80107407 3.27198708.70262222 7.46216246-.56328888 12.5597622.10583704 19.0091603 2.53891852 25.1565437c3.01866667 7.562768 8.45485928 13.8069141 16.62000738 19.091104 2.8649852 1.8603249 5.8657111 2.1933437 8.895763 1.2315545 2.3864296-.7643644 5.2698222-2.0698656 6.3982963-5.4079087.3009259-.8984366.1504667-1.5556775-.4991333-2.1914966-2.1809926-2.2060114-4.2961482-4.4638541-5.8969926-6.1853935-1.301363-1.3856686-1.8598074-1.4727431-3.5235852-.5494311-1.3036.7385052-2.5492371 1.5502425-3.8498297 2.2599163-1.1234074.5943483-1.2753185.5210951-2.3198814-.3192895C14.6573259 30.0364431 11.9584 26.0556738 9.87 20.5579237c-.45066667-1.1845566-.80186667-2.3739468-1.04383704-3.5343145-.17794074-.8811618.15191852-1.4195317 1.06446667-1.7443554zm-1.79108889 1.8805013c.24920741 1.1969978.6108963 2.4216381 1.07422222 3.6400507 2.13360744 5.6159207 4.90017034 9.689992 8.70948894 12.824156 1.2377037.9979594 1.7104296 1.1652013 3.1633407.398077 1.3098815-.714932 2.5646889-1.5319982 3.8614-2.266137 1.3570593-.7560701 1.5277778-.7284276 2.5962074.4098247 1.6030074 1.7243064 3.723237 3.9869898 5.9158 6.2047489.4644074.4547489.5468741.8293304.3276889 1.4844978-.8007778 2.3684197-2.628763 3.8964548-5.9273704 4.9531597-2.8884518.9184785-5.6626148.5314628-8.2454444-1.1458529-.000363-.0006935-.000363-.0006935-.000726-.0006935C11.5395704 38.461704 6.19343704 32.3267618 3.23155556 24.9056668.84982963 18.8875222.19046666 12.5887846 1.42202222 7.62940431c1.02322222-3.90267539 3.99088889-5.87716523 9.33665928-6.21442308.0553407-.00276708.1088666-.00484061.1609555-.00484061.7356741 0 1.1136445.31860307 1.3653778 1.123044.8675408 2.84892153 1.8732593 5.61582153 2.8309482 8.45567758.3200963.9917387.2293111 1.2045984-.6940815 1.6282443l-.1605926.0732603c-1.4984815.6828098-3.0483185 1.3891221-4.62384446 1.9240384-1.25253333.4450819-1.78457777 1.3241631-1.5379037 2.5453499z" transform="translate(141 3042)"/>
        <path fill="url(#e)" d="M39.9246296 16.4465357c0-4.6020735-4.9746815-8.3464877-11.0886889-8.3464877-6.1140074 0-11.0886888 3.7444142-11.0886888 8.3464877 0 1.5218145.5447037 3.0014717 1.5773333 4.2917646l-1.8106222 4.9579932c-.0520815.1423665-.0036149.3006277.1200814.3946234.1215852.0916745.2922667.1026508.428963.0207354l4.5366741-2.7658031c1.841.947508 3.9923333 1.4471742 6.2362592 1.4471742 6.1140074-.0000071 11.0886889-3.7444142 11.0886889-8.3464877zM28.8359407 24.085324c-2.1969037 0-4.2954296-.5045068-6.0684296-1.4589218-.1193555-.0642727-.2662074-.0601256-.3804963.0096741L18.5654 24.9657923l1.5248815-4.1770406c.0426815-.1154175.0195333-.2432692-.060763-.3386449-1.0083926-1.1990714-1.5415259-2.583353-1.5415259-4.0035782 0-4.2122908 4.6419259-7.63879537 10.3479481-7.63879537 5.7060223 0 10.3479482 3.42650457 10.3479482 7.63879537S34.541963 24.085324 28.8359407 24.085324z" transform="translate(141 3042)"/>
        <path fill="url(#f)" d="M5.21180741 4.48694615c-.70203704.63374554-1.26880741 1.349732-1.68511111 2.128604-.09295556.174156-.02061482.38702277.16131111.47617077.18448889.0893037.40611852.01832923.4984074-.15411415.37760741-.70699877.89373334-1.35871262 1.53392593-1.93647969.14865185-.13407231.15552593-.35799323.01482963-.5003597-.14033333-.14167292-.37506667-.14858707-.52336296-.01382123z" transform="translate(141 3042)"/>
      </g>
    </g>
  </g>
</svg>
