<svg
  class="o-svg o-svg__support"
  xmlns="http://www.w3.org/2000/svg"
  fill="#F7B500"
  viewBox="0 0 64 44.6">
  <defs/>
  <g data-name="Capa 2">
    <g data-name="Capa 1">
      <path d="M3.31 3.5v34.88H.5a.5.5 0 00-.5.5 5.73 5.73 0 005.72 5.72h52.56A5.73 5.73 0 0064 38.88a.5.5 0 00-.5-.5h-2.81V3.5a3.5 3.5 0 00-3.5-3.5H6.81a3.5 3.5 0 00-3.5 3.5zm55 40.1H5.72A4.72 4.72 0 011 39.38h25.5A3.12 3.12 0 0029.57 42h4.86a3.12 3.12 0 003.07-2.61H63a4.72 4.72 0 01-4.72 4.21zm-30.78-4.22h8.94a2.1 2.1 0 01-2 1.61h-4.9a2.1 2.1 0 01-2.04-1.61zM59.69 3.5v34.88H4.31V3.5A2.5 2.5 0 016.81 1h50.38a2.5 2.5 0 012.5 2.5z"/>
      <path d="M6.31 3.5v32.38a.5.5 0 00.5.5h50.38a.5.5 0 00.5-.5V3.5a.5.5 0 00-.5-.5H6.81a.5.5 0 00-.5.5zm1 .5h49.38v31.38H7.31z"/>
      <path d="M53.11 5.5h-.18a.5.5 0 000 1h.18a1.08 1.08 0 011.08 1.08.5.5 0 001 0 2.08 2.08 0 00-2.08-2.08zm-8.9 13.23v-1.38a12.21 12.21 0 00-24.42 0v1.38A3 3 0 0018 21.47v3.92a3 3 0 003 3h2.28a1.26 1.26 0 001.26-1.26v-7.42a1.26 1.26 0 00-1.26-1.26v-1.1a8.69 8.69 0 0117.38 0v1.1a1.26 1.26 0 00-1.26 1.26v7.44a1.26 1.26 0 001.26 1.26h1.47A4.12 4.12 0 0138.08 32h-3.79a1.71 1.71 0 00-1.63-1.22h-1.8a1.71 1.71 0 100 3.42h1.8a1.71 1.71 0 001.63-1.2h3.79a5.11 5.11 0 005.07-4.64 3 3 0 002.83-3v-3.89a3 3 0 00-1.77-2.74zm-11.55 14.5h-1.8a.71.71 0 010-1.42h1.8a.71.71 0 010 1.42zm-9.08-13.52v7.44a.26.26 0 01-.26.26H21a2 2 0 01-2-2v-3.94a2 2 0 012-2h2.28a.26.26 0 01.3.24zM32 7.67a9.7 9.7 0 00-9.7 9.68v1.1h-1.51v-1.1a11.21 11.21 0 0122.42 0v1.1h-1.52v-1.1A9.69 9.69 0 0032 7.67zm13 17.72a2 2 0 01-2 2h-2.32a.26.26 0 01-.26-.26v-7.42a.26.26 0 01.26-.26H43a2 2 0 012 2z"/>
      <path d="M35.17 30.24l1.7-1.7a.49.49 0 00-.7-.7l-1.7 1.7a.49.49 0 10.7.7zM33.59 29l.7-2.61a.5.5 0 10-1-.26l-.7 2.61a.5.5 0 001 .26zm-3 0a.5.5 0 101-.26l-.72-2.71a.5.5 0 00-1 .26zm-.88 1.21a.5.5 0 000-.7l-1.93-1.93a.5.5 0 00-.7 0 .5.5 0 000 .71L29 30.21a.5.5 0 00.76.03z"/>
    </g>
  </g>
</svg>
