<svg
  class="o-svg o-svg__support"
  xmlns="http://www.w3.org/2000/svg"
  xmlns:xlink="http://www.w3.org/1999/xlink"
  viewBox="0 0 89 64">
  <defs/>
  <defs>
    <linearGradient id="c" x1="27.6997631%" x2="73.6809023%" y1="25.6949492%" y2="74.3050508%">
      <stop offset="0%" stop-color="#FFC422"/>
      <stop offset="100%" stop-color="#DAA002"/>
    </linearGradient>
    <linearGradient id="d" x1="27.6997631%" x2="73.6809023%" y1="28.8759302%" y2="71.1240698%">
      <stop offset="0%" stop-color="#FFC422"/>
      <stop offset="100%" stop-color="#DAA002"/>
    </linearGradient>
    <linearGradient id="e" x1="27.6997631%" x2="73.6809023%" y1="6.24729676%" y2="93.7527032%">
      <stop offset="0%" stop-color="#FFC422"/>
      <stop offset="100%" stop-color="#DAA002"/>
    </linearGradient>
    <linearGradient id="f" x1="29.417274%" x2="71.8570559%" y1="0%" y2="100%">
      <stop offset="0%" stop-color="#FFC422"/>
      <stop offset="100%" stop-color="#DAA002"/>
    </linearGradient>
    <linearGradient id="g" x1="27.6997631%" x2="73.6809023%" y1=".06922746%" y2="99.9307725%">
      <stop offset="0%" stop-color="#FFC422"/>
      <stop offset="100%" stop-color="#DAA002"/>
    </linearGradient>
    <linearGradient id="h" x1="45.0382694%" x2="55.2689242%" y1="0%" y2="100%">
      <stop offset="0%" stop-color="#FFC422"/>
      <stop offset="100%" stop-color="#DAA002"/>
    </linearGradient>
    <linearGradient id="i" x1="45.1731256%" x2="55.1257187%" y1="0%" y2="100%">
      <stop offset="0%" stop-color="#FFC422"/>
      <stop offset="100%" stop-color="#DAA002"/>
    </linearGradient>
    <linearGradient id="j" x1="27.7363771%" x2="73.6420214%" y1="0%" y2="100%">
      <stop offset="0%" stop-color="#FFC422"/>
      <stop offset="100%" stop-color="#DAA002"/>
    </linearGradient>
    <filter id="a" width="104.6%" height="102.2%" x="-2.3%" y="-1.1%" filterUnits="objectBoundingBox">
      <feOffset in="SourceAlpha" result="shadowOffsetOuter1"/>
      <feGaussianBlur in="shadowOffsetOuter1" result="shadowBlurOuter1" stdDeviation="2.5"/>
      <feColorMatrix in="shadowBlurOuter1" values="0 0 0 0 0 0 0 0 0 0 0 0 0 0 0 0 0 0 0.15 0"/>
    </filter>
    <rect id="b" width="326" height="676" x="0" y="0" rx="5"/>
  </defs>
  <g fill="none" fill-rule="evenodd">
    <g transform="translate(-119 -40)">
      <use fill="#000" filter="url(#a)" xlink:href="#b"/>
      <use fill="#FFF" xlink:href="#b"/>
    </g>
    <g fill-rule="nonzero">
      <path fill="url(#c)" d="M4.60305219 5.84374261V54.3722713H.6953125c-.38432703 0-.6953125.3111374-.6953125.6956522 0 4.3885913 3.5682325 7.9578852 7.95466703 7.9578852H81.0453191c4.3864484 0 7.954667-3.5692939 7.954667-7.9578852 0-.3845148-.3109855-.6956522-.6953125-.6956522h-3.9077397V5.84374261c0-2.68478609-2.1837123-4.86956522-4.8671875-4.86956522H9.47023969c-2.68347516 0-4.8671875 2.18477913-4.8671875 4.86956522zM81.045333 61.6345043H7.95466703c-3.3848925 0-6.1790475-2.5760834-6.52738516-5.8709286H36.8515486c.3340698 2.0570713 2.1212455 3.6317913 4.2689684 3.6317913h6.7589242c2.147723 0 3.9348986-1.574734 4.2689685-3.6317913h35.4242667c-.3483098 3.2948313-3.1424509 5.8709286-6.5273434 5.8709286zm-42.7666416-5.8709286h12.4426311c-.3141283 1.2829495-1.4643838 2.2404869-2.8418534 2.2404869h-6.7589243c-1.3774836 0-2.5277251-.9575374-2.8418534-2.2404869zM83.0063228 5.84374261V54.3722713H5.99367719V5.84374261c0-1.91848348 1.55969718-3.47826087 3.4765625-3.47826087H79.5297603c1.9168653 0 3.4765625 1.55977739 3.4765625 3.47826087z"/>
      <path fill="url(#d)" d="M8.77492719 5.84374261V50.8940104c0 .3845148.31098547.6956522.6953125.6956522H79.5297603c.384327 0 .6953125-.3111374.6953125-.6956522V5.84374261c0-.38451478-.3109855-.69565218-.6953125-.69565218H9.47023969c-.38432703 0-.6953125.3111374-.6953125.69565218zm1.39062501.69565217h68.6688956V50.1983583H10.1655522V6.53939478z"/>
      <path fill="url(#e)" d="M73.8592922 8.6263513h-.2485186c-.384327 0-.6953125.3111374-.6953125.69565218 0 .38451478.3109855.69565222.6953125.69565222h.2485186c.826365 0 1.4985931.6725565 1.4985931 1.4986434 0 .3845148.3109855.6956522.6953125.6956522s.6953125-.3111374.6953125-.6956522c0-1.59375301-1.2962433-2.8899478-2.8892181-2.8899478z"/>
      <path fill="url(#f)" d="M61.4828687 27.0373565v-1.9205148c0-9.3641321-7.6144923-16.9823304-16.9740382-16.9823304-9.3690578 0-16.9916993 7.6182122-16.9916993 16.9823304v1.9205148c-1.4452904.6650852-2.4566781 2.1190539-2.4566781 3.8118122v5.4470122c0 2.3165774 1.8842691 4.2010852 4.1997153 4.2010852h3.1743936c.962841 0 1.7464303-.7839722 1.7464303-1.7472835V28.395367c0-.9646748-.7835893-1.748647-1.7464303-1.748647h-.0224029v-1.5298922c0-6.6644035 5.4266915-12.085593 12.0966714-12.085593 6.6604679 0 12.0790243 5.4211895 12.0790243 12.085593V26.64672h-.0224029c-.962841 0-1.7464303.7839722-1.7464303 1.748647v10.3546156c0 .9633113.7835893 1.7472835 1.7464303 1.7472835h2.0482515c-.3479065 2.8298296-2.7386412 5.0366887-5.6599411 5.0366887h-5.2670478c-.2977467-.9741913-1.1940462-1.6888626-2.2632422-1.6888626h-2.5062539c-1.3104971 0-2.3772317 1.0665739-2.3772317 2.3790748 0 1.3125008 1.0667346 2.3790747 2.3772317 2.3790747h2.5062539c1.0652049 0 1.9587093-.7094121 2.2598491-1.6779826h5.2704409c3.6978388 0 6.710461-2.8440904 7.0532779-6.4549982 2.1890662-.1408 3.9325206-1.9490505 3.9325206-4.17408v-5.4470122c0-1.6927583-1.0114016-3.146727-2.4566921-3.8118122zM45.4234584 47.2119513h-2.5062539c-.5438873 0-.9866067-.4429356-.9866067-.9877704 0-.5448348.4427194-.9877705.9866067-.9877705h2.5062539c.5438874 0 .9866068.4429357.9866068.9877705 0 .5448348-.4427055.9877704-.9866068.9877704zM32.7903673 28.395367v10.3546156c0 .1956591-.1595742.3559791-.3558053.3559791h-3.1743936c-1.5488364 0-2.8090903-1.2608695-2.8090903-2.8097808v-5.4470122c0-1.5502748 1.2602539-2.8111444 2.8090903-2.8111444h3.1743936c.1962311 0 .3558053.160334.3558053.3573427zm11.7184632-16.7554227c-7.4365897 0-13.4872964 6.0461914-13.4872964 13.4768974v1.5298922h-2.1137779v-1.5298922c0-8.596466 6.9986124-15.59102605 15.6010743-15.59102605 8.59295 0 15.5834132 6.99456005 15.5834132 15.59102605v1.5298922H57.9784659v-1.5298922c0-7.430706-6.0425576-13.4768974-13.4696354-13.4768974zm18.0400914 24.6562366c0 1.5489113-1.2602539 2.8097808-2.8090903 2.8097808H56.565438c-.1962311 0-.3558053-.16032-.3558053-.3559791V28.395367c0-.1970087.1595742-.3573427.3558053-.3573427h3.1743936c1.5488364 0 2.8090903 1.2608696 2.8090903 2.8111444v5.4470122z"/>
      <path fill="url(#g)" d="M48.9136073 43.0529809l2.3622964-2.3641322c.271603-.2717357.271603-.7119583 0-.9836939-.2716029-.2717357-.7116106-.2717357-.9832135 0l-2.3622965 2.3641322c-.659184.6594921.3418852 1.6253217.9832136.9836939z"/>
      <path fill="url(#h)" d="M46.7054478 41.3627548l.9737156-3.6358678c.0991377-.3722853-.1208592-.7527235-.4916137-.8532592-.3693917-.091033-.7516745.1222818-.8514797.4918539l-.9737156 3.6358679c-.2383114.8949287 1.1071739 1.2436591 1.3430934.3614052z"/>
      <path fill="url(#i)" d="M42.6048702 41.3614052c.093881.3526122.4527735.5918191.8514796.4932035.3707407-.1005496.5907375-.4809739.4916138-.8518957L42.93894 37.2336974c-.0984563-.3709217-.4800577-.5856-.8514797-.4932035-.3707406.1005496-.5907375.4809739-.4916137.8518957l1.0090236 3.7690156z"/>
      <path fill="url(#j)" d="M41.3799242 43.0529809c.271603-.2717357.271603-.7119583 0-.9836939l-2.6726144-2.6752696c-.2716029-.2717357-.7116106-.2717357-.9832136 0-.2716029.2717356-.2716029.7119583 0 .9836939l2.6726144 2.6752696c.2715891.2717356.7115967.2717495.9832136 0z"/>
    </g>
  </g>
</svg>
