<svg xmlns="http://www.w3.org/2000/svg" xmlns:xlink="http://www.w3.org/1999/xlink" viewBox="0 0 41 40">
  <defs/>
  <defs>
    <linearGradient id="d" x1="50%" x2="50%" y1="0%" y2="100%">
      <stop offset="0%" stop-color="#062FF9"/>
      <stop offset="100%" stop-color="#0225D0"/>
    </linearGradient>
    <linearGradient id="e" x1="50%" x2="50%" y1="0%" y2="100%">
      <stop offset="0%" stop-color="#062FF9"/>
      <stop offset="100%" stop-color="#0225D0"/>
    </linearGradient>
    <linearGradient id="f" x1="50%" x2="50%" y1="0%" y2="100%">
      <stop offset="0%" stop-color="#062FF9"/>
      <stop offset="100%" stop-color="#0225D0"/>
    </linearGradient>
    <filter id="a" width="104.6%" height="102.3%" x="-2.3%" y="-1.2%" filterUnits="objectBoundingBox">
      <feOffset in="SourceAlpha" result="shadowOffsetOuter1"/>
      <feGaussianBlur in="shadowOffsetOuter1" result="shadowBlurOuter1" stdDeviation="2.5"/>
      <feColorMatrix in="shadowBlurOuter1" values="0 0 0 0 0 0 0 0 0 0 0 0 0 0 0 0 0 0 0.15 0"/>
    </filter>
    <filter id="c">
      <feColorMatrix in="SourceGraphic" values="0 0 0 0 0.968627 0 0 0 0 0.709804 0 0 0 0 0.000000 0 0 0 1.000000 0"/>
    </filter>
    <rect id="b" width="327" height="644" x="0" y="0" rx="5"/>
  </defs>
  <g fill="none" fill-rule="evenodd">
    <g transform="translate(-16 -269)">
      <use fill="#000" filter="url(#a)" xlink:href="#b"/>
      <use fill="#FFF" xlink:href="#b"/>
    </g>
    <g filter="url(#c)" transform="translate(-40 -3415)">
      <g fill-rule="nonzero">
        <path fill="url(#d)" d="M20.5.35037576c-.0251032 0-.0497839.0022909-.0748436.0023697-.0842861.00066666-.1689511.0059212-.2535043.00821212C9.31742394.58644848.46257318 11.8495455.37339197 11.9643697c-.08372076.1083091-.08372076.2574545 0 .3657697.08569.1103091 8.26078561 10.5069212 18.52625383 11.5258061v2.1352666c-.6548073.0707273-1.1678043.6072424-1.1678043 1.2643515l-.0248733 9.6975637c0 1.4867454 1.2402997 2.6964969 2.7645182 2.6964969 1.5302691 0 2.7645181-1.2083636 2.7645181-2.6964969 0-7.8669515.024569-9.6756606.0248734-9.6928243v-.0041454c0-.6535576-.5066668-1.1877091-1.155672-1.2636849V23.855503c10.2631946-1.0216909 18.4357494-11.4150545 18.5214021-11.5253575.0837208-.1083091.0837208-.2574546 0-.3657697C40.5365198 11.8483636 31.5040708.35037576 20.5.35037576zM9.07855545 12.0987152c0-6.02736368 4.84739895-10.94784247 11.09472425-11.13244247.091225-.002.1817294-.00791515.2732215-.00821212C30.4561853.89473939 35.5459998 12.4941455 29.0268011 19.5294667c-7.0301831 7.5890181-19.94824565 2.7546545-19.94824565-7.4307515zm-8.06241393.0485333C1.92926742 11.0316 6.99140076 5.12310303 13.7473124 2.37126667c-3.2557541 2.13837575-5.28996907 5.73064848-5.28996907 9.72744853 0 4.214309 2.27612117 7.9344181 5.74390117 10.0053272-6.98082768-2.6652727-12.25119753-8.816806-13.18510298-9.9567939zM22.6396658 27.2543758c-.000907.0781272-.0248734 1.9578606-.0248734 9.6987454 0 1.1456243-.9503116 2.0904364-2.143306 2.0904364-1.1817567 0-2.1433061-.9375031-2.1433061-2.0898424l.0248733-9.6975637c0-.3710909.3093947-.6729394.6897629-.6729394h2.9070802c.3797656 0 .6888559.3006606.6897691.6711637zm-1.1556782-1.2772243h-1.9631297v-2.0651333c.6839048.0417757 1.2735221.0422363 1.9631297-.0001455v2.0652788zm5.2829245-3.8603091c7.6879659-4.5410727 7.5759987-15.05826664.5082261-19.73551513C34.0177373 5.1376 39.0713786 11.0333758 39.9838647 12.1472485c-.9353529 1.1417636-6.2201659 7.3109757-13.2169526 9.9695939z" transform="translate(40 3415)"/>
        <path fill="url(#e)" d="M20.5057648 2.84445455h-.0115234c-5.2272205 0-9.4798523 4.14890909-9.4798523 9.24893335 0 .246806.0042491.538.0360986.8244545.4281581 4.5327576 4.0678399 7.9919394 8.6041544 8.3937031.2529762.0278181.5356712.0420242.8396055.0420242 5.1491216 0 9.4977494-4.0838303 9.4977494-9.2548545 0-5.10187278-4.2475193-9.25426065-9.4862322-9.25426065zm-.0115296 17.90305455c-.2808811 0-.539616-.0130182-.7941079-.0390606-4.205749-.3756243-7.6287396-3.5834303-8.0314714-7.8509697-.0291224-.2627818-.0330609-.5338546-.0330609-.7640849 0-4.7656242 3.9738753-8.64287269 8.8589445-8.64287269h.010921c4.8873553 0 8.8653181 3.87315152 8.8653181 8.64819999 0 4.8262546-4.0610872 8.6487879-8.8765434 8.6487879z" transform="translate(40 3415)"/>
        <path fill="url(#f)" d="M20.5063674 6.93536364c-.4167712 0-.8253486.04557575-1.2148238.13553333-.0912995.02071515-.1680441.08108485-.20869.16394545-.0403415.08286061-.0403415.1787394 0 .2616.1243667.25272122.1871526.51906061.1871526.79012728 0 1.00911515-.84173 1.8306121-1.876073 1.8306121-.4292079 0-.8520421-.14618786-1.190553-.41193332-.0734025-.05741212-.1683485-.07930909-.2593437-.06036969-.0912995.01893939-.168951.07693939-.2117215.15802424-.3761253.71377577-.5748014 1.52462427-.5748014 2.34433937 0 2.8740546 2.399612 5.2124788 5.3488538 5.2124788 2.9456015 0 5.342182-2.3384242 5.342182-5.2124788 0-2.87405452-2.3965805-5.21187876-5.342182-5.21187876zm0 9.81830306c-2.6067862 0-4.7276416-2.0661697-4.7276416-4.6064182 0-.6060606.1228447-1.2062.3573212-1.7548546.3821883.2148425.8174654.3308485 1.2578924.3308485 1.377103 0 2.4972851-1.09315755 2.4972851-2.4366727 0-.23555758-.0351854-.46697576-.1049537-.69247273.2344703-.03492121.4756186-.05267273.7200966-.05267273 2.6031459 0 4.7209699 2.0661697 4.7209699 4.60582426 0 2.5402485-2.117824 4.6064182-4.7209699 4.6064182z" transform="translate(40 3415)"/>
      </g>
    </g>
  </g>
</svg>
