<svg
  xmlns="http://www.w3.org/2000/svg"
  class="o-svg o-svg__light-bulb"
  fill="#F7B500"
  viewBox="0 0 53.4 64">
  <defs/>
  <g data-name="Capa 2">
    <g data-name="Capa 1">
      <path d="M9.88 40.08A45.25 45.25 0 0116 50.1a2.65 2.65 0 00.87 4.43A2.65 2.65 0 0018.74 59h1.62a5.62 5.62 0 005.14 5h3c2.19 0 4.45-2.13 4.57-5h1.5a2.65 2.65 0 001.91-4.5 2.66 2.66 0 001.72-2.48 2.64 2.64 0 00-.79-1.89s.06 0 .07-.08a36.3 36.3 0 015.69-9.65 21.37 21.37 0 005-16.14A21.17 21.17 0 0026.74 5.07a21.37 21.37 0 00-15.38 6.17 21.71 21.71 0 00-1.48 28.84zM28.54 63h-3a4.59 4.59 0 01-4.15-4h10.73c-.12 2.27-1.92 4-3.58 4zm6.07-5H18.74a1.66 1.66 0 110-3.32h15.87a1.66 1.66 0 110 3.32zm1-4.32H17.77a1.66 1.66 0 010-3.32h17.81a1.66 1.66 0 110 3.32zM23.22 28.2h-2.84a2.84 2.84 0 01-2.85-2.83V25a2.85 2.85 0 015.69 0zm1 1h5v20.19h-5zM12.07 12a20.5 20.5 0 0114.62-5.93A20.17 20.17 0 0147.2 24.39a20.34 20.34 0 01-4.76 15.4 36.8 36.8 0 00-5.71 9.6h-6.55V29.2H33a3.84 3.84 0 003.84-3.83V25a3.84 3.84 0 10-7.68 0v3.23h-5V25a3.85 3.85 0 00-7.69 0v.39a3.85 3.85 0 003.85 3.83h2.84v20.17h-6.43a44.15 44.15 0 00-6.07-9.94 20.43 20.43 0 01-4.56-13A20.64 20.64 0 0112.07 12zm18.11 16.2V25a2.84 2.84 0 115.68 0v.39A2.84 2.84 0 0133 28.2zM4.28 17.79l-2-.74a.51.51 0 00-.65.3A.5.5 0 002 18l2 .74a.5.5 0 10.35-.94zM0 27.94a.49.49 0 00.5.47l2.11-.09a.51.51 0 00.48-.53.49.49 0 00-.53-.47l-2.1.1a.5.5 0 00-.46.52zM4.77 36.74l-1.9.92a.5.5 0 10.44.9l1.9-.92a.5.5 0 00-.44-.9z"/>
      <path d="M41.58 18.8a.51.51 0 00.68.22.51.51 0 00.21-.68 21.58 21.58 0 00-2.58-3.92.49.49 0 00-.7-.07.5.5 0 00-.07.7 21.08 21.08 0 012.46 3.75zM27.2 2.61V.5a.5.5 0 00-1 0v2.11a.5.5 0 001 0zM17.39 5a.5.5 0 00.26-.65l-.83-1.94a.49.49 0 00-.65-.27.5.5 0 00-.27.66l.83 1.94a.5.5 0 00.66.26zM9.61 10.41a.5.5 0 000-.71L8.06 8.25a.49.49 0 00-.7 0 .5.5 0 000 .71l1.54 1.47a.5.5 0 00.71-.02zM10.49 44.55L9.1 46.14a.5.5 0 00.76.65l1.38-1.59a.5.5 0 00-.75-.65zM36.67 4.75l.83-1.94a.5.5 0 00-.27-.66.49.49 0 00-.65.27l-.83 1.94a.5.5 0 00.92.39zM44.5 10.43L46 9a.5.5 0 000-.71.49.49 0 00-.7 0L43.81 9.7a.5.5 0 10.69.73zM51.1 17.05l-2 .74a.5.5 0 00-.29.65.5.5 0 00.64.29l2-.74a.5.5 0 00.3-.64.51.51 0 00-.65-.3zM50.29 27.79a.51.51 0 00.48.53l2.11.09a.49.49 0 00.5-.47.5.5 0 00-.48-.52l-2.1-.1a.5.5 0 00-.51.47zM48 37a.51.51 0 00.23.67l1.9.92a.5.5 0 10.44-.9l-1.9-.92A.51.51 0 0048 37zM42.21 44.5a.49.49 0 00-.05.7l1.38 1.59a.51.51 0 00.71.05.49.49 0 000-.7l-1.39-1.59a.49.49 0 00-.65-.05z"/>
    </g>
  </g>
</svg>
