<svg
  xmlns="http://www.w3.org/2000/svg"
  fill="#f7b500"
  viewBox="0 0 64 65">
  <defs/>
  <g data-name="Capa 2">
    <g data-name="Capa 1">
      <path d="M60.5 2.77H34V2a2 2 0 00-4 0v.77H3.5A3.5 3.5 0 000 6.27V43a3.5 3.5 0 003.5 3.5h19L12.17 61.88a2 2 0 003.33 2.23L27.35 46.5H30v13.7a2 2 0 004 0V46.5h2.64L48.5 64.11a2 2 0 103.31-2.23L41.46 46.5h19A3.5 3.5 0 0064 43V6.27a3.5 3.5 0 00-3.5-3.5zM31 2a1 1 0 012 0v.77h-2zM14.67 63.55A1 1 0 0113 62.44L23.74 46.5h2.4zM33 60.2a1 1 0 01-1 1 1 1 0 01-1-1V46.5h2zm18 2.24a1 1 0 01-.27 1.38 1 1 0 01-1.38-.28l-11.48-17h2.4zM63 43a2.5 2.5 0 01-2.5 2.5h-57A2.5 2.5 0 011 43V6.27a2.5 2.5 0 012.5-2.5h57a2.5 2.5 0 012.5 2.5z"/>
      <path d="M60.5 5.77h-57a.5.5 0 00-.5.5V43a.5.5 0 00.5.5h57a.5.5 0 00.5-.5V6.27a.5.5 0 00-.5-.5zM60 42.5H4V6.77h56z"/>
      <path d="M48.71 13.21H56a.5.5 0 00.5-.5.51.51 0 00-.5-.5h-7.3a.5.5 0 00-.5.5.5.5 0 00.51.5zM48.71 16.08H56a.51.51 0 00.5-.5.5.5 0 00-.5-.5h-7.3a.5.5 0 00-.5.5.5.5 0 00.51.5zM48.71 18.94H56a.51.51 0 00.5-.5.5.5 0 00-.5-.5h-7.3a.5.5 0 00-.5.5.5.5 0 00.51.5zM48.71 21.8H56a.5.5 0 000-1h-7.3a.5.5 0 000 1zM25.31 40.36h30.74a.51.51 0 00.5-.5V29a.51.51 0 00-.61-.49l-3.36.71-2.76-2.08a.5.5 0 00-.5-.06l-4 1.72-2.86-1.1a.51.51 0 00-.48.06l-2.8 2-3.41-1a.46.46 0 00-.41 0l-3.68 2.31-6.49.92a.51.51 0 00-.43.5v7.3a.5.5 0 00.55.57zm30.24-1H25.81v-2.31l5.83-.05a.46.46 0 00.3-.11l3.84-3.06 3.4 1a.49.49 0 00.44-.07l2.66-1.93 3 2.88a.5.5 0 00.61.06l3.4-2.15 3.06.64h.21l3-.64zM32 32.11a.44.44 0 00.19-.07l3.58-2.24 3.43 1.05a.49.49 0 00.44-.07l2.78-2 2.81 1.08a.46.46 0 00.38 0l3.86-1.69 2.7 2.05a.55.55 0 00.41.09l3-.64v3l-3.09.66-3.16-.66a.48.48 0 00-.37.06l-3.24 2-3-2.89a.5.5 0 00-.64-.05l-2.8 2-3.41-1a.49.49 0 00-.46.09L31.45 36l-5.64.06V33zM15.53 25.1A8.09 8.09 0 107.45 17a8.1 8.1 0 008.08 8.1zM20 22.49l-3.51-5h6.1a7 7 0 01-2.59 5zm-4.46 1.61a7.2 7.2 0 01-3.67-1l3.66-5.2 3.66 5.2a7.07 7.07 0 01-3.65 1zm7.06-7.6H16V9.94a7.09 7.09 0 016.6 6.56zM15 9.94v6.9l-4 5.65a7.08 7.08 0 014-12.55zM14 27.24h-3.66a.5.5 0 00-.5.5v12.12a.5.5 0 00.5.5H14a.51.51 0 00.5-.5V27.74a.5.5 0 00-.5-.5zm-.5 12.12h-2.66V28.24h2.69zM20.73 30.38H17a.5.5 0 00-.5.5v9a.51.51 0 00.5.5h3.69a.5.5 0 00.5-.5v-9a.5.5 0 00-.46-.5zm-.5 9h-2.69v-8h2.69z"/>
    </g>
  </g>
</svg>
