<svg
  xmlns="http://www.w3.org/2000/svg"
  fill="#F7B500"
  viewBox="0 0 53.8 64.01">
  <defs/>
  <g data-name="Capa 2">
    <g data-name="Capa 1">
      <path d="M13.25 20.6a67.6 67.6 0 006.33-2.76l.22-.1c1.69-.82 2-1.63 1.46-3.51C20 10.34 18.61 6.3 17.44 2.3A2.76 2.76 0 0014.36 0C6.75.51 2.33 3.63.85 9.55c-1.71 7.2-.81 16.32 2.48 25 4.07 10.69 11.41 19.51 22.43 27a13.07 13.07 0 0012 1.74c3.22-1.08 7.12-2.93 8.64-7.64a2.77 2.77 0 00-.67-3.1c-3-3.12-5.8-6.31-8-8.74C36 41.83 35.26 41.71 33 43c-1.76 1.05-3.44 2.19-5.2 3.2-1.52.84-1.72.73-3.13-.45-5-4.31-8.65-9.94-11.47-17.71a34.34 34.34 0 01-1.41-5 1.94 1.94 0 011.46-2.44zm-2.42 2.65a36.92 36.92 0 001.45 5.15C15.16 36.33 18.9 42.09 24 46.52c1.67 1.41 2.31 1.64 4.27.56 1.77-1 3.46-2.16 5.21-3.2s2.07-1 3.51.58c2.16 2.43 5 5.63 8 8.76a1.8 1.8 0 01.44 2.1c-1.08 3.35-3.55 5.51-8 7a12.14 12.14 0 01-11.11-1.62c-10.84-7.35-18.06-16-22.06-26.5C1.05 25.69.16 16.79 1.82 9.79 3.2 4.27 7.21 1.48 14.42 1h.22c1 0 1.5.45 1.84 1.58 1.17 4 2.53 7.94 3.82 12 .44 1.4.31 1.71-.93 2.3l-.22.11a68 68 0 01-6.24 2.72 2.93 2.93 0 00-2.08 3.54z"/>
      <path d="M53.8 22.24c0-6.5-6.72-11.79-15-11.79s-15 5.29-15 11.79a9.89 9.89 0 002.2 6.07l-2.45 7a.5.5 0 00.74.58L30.41 32a17.74 17.74 0 008.42 2c8.25 0 14.97-5.25 14.97-11.76zM38.83 33a16.72 16.72 0 01-8.2-2 .49.49 0 00-.51 0L25 34.28l2-5.9a.49.49 0 00-.08-.48 9 9 0 01-2.08-5.66c0-5.95 6.26-10.79 14-10.79s14 4.84 14 10.79S46.53 33 38.83 33zM6.93 5.35a11.06 11.06 0 00-2.27 3 .5.5 0 10.89.46 10.21 10.21 0 012.07-2.74.5.5 0 10-.69-.72z"/>
      <path d="M32 19.8a2.52 2.52 0 102.51 2.52A2.52 2.52 0 0032 19.8zm0 4a1.52 1.52 0 111.51-1.51A1.52 1.52 0 0132 23.83zM38.65 19.8a2.52 2.52 0 102.52 2.52 2.52 2.52 0 00-2.52-2.52zm0 4a1.52 1.52 0 111.52-1.51 1.52 1.52 0 01-1.52 1.54zM45.32 19.8a2.52 2.52 0 102.52 2.52 2.52 2.52 0 00-2.52-2.52zm0 4a1.52 1.52 0 111.52-1.51 1.52 1.52 0 01-1.52 1.54z"/>
    </g>
  </g>
</svg>
