<svg
  xmlns="http://www.w3.org/2000/svg"
  fill="#F7B500"
  viewBox="0 0 64 61.64">
  <defs/>
  <g data-name="Capa 2">
    <g data-name="Capa 1">
      <path d="M4.5 57.64h55a.5.5 0 00.5-.5V13.91a.5.5 0 00-.5-.5h-55a.5.5 0 00-.5.5v43.23a.5.5 0 00.5.5zM5 14.41h54v42.23H5z"/>
      <path d="M60.5 0h-57A3.5 3.5 0 000 3.5v54.64a3.5 3.5 0 003.5 3.5h57a3.5 3.5 0 003.5-3.5V3.5A3.5 3.5 0 0060.5 0zM63 58.14a2.5 2.5 0 01-2.5 2.5h-57a2.5 2.5 0 01-2.5-2.5V10.41h62v47.73zm0-48.73H1V3.5A2.5 2.5 0 013.5 1h57A2.5 2.5 0 0163 3.5z"/>
      <path d="M8 3.33a1.88 1.88 0 100 3.75 1.88 1.88 0 000-3.75zm0 2.75a.88.88 0 110-1.75.88.88 0 010 1.75zM13.17 3.33A1.88 1.88 0 1015 5.21a1.88 1.88 0 00-1.83-1.88zm0 2.75a.88.88 0 110-1.75.88.88 0 010 1.75zM18.33 3.33a1.88 1.88 0 101.87 1.88 1.88 1.88 0 00-1.87-1.88zm0 2.75a.88.88 0 11.87-.87.87.87 0 01-.87.87zM56.85 4.71H24.79a.5.5 0 00-.5.5.5.5 0 00.5.5h32.06a.51.51 0 00.5-.5.5.5 0 00-.5-.5zM32 19.17a16.36 16.36 0 1016.36 16.35A16.38 16.38 0 0032 19.17zm0 1a15.36 15.36 0 11-15.36 15.35A15.37 15.37 0 0132 20.17z"/>
      <path d="M21.87 41.43A11.73 11.73 0 0120.3 36h1.92a.5.5 0 00.5-.5.5.5 0 00-.5-.5h-1.93a11.66 11.66 0 013.08-7.42L24.73 29a.5.5 0 00.71 0 .48.48 0 000-.7l-1.36-1.37a11.66 11.66 0 017.42-3.07v1.93a.5.5 0 001 0v-1.97a11.66 11.66 0 017.42 3.07l-1.36 1.37a.5.5 0 000 .7.5.5 0 00.71 0l1.36-1.36a11.66 11.66 0 013.08 7.4h-1.93a.5.5 0 00-.5.5.5.5 0 00.5.5h1.92a11.73 11.73 0 01-1.57 5.41.51.51 0 00.18.69.51.51 0 00.68-.18 12.72 12.72 0 001.74-6.41A12.73 12.73 0 1021 41.94a.5.5 0 00.87-.51zM35.32 43.56h-6.64a.5.5 0 00-.5.5.5.5 0 00.5.5h6.64a.5.5 0 00.5-.5.5.5 0 00-.5-.5zM33.35 46.36h-2.7a.5.5 0 100 1h2.7a.5.5 0 100-1z"/>
      <path d="M32 29.59a.5.5 0 00-.5.5v9.46a2.57 2.57 0 00-2.07 2.52.5.5 0 00.5.5.51.51 0 00.5-.5 1.58 1.58 0 013.15 0 .5.5 0 00.5.5.51.51 0 00.5-.5 2.58 2.58 0 00-2.08-2.52v-9.46a.5.5 0 00-.5-.5z"/>
    </g>
  </g>
</svg>
