<svg
  xmlns="http://www.w3.org/2000/svg"
  fill="#F7B500"
  viewBox="0 0 64 64.99">
  <defs/>
  <g data-name="Capa 2">
    <g data-name="Capa 1">
      <path d="M15.07 61.06a.9.9 0 10.9.9.9.9 0 00-.9-.9zM9.28 61.06a.9.9 0 10.9.9.9.9 0 00-.9-.9zM12.17 61.06a.9.9 0 10.91.9.9.9 0 00-.91-.9z"/>
      <path d="M57.94 38.51a10.5 10.5 0 00-3-19.92A12.48 12.48 0 0042.63 8.08a12.3 12.3 0 00-3.9.63 14.75 14.75 0 00-28.21 5.7 12.49 12.49 0 00-4.47 23v19.31A3.23 3.23 0 007 58.94H5a2.5 2.5 0 00-2.5 2.5v1.05A2.5 2.5 0 005 65h54a2.51 2.51 0 002.5-2.5v-1.06a2.51 2.51 0 00-2.5-2.5h-2a3.23 3.23 0 00.9-2.22zM1 26.75a11.51 11.51 0 0110.07-11.41.61.61 0 00.44-.59A13.76 13.76 0 0138 9.52a.5.5 0 00.63.28A11.47 11.47 0 0154 19.1a.52.52 0 00.45.44 9.51 9.51 0 013.49 17.86V27.32a3.22 3.22 0 00-3.22-3.22H9.27a3.22 3.22 0 00-3.22 3.22v9A11.53 11.53 0 011 26.75zm6.05.57a2.23 2.23 0 012.22-2.22h45.45a2.23 2.23 0 012.22 2.22v29.4a2.23 2.23 0 01-2.22 2.22H9.27a2.23 2.23 0 01-2.22-2.22zm19.29 32.62h11.31v1a.5.5 0 01-.5.5H26.84a.5.5 0 01-.5-.5zm34.18 1.5v1.05A1.5 1.5 0 0159 64H5a1.5 1.5 0 01-1.5-1.5v-1.06a1.5 1.5 0 011.5-1.5h20.34v1a1.5 1.5 0 001.5 1.5h10.31a1.5 1.5 0 001.5-1.5v-1H59a1.5 1.5 0 011.52 1.5z"/>
      <path d="M11.08 57.22h41.83a2.3 2.3 0 002.31-2.31V29.14a2.31 2.31 0 00-2.31-2.32H11.08a2.32 2.32 0 00-2.31 2.32v25.77a2.31 2.31 0 002.31 2.31zM9.77 29.14a1.32 1.32 0 011.31-1.32h41.83a1.32 1.32 0 011.31 1.32v25.77a1.31 1.31 0 01-1.31 1.31H11.08a1.31 1.31 0 01-1.31-1.31z"/>
      <path d="M50.64 30.09A1.32 1.32 0 0152 31.4a.5.5 0 00.5.5.5.5 0 00.5-.5 2.32 2.32 0 00-2.32-2.31.5.5 0 000 1zM48.83 37.45a.5.5 0 00.7 0 .5.5 0 000-.71l-5.69-5.69a.5.5 0 00-.71 0 .51.51 0 000 .71zM44.87 39.18a.5.5 0 00.71 0 .5.5 0 000-.7L42.1 35a.49.49 0 00-.7.7z"/>
    </g>
  </g>
</svg>
