<svg
  class="o-svg o-svg__data"
  xmlns="http://www.w3.org/2000/svg" xmlns:xlink="http://www.w3.org/1999/xlink" viewBox="0 0 41 49">
  <defs/>
  <defs>
    <linearGradient id="d" x1="50%" x2="50%" y1="0%" y2="100%">
      <stop offset="0%" stop-color="#062FF9"/>
      <stop offset="100%" stop-color="#0225D0"/>
    </linearGradient>
    <linearGradient id="e" x1="50%" x2="50%" y1="0%" y2="100%">
      <stop offset="0%" stop-color="#062FF9"/>
      <stop offset="100%" stop-color="#0225D0"/>
    </linearGradient>
    <linearGradient id="f" x1="50%" x2="50%" y1="0%" y2="100%">
      <stop offset="0%" stop-color="#062FF9"/>
      <stop offset="100%" stop-color="#0225D0"/>
    </linearGradient>
    <linearGradient id="g" x1="50%" x2="50%" y1="0%" y2="100%">
      <stop offset="0%" stop-color="#062FF9"/>
      <stop offset="100%" stop-color="#0225D0"/>
    </linearGradient>
    <filter id="a" width="104.6%" height="102.2%" x="-2.3%" y="-1.1%" filterUnits="objectBoundingBox">
      <feOffset in="SourceAlpha" result="shadowOffsetOuter1"/>
      <feGaussianBlur in="shadowOffsetOuter1" result="shadowBlurOuter1" stdDeviation="2.5"/>
      <feColorMatrix in="shadowBlurOuter1" values="0 0 0 0 0 0 0 0 0 0 0 0 0 0 0 0 0 0 0.15 0"/>
    </filter>
    <filter id="c">
      <feColorMatrix in="SourceGraphic" values="0 0 0 0 0.968627 0 0 0 0 0.709804 0 0 0 0 0.000000 0 0 0 1.000000 0"/>
    </filter>
    <rect id="b" width="327" height="680" x="0" y="0" rx="5"/>
  </defs>
  <g fill="none" fill-rule="evenodd">
    <g transform="translate(-144 -40)">
      <use fill="#000" filter="url(#a)" xlink:href="#b"/>
      <use fill="#FFF" xlink:href="#b"/>
    </g>
    <g filter="url(#c)" transform="translate(-168 -4662)">
      <g fill-rule="nonzero">
        <path fill="url(#d)" d="M37.2048017 49.001493c1.0972809 0 1.989857-.8688083 1.989857-1.9364953V5.68311187c0-1.06021453-.8925761-1.92228531-1.989857-1.92228531h-9.6369223l-.0431119-.12336515c-.1885801-.53982688-.7082198-.90244985-1.2927671-.90244985h-3.3991388c-.197846-1.538355-1.5347319-2.73651218-3.1680288-2.73651218-1.6332969 0-2.9701828 1.19815718-3.1680288 2.73651218h-3.4006804c-.5845474 0-1.1041949.36262297-1.2927672.90244985l-.0430726.12336515H2.12369975c-1.09728092 0-1.989857.86207844-1.989857 1.92228531V47.06499c0 1.067687.89257608 1.936503 1.989857 1.936503H37.2048017zm-7.8657003-9.7123743l5.7425748.0022433-5.7425748 5.6763438v-5.6785871zm6.2925603-1.9260751c-.0017305.014677-.0088332.0275242-.0088332.0426683v1.1147883h-6.6770121c-.2173843 0-.393285.1712167-.393285.3828125v.5415112l-.0043183 6.0732208H3.7045246V7.22932219h7.0280504c.1101985.59147593.644956 1.0946064 1.3488418 1.0946064h15.1652825c.6792268 0 1.232217-.47217625 1.3492272-1.0946064h7.0357352V37.3630436zM19.6648249.76412438c1.2002587 0 2.1990296.85459828 2.3888525 1.97088718h-4.777705c.1898308-1.1162889 1.1885939-1.97088718 2.3888525-1.97088718zm-6.5687013 2.73651218c.3100344.00455547 12.9137887.00006891 13.1358768 0 .2477223 0 .4677968.15402078.5476808.38356281 1.0379421 2.97529532 1.0311225 2.92369985 1.0454302 3.01838469.0505372.33241906-.2011102.65571953-.5784042.65571953H12.0814168c-.3605716 0-.6689385-.308455-.5557432-.74917937l1.0227691-2.92492484c.0798841-.22954204.2999585-.38356282.5476809-.38356282zM.92042065 47.0649977V5.68311188c0-.63777329.5396185-1.15666032 1.20328697-1.15666032h9.36918168l-.6765367 1.93723797H3.31124745c-.21738436 0-.39328501.17121672-.39328501.3828125V45.9008572c0 .2115958.17590065.3828125.39328501.3828125H28.9097679c.0106108.0008422.0208362.0059795.0314471.0059795.1033159 0 .2047048-.0396287.2803729-.114392l6.9543566-6.8742253c.1251119-.0545355.2105176-.1714541.2254467-.309726.0015338-.0068217.0028789-.0127093.0040823-.019577.0003382-.0066839.0039329-.0122883.0039329-.0190641v-.0066839c.0017304-.014677.0088332-.0275242.0088332-.0426682V6.84650969c0-.21159578-.1759007-.3828125-.3932851-.3828125h-7.5123101l-.6771188-1.93724563h9.3692761c.6636685 0 1.203287.51888703 1.203287 1.15666032V47.06499c0 .6452458-.5396185 1.1708703-1.203287 1.1708703H2.12369975c-.66366846 0-1.2032791-.5256169-1.2032791-1.1708626z" transform="translate(168.331014 4662)"/>
        <path fill="url(#e)" d="M32.5598933 27.5213706H6.77782675c-.21738436 0-.39328502.1712167-.39328502.3828125s.17590066.3828125.39328502.3828125H32.5598855c.2173843 0 .393285-.1712167.393285-.3828125s-.1759007-.3828125-.3932772-.3828125zM32.5598933 31.2814545H6.77782675c-.21738436 0-.39328502.1712167-.39328502.3828125s.17590066.3828125.39328502.3828125H32.5598855c.2173843 0 .393285-.1712167.393285-.3828125s-.1759007-.3828125-.3932772-.3828125zM32.5598933 35.0407958H6.77782675c-.21738436 0-.39328502.1712167-.39328502.3828125s.17590066.3828125.39328502.3828125H32.5598855c.2173843 0 .393285-.1712167.393285-.3828125s-.1759007-.3828125-.3932772-.3828125z" transform="translate(168.331014 4662)"/>
        <path fill="url(#f)" d="M27.8988445 15.5270817c0-.2115958-.1759006-.3828125-.393285-.3828125s-.393285.1712167-.393285.3828125v8.2349553h-1.8657992v-7.4611075c0-.2115958-.1759006-.3828125-.393285-.3828125s-.393285.1712167-.393285.3828125v7.4611075h-1.8657992v-5.0991773c0-.2115958-.1759006-.3828125-.393285-.3828125s-.393285.1712167-.393285.3828125v5.0991773h-1.8657992v-3.0512836c0-.2115957-.1759006-.3828125-.393285-.3828125s-.393285.1712168-.393285.3828125v3.0512836h-1.8661846v-5.7960186c0-.2115957-.1759007-.3828125-.393285-.3828125-.2173844 0-.393285.1712168-.393285.3828125v5.7960186h-1.8657992v-4.7118783c0-.2115957-.1759007-.3828125-.393285-.3828125-.2173844 0-.393285.1712168-.393285.3828125v4.7118783h-1.8657992v-3.0512836c0-.2115957-.1759007-.3828125-.393285-.3828125-.2173844 0-.393285.1712168-.393285.3828125v3.0512836H6.77782675c-.21738436 0-.39328502.1712167-.39328502.3828125s.17590066.3828125.39328502.3828125H32.5598855c.2173843 0 .393285-.1712167.393285-.3828125s-.1759007-.3828125-.393285-.3828125h-4.661041v-8.2349553z" transform="translate(168.331014 4662)"/>
        <path fill="url(#g)" d="M11.2529855 17.148798c.0334135 0 .066827-.0037363.1002405-.0127094l3.3275609-.8516047c.0683608-.0171959.1305863-.0523381.1801245-.10094l2.0597516-2.0329411 2.3750718 1.9402316c.0825741.0680411.1904994.0964534.2976538.0874803l2.4111754-.2706638c.0921781-.0104661.1774423-.0523381.2408084-.1173856l2.8225122-2.9077289 3.1320668-.939085c.2077803-.0620539.3241534-.275893.260394-.4785156-.0641369-.2018724-.2830551-.3170147-.4916063-.2527175l-3.2311589.9682476c-.0649077.0194393-.1236724.0545814-.1701429.102433l-2.7952418 2.8800669-2.1004645.2355215-2.5233245-2.0613534c-.1567005-.1278517-.3890611-.1181359-.5327046.0239258l-2.2391131 2.210145-3.2230966.824693c-.210085.053831-.3356766.2631835-.2803729.4672992.0464942.1719517.2054993.2856011.3798662.2856011z" transform="translate(168.331014 4662)"/>
      </g>
    </g>
  </g>
</svg>
