<svg
  xmlns="http://www.w3.org/2000/svg"
  class="o-svg o-svg__data"
  fill="#F7B500"
  viewBox="0 0 49.66 64">
  <defs/>
  <g data-name="Capa 2">
    <g data-name="Capa 1">
      <path d="M47.13 64a2.53 2.53 0 002.53-2.53v-54a2.53 2.53 0 00-2.53-2.51H34.88l-.06-.16a1.74 1.74 0 00-1.64-1.18h-4.32a4.06 4.06 0 00-8.06 0h-4.32a1.74 1.74 0 00-1.64 1.18l-.06.16H2.53A2.52 2.52 0 000 7.42v54.05A2.53 2.53 0 002.53 64zm-10-12.68h7.3l-7.3 7.42zm8-2.52v1.51h-8.5a.5.5 0 00-.5.5v8.64H4.54v-50h8.93a1.74 1.74 0 001.72 1.43h19.28a1.74 1.74 0 001.72-1.43h8.94V48.8zM24.83 1a3.09 3.09 0 013 2.57h-6.04A3.09 3.09 0 0124.83 1zm-8.35 3.57h16.7a.76.76 0 01.7.51C35.2 9 35.19 8.89 35.21 9a.74.74 0 01-.74.85H15.19a.74.74 0 01-.71-1l1.3-3.82a.74.74 0 01.7-.46zM1 61.47v-54a1.53 1.53 0 011.53-1.56h11.91l-.86 2.53H4a.5.5 0 00-.5.5V60a.5.5 0 00.5.5h32.62a.49.49 0 00.36-.15l8.84-9a.49.49 0 00.29-.4V8.94a.5.5 0 00-.5-.5h-9.53l-.86-2.53h11.91a1.53 1.53 0 011.53 1.51v54.05A1.53 1.53 0 0147.13 63H2.53A1.53 1.53 0 011 61.47z"/>
      <path d="M41.22 36H8.45a.5.5 0 00-.5.5.5.5 0 00.5.5h32.77a.5.5 0 00.5-.5.5.5 0 00-.5-.5zM41.22 40.86H8.45a.5.5 0 100 1h32.77a.5.5 0 000-1zM41.22 45.77H8.45a.5.5 0 100 1h32.77a.5.5 0 000-1zM35.3 20.28a.5.5 0 00-1 0V31h-2.37v-9.71a.51.51 0 00-.5-.5.5.5 0 00-.5.5V31h-2.38v-6.62a.5.5 0 00-.5-.5.5.5 0 00-.5.5V31h-2.37v-4a.5.5 0 00-.5-.5.51.51 0 00-.5.5v4h-2.37v-7.53a.5.5 0 00-1 0V31h-2.37v-6.12a.51.51 0 00-.5-.5.5.5 0 00-.5.5V31h-2.37v-4a.51.51 0 00-.5-.5.5.5 0 00-.5.5v4H8.45a.5.5 0 00-.5.5.5.5 0 00.5.5h32.77a.5.5 0 00.5-.5.5.5 0 00-.5-.5H35.3zM14.14 22.4a.25.25 0 00.12 0l4.23-1.11a.48.48 0 00.23-.13l2.62-2.66 3 2.54a.52.52 0 00.38.11l3.07-.35a.51.51 0 00.3-.15l3.59-3.8 4-1.23A.49.49 0 0036 15a.48.48 0 00-.62-.33l-4.11 1.26a.61.61 0 00-.22.13l-3.55 3.77-2.67.3-3.21-2.69a.51.51 0 00-.68 0l-2.84 2.89-4.1 1.09a.5.5 0 00-.36.61.5.5 0 00.5.37z"/>
    </g>
  </g>
</svg>
