<svg
  xmlns="http://www.w3.org/2000/svg"
  fill="#F7B500"
  viewBox="0 0 63.98 63.99">
  <defs/>
  <g data-name="Capa 2">
    <g data-name="Capa 1">
      <path d="M64 11.78a.51.51 0 00-.18-.38L52.71.14a.7.7 0 00-.35-.14H17.62a.5.5 0 00-.5.5V16a14.38 14.38 0 10-4.86 28.34v2.79a1.77 1.77 0 00-1.5 1.75V60.4a3.64 3.64 0 003.62 3.6 3.6 3.6 0 002.74-1.28v.78a.5.5 0 00.5.5h45.86a.5.5 0 00.5-.5zm-11.12-.5V1.72l9.41 9.56zM1 30.07a13.41 13.41 0 1111.82 13.3A13.41 13.41 0 011 30.07zm12.26 14.36a14.67 14.67 0 002.3 0v2.63h-2.3zM17 60.35a2.64 2.64 0 11-5.27 0V48.83a.78.78 0 01.78-.78h3.72a.77.77 0 01.78.78zm-.45-13.27V44.3l.56-.1v3.08a1.56 1.56 0 00-.55-.2zM63 63H18.12V44a14.32 14.32 0 0010-9.61H57.8a.5.5 0 000-1h-3.39v-7.16a.5.5 0 00-.5-.5.5.5 0 00-.5.5v7.14H50V19.84a.5.5 0 00-.5-.5.5.5 0 00-.5.5v13.53h-3.5v-5.11a.5.5 0 00-1 0v5.11h-3.45V20.46a.5.5 0 00-.5-.5.5.5 0 00-.5.5v12.91h-3.46V17.5a.5.5 0 00-.5-.5.5.5 0 00-.5.5v15.87h-3.45V20.46a.5.5 0 00-1 0v12.91h-2.72a14.14 14.14 0 00.39-3.3 14.39 14.39 0 00-10.69-13.91V1h33.73v10.78a.5.5 0 00.5.5H63V63z"/>
      <path d="M46.89 7.47H22.14a.5.5 0 00-.5.5v3.81a.5.5 0 00.5.5h24.75a.5.5 0 00.5-.5V8a.51.51 0 00-.5-.53zm-.5 3.81H22.64V8.47h23.75zM40 48.71a9.47 9.47 0 1018.94 0C58.92 36.18 40 36.19 40 48.71zm9.47 8.47A8.24 8.24 0 0145 55.91l4.46-6.33 4.46 6.33a8.27 8.27 0 01-4.47 1.27zm5.27-1.86l-4.86-6.9a.49.49 0 00-.41-.21.52.52 0 00-.41.21l-4.86 6.9a8.47 8.47 0 1110.54 0zM23.3 43.84h12.79a.5.5 0 00.5-.5.5.5 0 00-.5-.5H23.3a.5.5 0 00-.5.5.5.5 0 00.5.5zM37.89 48.21H23.3a.5.5 0 00-.5.5.5.5 0 00.5.5h14.59a.5.5 0 00.5-.5.51.51 0 00-.5-.5zM37.89 53.59H23.3a.5.5 0 00-.5.5.5.5 0 00.5.5h14.59a.51.51 0 00.5-.5.5.5 0 00-.5-.5zM26.14 30.07a11.73 11.73 0 10-23.45 0v1a11.78 11.78 0 002.63 6.43c7.09 8.5 20.82 3.43 20.82-7.43zm-20 6.82A10.7 10.7 0 013.73 31a7.39 7.39 0 010-.94 10.73 10.73 0 1121.45 0C25.14 40 12.57 44.62 6.13 36.89z"/>
      <path d="M14 22.84a.5.5 0 00-.5-.5 6.85 6.85 0 00-6.85 6.85.5.5 0 00.5.5.5.5 0 00.5-.5 5.85 5.85 0 015.85-5.85.5.5 0 00.5-.5z"/>
    </g>
  </g>
</svg>
