<svg
  class="o-svg o-svg__data"
  xmlns="http://www.w3.org/2000/svg"
  viewBox="0 0 61 64">
  <defs/>
  <defs>
    <linearGradient id="a" x1="29.113%" x2="72.18%" y1="0%" y2="100%">
      <stop offset="0%" stop-color="#FFC422"/>
      <stop offset="100%" stop-color="#DAA002"/>
    </linearGradient>
    <linearGradient id="b" x1="27.7%" x2="73.681%" y1="28.099%" y2="71.901%">
      <stop offset="0%" stop-color="#FFC422"/>
      <stop offset="100%" stop-color="#DAA002"/>
    </linearGradient>
    <linearGradient id="c" x1="27.7%" x2="73.681%" y1="49.248%" y2="50.752%">
      <stop offset="0%" stop-color="#FFC422"/>
      <stop offset="100%" stop-color="#DAA002"/>
    </linearGradient>
    <linearGradient id="d" x1="27.7%" x2="73.681%" y1="40.926%" y2="59.074%">
      <stop offset="0%" stop-color="#FFC422"/>
      <stop offset="100%" stop-color="#DAA002"/>
    </linearGradient>
    <linearGradient id="e" x1="28.462%" x2="72.872%" y1="0%" y2="100%">
      <stop offset="0%" stop-color="#FFC422"/>
      <stop offset="100%" stop-color="#DAA002"/>
    </linearGradient>
    <linearGradient id="f" x1="47.247%" x2="52.923%" y1="0%" y2="100%">
      <stop offset="0%" stop-color="#FFC422"/>
      <stop offset="100%" stop-color="#DAA002"/>
    </linearGradient>
    <linearGradient id="g" x1="45.239%" x2="55.056%" y1="0%" y2="100%">
      <stop offset="0%" stop-color="#FFC422"/>
      <stop offset="100%" stop-color="#DAA002"/>
    </linearGradient>
  </defs>
  <g fill="none" fill-rule="nonzero">
    <path fill="url(#a)" d="M57.664 3.17H32.406v-.746c0-1.069-.855-1.94-1.906-1.94s-1.906.871-1.906 1.94v.746H3.336C1.496 3.17 0 4.693 0 6.564v35.618c0 1.871 1.497 3.394 3.336 3.394h18.139l-9.871 14.916a1.955 1.955 0 00.525 2.69c.934.626 2.074.32 2.64-.53l11.296-17.076h2.529V58.86c0 1.069.855 1.94 1.906 1.94s1.906-.871 1.906-1.94V45.576h2.52L46.222 62.65c.582.876 1.752 1.147 2.645.528.868-.589 1.11-1.788.52-2.689l-9.871-14.914h18.148c1.84 0 3.336-1.523 3.336-3.394V6.564c0-1.87-1.497-3.394-3.336-3.394zm-28.117-.746c0-.535.428-.97.953-.97.525 0 .953.435.953.97v.746h-1.906v-.746zM13.978 62.11a.944.944 0 01-1.323.264.977.977 0 01-.26-1.342l10.229-15.456h2.292L13.978 62.11zm17.475-3.25c0 .526-.436.97-.953.97a.962.962 0 01-.953-.97V45.577h1.906V58.86zm17.141 2.17a.976.976 0 01-.258 1.344l-.005.003c-.427.301-1.035.16-1.318-.267L36.075 45.576h2.292L48.594 61.03zm11.453-18.848c0 1.337-1.07 2.424-2.383 2.424H3.336c-1.314 0-2.383-1.087-2.383-2.424V6.564c0-1.337 1.07-2.424 2.383-2.424h54.328c1.314 0 2.383 1.087 2.383 2.424v35.618z"/>
    <path fill="url(#b)" d="M57.66 6.08H3.332a.48.48 0 00-.476.485v35.618a.48.48 0 00.476.485H57.66a.48.48 0 00.477-.485V6.565a.48.48 0 00-.477-.485zm-.476 35.618H3.809V7.05h53.375v34.648z"/>
    <path fill="url(#c)" d="M46.425 13.3h6.956a.48.48 0 00.476-.486.48.48 0 00-.476-.485h-6.956a.48.48 0 00-.477.485.48.48 0 00.477.485zM46.425 16.074h6.956a.48.48 0 00.476-.485.48.48 0 00-.476-.485h-6.956a.48.48 0 00-.477.485.48.48 0 00.477.485zM46.425 18.848h6.956a.48.48 0 00.476-.484.48.48 0 00-.476-.485h-6.956a.48.48 0 00-.477.485.48.48 0 00.477.484zM46.425 21.623h6.956a.48.48 0 00.476-.485.48.48 0 00-.476-.485h-6.956a.48.48 0 00-.477.485.48.48 0 00.477.485z"/>
    <path fill="url(#d)" d="M24.12 39.618h29.299a.48.48 0 00.476-.485V28.632a.479.479 0 00-.575-.474l-3.209.69-2.629-2.02a.471.471 0 00-.478-.056l-3.757 1.674-2.734-1.072a.471.471 0 00-.451.06l-2.667 1.972-3.251-1.015a.457.457 0 00-.393.052l-3.507 2.234-6.191.898a.482.482 0 00-.41.48v7.078a.48.48 0 00.477.485zm28.822-.97H24.596v-2.235l5.558-.066a.472.472 0 00.292-.106l3.658-2.97 3.24 1.011a.464.464 0 00.419-.07l2.537-1.876 2.857 2.793c.159.154.4.179.585.06l3.24-2.086 2.918.619c.064.013.13.013.196 0l2.846-.613v5.54zm-22.464-7.025a.468.468 0 00.185-.07l3.41-2.17 3.27 1.02a.461.461 0 00.42-.07l2.65-1.959 2.674 1.05a.464.464 0 00.363-.01l3.68-1.64 2.58 1.982c.11.084.253.116.386.087l2.846-.613v2.887l-2.946.635-3.009-.638a.476.476 0 00-.352.064l-3.087 1.989-2.876-2.811a.466.466 0 00-.61-.043l-2.667 1.972-3.251-1.015a.461.461 0 00-.437.084l-3.728 3.026-5.383.063v-2.968l5.882-.852z"/>
    <path fill="url(#e)" d="M14.806 24.823c4.31 0 7.713-3.566 7.713-7.849 0-4.325-3.459-7.844-7.71-7.844-4.253 0-7.712 3.519-7.712 7.844 0 4.315 3.44 7.849 7.709 7.849zm4.264-2.532l-3.343-4.832h5.81c-.129 1.867-.96 3.59-2.467 4.832zm-4.262 1.56c-1.144.033-2.518-.372-3.497-.99l3.495-5.042 3.49 5.042c-1.073.673-2.395 1.015-3.488.99zm6.734-7.361h-6.257v-6.366c3.346.24 6.022 2.962 6.257 6.366zm-7.21-6.366v6.694l-3.793 5.47a6.907 6.907 0 01-2.49-5.314c0-3.504 2.668-6.59 6.283-6.85z"/>
    <path fill="url(#f)" d="M13.37 26.896H9.855a.48.48 0 00-.477.485v11.752a.48.48 0 00.477.485h3.517a.48.48 0 00.476-.485V27.381a.48.48 0 00-.476-.485zm-.476 11.753H10.33V27.865h2.564V38.65z"/>
    <path fill="url(#g)" d="M19.762 29.944h-3.517a.48.48 0 00-.476.485v8.704a.48.48 0 00.476.485h3.517a.48.48 0 00.477-.485V30.43a.48.48 0 00-.477-.485zm-.476 8.705h-2.564v-7.735h2.564v7.735z"/>
  </g>
</svg>
