<svg
  class="o-svg o-svg__light-bulb"
  xmlns="http://www.w3.org/2000/svg"
  xmlns:xlink="http://www.w3.org/1999/xlink"
  viewBox="0 0 55 64">
  <defs/>
  <defs>
    <linearGradient id="c" x1="37.5577277%" x2="63.2126055%" y1="0%" y2="100%">
      <stop offset="0%" stop-color="#FFC422"/>
      <stop offset="100%" stop-color="#DAA002"/>
    </linearGradient>
    <linearGradient id="d" x1="27.6997631%" x2="73.6809023%" y1="33.5521606%" y2="66.4478394%">
      <stop offset="0%" stop-color="#FFC422"/>
      <stop offset="100%" stop-color="#DAA002"/>
    </linearGradient>
    <linearGradient id="e" x1="27.6997631%" x2="73.6809023%" y1="43.9805259%" y2="56.0194741%">
      <stop offset="0%" stop-color="#FFC422"/>
      <stop offset="100%" stop-color="#DAA002"/>
    </linearGradient>
    <linearGradient id="f" x1="27.6997631%" x2="73.6809023%" y1="28.8886669%" y2="71.1113331%">
      <stop offset="0%" stop-color="#FFC422"/>
      <stop offset="100%" stop-color="#DAA002"/>
    </linearGradient>
    <linearGradient id="g" x1="37.7457856%" x2="63.0129046%" y1="0%" y2="100%">
      <stop offset="0%" stop-color="#FFC422"/>
      <stop offset="100%" stop-color="#DAA002"/>
    </linearGradient>
    <linearGradient id="h" x1="47.6079753%" x2="52.5401211%" y1="0%" y2="100%">
      <stop offset="0%" stop-color="#FFC422"/>
      <stop offset="100%" stop-color="#DAA002"/>
    </linearGradient>
    <linearGradient id="i" x1="41.0400361%" x2="59.5146985%" y1="0%" y2="100%">
      <stop offset="0%" stop-color="#FFC422"/>
      <stop offset="100%" stop-color="#DAA002"/>
    </linearGradient>
    <linearGradient id="j" x1="27.6997631%" x2="73.6809023%" y1="4.424067%" y2="95.575933%">
      <stop offset="0%" stop-color="#FFC422"/>
      <stop offset="100%" stop-color="#DAA002"/>
    </linearGradient>
    <linearGradient id="k" x1="30.4243474%" x2="70.7876319%" y1="0%" y2="100%">
      <stop offset="0%" stop-color="#FFC422"/>
      <stop offset="100%" stop-color="#DAA002"/>
    </linearGradient>
    <linearGradient id="l" x1="41.0369475%" x2="59.5179783%" y1="0%" y2="100%">
      <stop offset="0%" stop-color="#FFC422"/>
      <stop offset="100%" stop-color="#DAA002"/>
    </linearGradient>
    <linearGradient id="m" x1="27.6997631%" x2="73.6809023%" y1="4.43906455%" y2="95.5609355%">
      <stop offset="0%" stop-color="#FFC422"/>
      <stop offset="100%" stop-color="#DAA002"/>
    </linearGradient>
    <linearGradient id="n" x1="27.6997631%" x2="73.6809023%" y1="33.55873%" y2="66.44127%">
      <stop offset="0%" stop-color="#FFC422"/>
      <stop offset="100%" stop-color="#DAA002"/>
    </linearGradient>
    <linearGradient id="o" x1="27.6997631%" x2="73.6809023%" y1="43.9712648%" y2="56.0287352%">
      <stop offset="0%" stop-color="#FFC422"/>
      <stop offset="100%" stop-color="#DAA002"/>
    </linearGradient>
    <linearGradient id="p" x1="27.6997631%" x2="73.6809023%" y1="28.8862448%" y2="71.1137552%">
      <stop offset="0%" stop-color="#FFC422"/>
      <stop offset="100%" stop-color="#DAA002"/>
    </linearGradient>
    <linearGradient id="q" x1="30.440435%" x2="70.7705483%" y1="0%" y2="100%">
      <stop offset="0%" stop-color="#FFC422"/>
      <stop offset="100%" stop-color="#DAA002"/>
    </linearGradient>
    <filter id="a" width="104.6%" height="102%" x="-2.3%" y="-1%" filterUnits="objectBoundingBox">
      <feOffset in="SourceAlpha" result="shadowOffsetOuter1"/>
      <feGaussianBlur in="shadowOffsetOuter1" result="shadowBlurOuter1" stdDeviation="2.5"/>
      <feColorMatrix in="shadowBlurOuter1" values="0 0 0 0 0 0 0 0 0 0 0 0 0 0 0 0 0 0 0.15 0"/>
    </filter>
    <rect id="b" width="326" height="753" x="0" y="0" rx="5"/>
  </defs>
  <g fill="none" fill-rule="evenodd">
    <g transform="translate(-136 -40)">
      <use fill="#000" filter="url(#a)" xlink:href="#b"/>
      <use fill="#FFF" xlink:href="#b"/>
    </g>
    <g fill-rule="nonzero">
      <path fill="url(#c)" d="M10.3656769 40.07763c3.8598898 4.67751 5.2838601 8.29654 6.1947212 10.02625-.5915555.54158-.8688879 1.24578-.8688879 1.9425 0 1.1347.7305731 2.09869 1.7513833 2.48065-.4812805.49194-.7602222 1.15839-.7602222 1.84161 0 1.46729 1.2159583 2.66113 2.7104102 2.66113h1.6508046c.2910111 3.03604 3.154525 4.97021 5.2301639 4.97021h3.095838c2.2369518 0 4.5389463-2.13363 4.6583676-4.97021h1.5228685c1.4949509 0 2.7104102-1.19385 2.7104102-2.66113 0-.71521-.2921824-1.36249-.7613426-1.84119 1.0211259-.38165 1.7520046-1.34589 1.7520046-2.48108 0-.73596-.3062278-1.40259-.7995676-1.8847.0218167-.03009.0555806-.04907.0704917-.08405 1.4440759-3.41259 3.0679407-6.39519 5.792824-9.65137 3.9766019-4.76074 5.685401-10.18896 5.0786695-16.13232C48.2796213 13.18017 39.0900787 5.09667 27.5442241 5.07181283 21.479863 5.03564 15.9541046 7.24951 11.8780343 11.24218c-4.0551806 3.97217-6.38116115 9.5293-6.38116115 15.24707 0 4.99951 1.68343796 9.69775 4.86880375 13.58838zm19.0042212 22.92236h-3.0958379c-1.5401019 0-3.9256046-1.4612-4.2192945-3.97021h10.9639954c-.1141555 2.23845-1.9540787 3.97021-3.648863 3.97021zm6.181226-4.97021H19.3930815c-.9329834 0-1.6918917-.74512-1.6918917-1.66113 0-.90794.7480713-1.66113 1.6918917-1.66113h16.1580426c.9329833 0 1.6918916.74512 1.6918916 1.66113s-.7589083 1.66113-1.6918916 1.66113zm.9916703-4.32227H18.4019306c-.9329834 0-1.6918917-.74512-1.6918917-1.66113 0-.89673.7356454-1.66064 1.6918917-1.66064h18.1408638c.9319852 0 1.6909037.74512 1.6909037 1.66064 0 .91601-.7589185 1.66113-1.6909037 1.66113zM23.9535491 28.20117h-2.8879584c-1.5993898 0-2.9008833-1.27197-2.9008833-2.83545v-.38184c0-1.5708 1.3014935-2.84863 2.9008833-2.84863 1.5547991 0 2.8879584 1.24322 2.8879584 2.84863v3.21729zm1.0185185 1.01269h5.049825v20.17187h-5.049825V29.21386zM12.5976583 11.9497c3.8711648-3.7915 9.1567158-5.87744 14.8893658-5.87744h.0552037c11.0117333.02295 19.7755759 7.72754 20.8388481 18.32031.5788852 5.67041-1.0543296 10.85156-4.8528842 15.39941-2.8024945 3.35188-4.4283556 6.36969-5.8147019 9.59376h-6.6730787V29.20117h2.9013824c2.153413 0 3.9059778-1.7207 3.9059778-3.83545v-.38184c0-2.13614-1.7644815-3.84863-3.9059778-3.84863-2.1613778 0-3.9199009 1.72656-3.9199009 3.84863v3.22998h-5.049825v-3.22998c0-2.15457-1.7863185-3.84863-3.9064769-3.84863-2.1613676 0-3.9194018 1.72656-3.9194018 3.84863v.38184c0 2.11475 1.7580342 3.83545 3.9194018 3.83545h2.8879584v20.18457H17.3446167c-1.5914352-3.54736-3.6717389-6.88916-6.1862065-9.93652-3.03765001-3.70947-4.64300835-8.19092-4.64300835-12.95996 0-5.45411 2.21706019-10.75343 6.08225645-14.53956zm18.4427426 16.25147v-3.21729c0-1.5708 1.3019926-2.84863 2.9013824-2.84863 1.5671232 0 2.8874593 1.25445 2.8874593 2.84863v.38184c0 1.56348-1.2950259 2.83545-2.8874593 2.83545h-2.9013824z"/>
      <path fill="url(#d)" d="M4.66684167 17.79247l-2.01266389-.73877c-.26606759-.09619-.55650834.03467-.65546759.29297-.09847038.25879.03531203.54688.29839537.64355l2.0126537.73878c.26788055.09725.55796481-.03746.65546759-.29297.09848056-.25879-.03530185-.54688-.29838518-.64356z"/>
      <path fill="url(#e)" d="M.30581019 27.93798c.01293518.26758.2382213.47656.5082611.47656.00795464 0 .01591945 0 .02437315-.00049l2.1464463-.09814c.28098889-.0127.4978213-.24707.48488611-.52295-.01293518-.27539-.22876944-.48877-.53263426-.47607l-2.1464463.09814c-.2809787.0127-.4978111.24707-.4848861.52295z"/>
      <path fill="url(#f)" d="M5.16366481 36.7412l-1.93409537.91943c-.25314259.12061-.35906851.41943-.23672407.66797.12338333.25049.42905093.35147.68033982.23242l1.93409537-.91943c.25314259-.12061.35906851-.41943.23672407-.66797-.12234444-.24755-.42421296-.35107-.68033982-.23242z"/>
      <path fill="url(#g)" d="M42.6578778 18.79882c.1314092.25165.4417009.3406.6853102.21777.2506472-.12598.3501157-.42725.2218027-.67285-.7270898-1.39551-1.6113268-2.7168-2.6278592-3.92773-.1800334-.21484-.5003065-.24316-.7171389-.06787-.2168324.17529-.247663.49072-.0686278.70361.9697824 1.15528 1.8132482 2.41602 2.506513 3.74707z"/>
      <path fill="url(#h)" d="M28.0097176 2.60986V.49999c0-.27637-.2277713-.5-.5092593-.5-.2814879 0-.5092592.22363-.5092592.5v2.10986c0 .27637.2277713.5.5092592.5.281488 0 .5092593-.22363.5092593-.49999z"/>
      <path fill="url(#i)" d="M18.0164926 5.01171c.258612-.1084.3784611-.40234.2675648-.65625l-.8454518-1.93994c-.1109065-.25391-.411288-.37354-.6684028-.2627-.2586121.1084-.3784611.40234-.267575.65625l.845462 1.93994c.1118232.25661.4140074.37056.6684028.2627z"/>
      <path fill="url(#j)" d="M10.0896583 10.41064c.1939565-.19971.186501-.51611-.0169074-.70703L8.51861389 8.24707c-.20191111-.18994-.52566759-.18262-.72012315.0166-.19395648.19971-.18650093.51611.01690741.70703l1.55413704 1.45654c.20306203.19031.52613611.18333.72012311-.0166z"/>
      <path fill="url(#k)" d="M10.9868306 44.54638l-1.40991486 1.59229c-.18450463.2085-.16212778.52441.05023333.70557.21320649.18128.53405003.1587.71863613-.04932L11.7557 45.20263c.1845046-.2085.1621278-.52441-.0502333-.70557-.2123611-.18017-.5326343-.15967-.7186361.04932z"/>
      <path fill="url(#l)" d="M37.6528167 4.74902l.8454518-1.93994c.1104074-.25391-.0099509-.54785-.2685528-.65625-.2556277-.11035-.5579953.00928-.6684027.2627l-.8454519 1.93993c-.1104074.25391.0099509.54785.2685528.65625.2494454.10738.5554389-.00346.6684028-.26269z"/>
      <path fill="url(#m)" d="M45.6298843 10.42724l1.5546361-1.45654c.2039074-.19092.211862-.50732.0169074-.70703-.1929584-.19922-.5162259-.20703-.719125-.0166l-1.5546361 1.45654c-.2039074.19092-.2118621.50732-.0169074.70703.1915935.1984679.5145555.20832.719125.0166z"/>
      <path fill="url(#n)" d="M52.3467389 17.05371l-2.012175.73877c-.2635824.09668-.3978639.38477-.2993935.64355.0978898.2565.3904898.38998.6554676.29297l2.012175-.73877c.2635824-.09668.3978639-.38477.2993935-.64355-.0984704-.25878-.3938815-.38868-.6554676-.29297z"/>
      <path fill="url(#o)" d="M51.5311296 27.79296c-.0139231.27588.2039074.51025.4843973.52295l2.1464462.09814c.0079547.00049.0159195.00049.0238741.00049.2705491 0 .4963241-.20898.5082611-.47656.0139232-.27588-.2039074-.51025-.4843972-.52295l-2.1464463-.09814c-.2785037-.01856-.5192102.20068-.5321352.47607z"/>
      <path fill="url(#p)" d="M49.1559139 36.97363c-.1223445.24854-.0169074.54736.2367241.66797l1.9345842.91943c.2536417.11933.5564574.01699.6803398-.23242.1223445-.24854.0169074-.54736-.236724-.66797l-1.9345843-.91943c-.2536417-.11964-.5570074-.01612-.6803398.23242z"/>
      <path fill="url(#q)" d="M43.29545 44.49706c-.211862.18115-.234738.49707-.0497343.70557l1.4094158 1.59229c.1844333.20887.5058472.22981.718137.04932.2118621-.18115.234738-.49707.0497343-.70557l-1.4094158-1.59229c-.1840157-.2085-.505287-.22998-.718137-.04932z"/>
    </g>
  </g>
</svg>
