<svg xmlns="http://www.w3.org/2000/svg" xmlns:xlink="http://www.w3.org/1999/xlink" viewBox="0 0 43 41">
  <defs/>
  <defs>
    <linearGradient id="d" x1="50%" x2="50%" y1="0%" y2="100%">
      <stop offset="0%" stop-color="#062FF9"/>
      <stop offset="100%" stop-color="#0225D0"/>
    </linearGradient>
    <linearGradient id="e" x1="50%" x2="50%" y1="0%" y2="100%">
      <stop offset="0%" stop-color="#062FF9"/>
      <stop offset="100%" stop-color="#0225D0"/>
    </linearGradient>
    <linearGradient id="f" x1="50%" x2="50%" y1="0%" y2="100%">
      <stop offset="0%" stop-color="#062FF9"/>
      <stop offset="100%" stop-color="#0225D0"/>
    </linearGradient>
    <linearGradient id="g" x1="50%" x2="50%" y1="0%" y2="100%">
      <stop offset="0%" stop-color="#062FF9"/>
      <stop offset="100%" stop-color="#0225D0"/>
    </linearGradient>
    <linearGradient id="h" x1="50%" x2="50%" y1="0%" y2="100%">
      <stop offset="0%" stop-color="#062FF9"/>
      <stop offset="100%" stop-color="#0225D0"/>
    </linearGradient>
    <linearGradient id="i" x1="50%" x2="50%" y1="0%" y2="100%">
      <stop offset="0%" stop-color="#062FF9"/>
      <stop offset="100%" stop-color="#0225D0"/>
    </linearGradient>
    <linearGradient id="j" x1="50%" x2="50%" y1="0%" y2="100%">
      <stop offset="0%" stop-color="#062FF9"/>
      <stop offset="100%" stop-color="#0225D0"/>
    </linearGradient>
    <linearGradient id="k" x1="50%" x2="50%" y1="0%" y2="100%">
      <stop offset="0%" stop-color="#062FF9"/>
      <stop offset="100%" stop-color="#0225D0"/>
    </linearGradient>
    <filter id="a" width="104.6%" height="102.1%" x="-2.3%" y="-1%" filterUnits="objectBoundingBox">
      <feOffset in="SourceAlpha" result="shadowOffsetOuter1"/>
      <feGaussianBlur in="shadowOffsetOuter1" result="shadowBlurOuter1" stdDeviation="2.5"/>
      <feColorMatrix in="shadowBlurOuter1" values="0 0 0 0 0 0 0 0 0 0 0 0 0 0 0 0 0 0 0.15 0"/>
    </filter>
    <filter id="c">
      <feColorMatrix in="SourceGraphic" values="0 0 0 0 0.968627 0 0 0 0 0.709804 0 0 0 0 0.000000 0 0 0 1.000000 0"/>
    </filter>
    <rect id="b" width="327" height="720" x="0" y="0" rx="5"/>
  </defs>
  <g fill="none" fill-rule="evenodd">
    <g transform="translate(-15 -270)">
      <use fill="#000" filter="url(#a)" xlink:href="#b"/>
      <use fill="#FFF" xlink:href="#b"/>
    </g>
    <g filter="url(#c)" transform="translate(-39 -4116)">
      <g fill-rule="nonzero">
        <path fill="url(#d)" d="M9.72038478 38.2451852c-.32259641 0-.58064773.2484972-.58064773.5591033 0 .310606.25805132.5591033.58064773.5591033.32259642 0 .58068642-.2484973.58068642-.5591033 0-.3106061-.25809-.5591033-.58068642-.5591033z" transform="translate(39.596525 4116)"/>
        <path fill="url(#e)" d="M5.98473123 38.2451852c-.32259642 0-.58068645.2484972-.58068645.5591033 0 .310606.25809003.5591033.58068645.5591033.32259641 0 .58068644-.2484973.58068644-.5591033 0-.3106061-.25809003-.5591033-.58068644-.5591033z" transform="translate(39.596525 4116)"/>
        <path fill="url(#f)" d="M7.84934495 38.2451852c-.31613804 0-.58068645.2484972-.58068645.5591033 0 .310606.26454841.5591033.58068645.5591033.32259641 0 .58710611-.2484973.58710611-.5591033 0-.3106061-.2645097-.5591033-.58710611-.5591033z" transform="translate(39.596525 4116)"/>
        <path fill="url(#g)" d="M37.3824336 24.2336402c2.3808841-1.0722619 3.9099072-3.3656341 3.9099072-5.9051555 0-3.2832055-2.4950832-6.0216327-5.8445372-6.4675202-.6111718-3.73880238-3.9820527-6.52818768-7.9433109-6.52818768-.8556353 0-1.7018251.1304297-2.5193425.38825757-1.5348556-3.29472894-4.9120336-5.4077012-8.6874181-5.4077012-5.1546133 0-9.36506422 3.96629651-9.51249723 8.94872833C2.89738033 9.86204061 0 13.1118808 0 16.9307574c0 2.7212881 1.49472467 5.2456456 3.90328756 6.6457273v11.9724411c0 .5355221.22272701 1.0201607.5800219 1.3795257h-1.2727848c-.88934669 0-1.61298206.6964347-1.61298206 1.5530303v.6521485c0 .8565956.72363537 1.5530303 1.61298206 1.5530303H38.0767708c.8893467 0 1.612982-.6964347 1.612982-1.5530303v-.6521485c0-.8565956-.7236353-1.5530303-1.612982-1.5530303H36.802573c.357211-.359365.5798606-.8440036.5798606-1.3795257V24.2336402zM.64519283 16.9307574c0-3.596843 2.79373655-6.6452738 6.49855634-7.0905524.1612982-.01941288.282588-.20747242.282588-.36399303 0-4.71004894 3.97984613-8.54166667 8.87140133-8.54166667 3.6150348 0 6.8381601 2.07778682 8.2114014 5.29304409.0661581.15469425.2482508.23234576.4098587.17289576.8348473-.29604485 1.7049737-.44649621 2.5854941-.44649621 3.7212013 0 6.8762781 2.67654833 7.3384361 6.22607366.018588.1437795.1379874.2553989.287627.2699601 3.1450053.306357 5.5165922 2.8336715 5.5165922 5.878462 0 2.2003271-1.2661264 4.1986423-3.2647144 5.2166039v-6.2600477c0-1.1028938-.9318778-2.0001353-2.0773467-2.0001353H5.98094395c-1.14546889 0-2.07765639.8972415-2.07765639 2.0001353v5.5660358C1.88013061 21.5303921.64519283 19.3094408.64519283 16.9307574zm3.90328755.3542835c0-.7601338.64267012-1.3789232 1.43246357-1.3789232H35.3050869c.7897935 0 1.4321539.6187832 1.4321539 1.3789232v18.2638786c0 .7601338-.6423604 1.3789232-1.4321539 1.3789232H5.98094395c-.78979345 0-1.43246357-.6187832-1.43246357-1.3789232V17.2850409zM16.9964824 37.5496574h7.294021v.6333444c0 .1710756-.1446006.3106061-.3225964.3106061h-6.6488282c-.1779958 0-.3225964-.1395305-.3225964-.3106061v-.6333444zm22.0480776.9318182v.6521485c0 .5138356-.434118.9318182-.9677892.9318182H3.21052466c-.53367124 0-.96778923-.4179826-.96778923-.9318182v-.6521485c0-.5138356.43411799-.9318182.96778923-.9318182H16.3512895v.6333444c0 .5138356.434118.9318182.9677893.9318182h6.6488282c.5336712 0 .9677892-.4179826.9677892-.9318182v-.6333444h13.141081c.5336648 0 .9677828.4179826.9677828.9318182z" transform="translate(39.596525 4116)"/>
        <path fill="url(#h)" d="M7.15004625 35.8619545H34.1372556c.8231887 0 1.4929504-.644874 1.4929504-1.4377643V18.412808c0-.7922877-.6697682-1.4371618-1.4929504-1.4371618H7.15004625c-.82318862 0-1.49295039.6448741-1.49295039 1.4371618v16.0113759c0 .7928966.66976177 1.4377706 1.49295039 1.4377706zM6.30228868 18.412808c0-.4501365.38025085-.8159497.84775757-.8159497H34.1372556c.4675132 0 .8477576.3658132.8477576.8159497v16.0113759c0 .4501366-.3802508.8165523-.8477576.8165523H7.15004625c-.46751317 0-.84775757-.3664157-.84775757-.8165523V18.412808z" transform="translate(39.596525 4116)"/>
        <path fill="url(#i)" d="M32.6742293 19.0049039c.4675132 0 .8477576.3664158.8477576.8165523 0 .1716844.1442844.3106061.3225964.3106061.1783119 0 .3225964-.1389217.3225964-.3106061 0-.7928965-.6697682-1.4377644-1.4929504-1.4377644-.178312 0-.3225964.1389217-.3225964.3106061s.1442844.310606.3225964.310606z" transform="translate(39.596525 4116)"/>
        <path fill="url(#j)" d="M31.5019784 23.5766338c.1260127.1213289.3301517.1213351.4561707 0 .1260126-.121329.1260126-.3178867 0-.4392156l-3.6723666-3.5355729c-.1260126-.1213289-.330158-.1213289-.4561706 0-.1260127.1213289-.1260127.3178867 0 .4392156l3.6723665 3.5355729z" transform="translate(39.596525 4116)"/>
        <path fill="url(#k)" d="M28.9498795 24.655263c.1260126.121329.3301516.1213352.4561707 0 .1260126-.1213289.1260126-.3178866 0-.4392156l-2.2405353-2.1566497c-.1260126-.1213289-.3301581-.1213289-.4561707 0-.1260126.121329-.1260126.3178867 0 .4392156l2.2405353 2.1566497z" transform="translate(39.596525 4116)"/>
      </g>
    </g>
  </g>
</svg>
