<svg
  fill="#F7B500"
  xmlns="http://www.w3.org/2000/svg"
  viewBox="0 0 65 64.84">
  <defs/>
  <g data-name="Capa 2">
    <g data-name="Capa 1">
      <path d="M32.5 0H32C14.5.39.24 19 .1 19.16a.53.53 0 000 .61c.14.18 13.3 17.33 29.82 19v3.53A2.1 2.1 0 0028 44.39v16a4.45 4.45 0 108.9 0v-16a2.1 2.1 0 00-1.86-2.08v-3.53C51.61 37.1 64.76 20 64.9 19.77a.53.53 0 000-.61C64.75 19 50.21 0 32.5 0zM14.11 19.38A18.32 18.32 0 0132 1h.44C48.53.9 56.72 20 46.23 31.65c-11.32 12.52-32.12 4.54-32.12-12.27zm-13 .08c1.5-1.84 9.64-11.59 20.52-16.13a19.37 19.37 0 00.73 32.56C11.12 31.5 2.64 21.35 1.14 19.46zm34.8 24.93v16a3.45 3.45 0 01-6.9 0v-16a1.11 1.11 0 011.11-1.11h4.68a1.11 1.11 0 011.14 1.11zm-1.86-2.11h-3.13v-3.4a23.8 23.8 0 003.16 0zm8.51-6.37a19.35 19.35 0 00.82-32.56c10.85 4.55 19 14.28 20.45 16.11-1.47 1.89-9.98 12.07-21.24 16.45z"/>
      <path d="M32.51 4.12a15.28 15.28 0 00-15.28 15.26 13.29 13.29 0 00.06 1.36 15.26 15.26 0 0013.85 13.85c.41 0 .86.07 1.35.07a15.27 15.27 0 100-30.54zm0 29.54c-.45 0-.87 0-1.28-.07a14.25 14.25 0 01-12.93-13c0-.44-.05-.88-.05-1.26A14.27 14.27 0 0132.49 5.12a14.27 14.27 0 110 28.54z"/>
      <path d="M32.51 10.87a8.47 8.47 0 00-2 .22.47.47 0 00-.33.27.47.47 0 000 .43 3 3 0 01-2.72 4.33 3.14 3.14 0 01-1.92-.68.44.44 0 00-.41-.1.46.46 0 00-.34.26 8.39 8.39 0 00-.93 3.86 8.61 8.61 0 108.61-8.59zm0 16.2a7.61 7.61 0 01-7.61-7.61 7.46 7.46 0 01.58-2.89 4.08 4.08 0 002 .55A4 4 0 0031.35 12a7.45 7.45 0 011.16-.08 7.6 7.6 0 110 15.2z"/>
    </g>
  </g>
</svg>
