<svg 
  class="p-svg__light-bulb"
  xmlns="http://www.w3.org/2000/svg" 
  viewBox="0 0 41 48">
  <defs/>
  <defs>
    <linearGradient id="a" x1="50%" x2="50%" y1="0%" y2="100%">
      <stop offset="0%" stop-color="#EC686B" stop-opacity=".99"/>
      <stop offset="100%" stop-color="#EB4D51"/>
    </linearGradient>
    <linearGradient id="b" x1="50%" x2="50%" y1="0%" y2="100%">
      <stop offset="0%" stop-color="#EC686B" stop-opacity=".99"/>
      <stop offset="100%" stop-color="#EB4D51"/>
    </linearGradient>
    <linearGradient id="c" x1="50%" x2="50%" y1="0%" y2="100%">
      <stop offset="0%" stop-color="#EC686B" stop-opacity=".99"/>
      <stop offset="100%" stop-color="#EB4D51"/>
    </linearGradient>
    <linearGradient id="d" x1="50%" x2="50%" y1="0%" y2="100%">
      <stop offset="0%" stop-color="#EC686B" stop-opacity=".99"/>
      <stop offset="100%" stop-color="#EB4D51"/>
    </linearGradient>
    <linearGradient id="e" x1="50%" x2="50%" y1="0%" y2="100%">
      <stop offset="0%" stop-color="#EC686B" stop-opacity=".99"/>
      <stop offset="100%" stop-color="#EB4D51"/>
    </linearGradient>
    <linearGradient id="f" x1="50%" x2="50%" y1="0%" y2="100%">
      <stop offset="0%" stop-color="#EC686B" stop-opacity=".99"/>
      <stop offset="100%" stop-color="#EB4D51"/>
    </linearGradient>
    <linearGradient id="g" x1="50%" x2="50%" y1="0%" y2="100%">
      <stop offset="0%" stop-color="#EC686B" stop-opacity=".99"/>
      <stop offset="100%" stop-color="#EB4D51"/>
    </linearGradient>
    <linearGradient id="h" x1="50%" x2="50%" y1="0%" y2="100%">
      <stop offset="0%" stop-color="#EC686B" stop-opacity=".99"/>
      <stop offset="100%" stop-color="#EB4D51"/>
    </linearGradient>
    <linearGradient id="i" x1="50%" x2="50%" y1="0%" y2="100%">
      <stop offset="0%" stop-color="#EC686B" stop-opacity=".99"/>
      <stop offset="100%" stop-color="#EB4D51"/>
    </linearGradient>
    <linearGradient id="j" x1="50%" x2="50%" y1="0%" y2="100%">
      <stop offset="0%" stop-color="#EC686B" stop-opacity=".99"/>
      <stop offset="100%" stop-color="#EB4D51"/>
    </linearGradient>
    <linearGradient id="k" x1="50%" x2="50%" y1="0%" y2="100%">
      <stop offset="0%" stop-color="#EC686B" stop-opacity=".99"/>
      <stop offset="100%" stop-color="#EB4D51"/>
    </linearGradient>
    <linearGradient id="l" x1="50%" x2="50%" y1="0%" y2="100%">
      <stop offset="0%" stop-color="#EC686B" stop-opacity=".99"/>
      <stop offset="100%" stop-color="#EB4D51"/>
    </linearGradient>
    <linearGradient id="m" x1="50%" x2="50%" y1="0%" y2="100%">
      <stop offset="0%" stop-color="#EC686B" stop-opacity=".99"/>
      <stop offset="100%" stop-color="#EB4D51"/>
    </linearGradient>
    <linearGradient id="n" x1="50%" x2="50%" y1="0%" y2="100%">
      <stop offset="0%" stop-color="#EC686B" stop-opacity=".99"/>
      <stop offset="100%" stop-color="#EB4D51"/>
    </linearGradient>
    <linearGradient id="o" x1="50%" x2="50%" y1="0%" y2="100%">
      <stop offset="0%" stop-color="#EC686B" stop-opacity=".99"/>
      <stop offset="100%" stop-color="#EB4D51"/>
    </linearGradient>
  </defs>
  <g fill="none" fill-rule="nonzero">
    <path fill="url(#a)" d="M7.727 30.058c2.878 3.508 3.939 6.223 4.618 7.52a1.964 1.964 0 00-.648 1.457c0 .85.545 1.574 1.306 1.86a1.995 1.995 0 00-.567 1.381c0 1.1.907 1.996 2.02 1.996h1.231C15.904 46.55 18.04 48 19.587 48h2.307c1.667 0 3.383-1.6 3.473-3.728h1.135c1.114 0 2.02-.895 2.02-1.996 0-.536-.218-1.021-.567-1.38a1.995 1.995 0 001.306-1.861c0-.552-.229-1.052-.596-1.414.016-.022.041-.037.052-.063 1.077-2.56 2.287-4.796 4.319-7.238 2.964-3.57 4.238-7.642 3.785-12.1-.83-8.335-7.681-14.397-16.288-14.416-4.52-.027-8.64 1.633-11.678 4.628-3.023 2.979-4.757 7.147-4.757 11.435 0 3.75 1.255 7.273 3.63 10.191zM21.894 47.25h-2.308c-1.148 0-2.926-1.096-3.145-2.978h8.173c-.085 1.68-1.457 2.978-2.72 2.978zm4.608-3.728H14.457a1.255 1.255 0 01-1.262-1.246c0-.68.558-1.245 1.262-1.245h12.045c.695 0 1.261.558 1.261 1.245s-.566 1.246-1.261 1.246zm.739-3.241H13.718a1.255 1.255 0 01-1.261-1.246c0-.673.548-1.246 1.26-1.246h13.524c.695 0 1.26.56 1.26 1.246 0 .687-.565 1.246-1.26 1.246zm-9.385-19.13h-2.153c-1.192 0-2.162-.954-2.162-2.127v-.286c0-1.178.97-2.137 2.162-2.137 1.16 0 2.153.933 2.153 2.137v2.413zm.76.76h3.764v15.128h-3.764V21.91zM9.39 8.961c2.886-2.843 6.826-4.408 11.1-4.408h.04c8.21.017 14.742 5.796 15.535 13.74.431 4.253-.786 8.14-3.618 11.55-2.089 2.514-3.3 4.777-4.334 7.195H23.139V21.901h2.163c1.605 0 2.912-1.29 2.912-2.877v-.286c0-1.602-1.316-2.887-2.912-2.887-1.611 0-2.922 1.295-2.922 2.887v2.422h-3.764v-2.422c0-1.616-1.332-2.887-2.913-2.887-1.61 0-2.921 1.295-2.921 2.887v.286c0 1.586 1.31 2.877 2.921 2.877h2.153v15.138H12.93a32.866 32.866 0 00-4.612-7.452 15.237 15.237 0 01-3.461-9.72c0-4.09 1.653-8.065 4.534-10.905zm13.748 12.189v-2.413c0-1.178.97-2.137 2.163-2.137 1.168 0 2.153.941 2.153 2.137v.286c0 1.173-.966 2.127-2.153 2.127H23.14z"/>
    <path fill="url(#b)" d="M3.479 13.344l-1.5-.554a.38.38 0 00-.49.22.374.374 0 00.223.483l1.5.554c.2.073.417-.028.49-.22a.374.374 0 00-.223-.483z"/>
    <path fill="url(#c)" d="M.228 20.953c.01.201.178.358.379.358h.018l1.6-.074a.377.377 0 00.362-.392.368.368 0 00-.397-.357l-1.6.073a.377.377 0 00-.362.392z"/>
    <path fill="url(#d)" d="M3.85 27.556l-1.443.69a.373.373 0 00-.176.5c.092.188.32.264.507.175l1.442-.69a.373.373 0 00.176-.5.383.383 0 00-.507-.175z"/>
    <path fill="url(#e)" d="M31.8 14.1c.097.188.329.255.51.162a.373.373 0 00.166-.504 16.323 16.323 0 00-1.96-2.946.382.382 0 00-.534-.05.372.372 0 00-.051.527 15.564 15.564 0 011.869 2.81z"/>
    <path fill="url(#f)" d="M20.88 1.957V.375A.377.377 0 0020.5 0c-.21 0-.38.168-.38.375v1.582c0 .208.17.375.38.375s.38-.167.38-.375z"/>
    <path fill="url(#g)" d="M13.43 3.759a.373.373 0 00.2-.492L13 1.812a.38.38 0 00-.499-.197.373.373 0 00-.199.492l.63 1.455a.381.381 0 00.498.197z"/>
    <path fill="url(#h)" d="M7.521 7.808a.372.372 0 00-.012-.53L6.35 6.185a.384.384 0 00-.537.013.372.372 0 00.013.53L6.985 7.82a.383.383 0 00.536-.012z"/>
    <path fill="url(#i)" d="M8.19 33.41l-1.05 1.194a.372.372 0 00.037.53.383.383 0 00.535-.038l1.051-1.194a.372.372 0 00-.037-.53.383.383 0 00-.536.038z"/>
    <path fill="url(#j)" d="M28.068 3.562l.63-1.455a.373.373 0 00-.2-.492.381.381 0 00-.498.197l-.63 1.455c-.082.19.007.41.2.492a.381.381 0 00.498-.197z"/>
    <path fill="url(#k)" d="M34.015 7.82l1.159-1.092a.371.371 0 00.013-.53.383.383 0 00-.537-.013l-1.158 1.093a.371.371 0 00-.013.53.382.382 0 00.536.012z"/>
    <path fill="url(#l)" d="M39.022 12.79l-1.5.554a.374.374 0 00-.223.483.382.382 0 00.489.22l1.5-.554a.374.374 0 00.223-.483.382.382 0 00-.489-.22z"/>
    <path fill="url(#m)" d="M38.414 20.845a.376.376 0 00.361.392l1.6.074h.018c.202 0 .37-.157.379-.358a.376.376 0 00-.361-.392l-1.6-.073a.376.376 0 00-.397.357z"/>
    <path fill="url(#n)" d="M36.643 27.73a.373.373 0 00.177.501l1.442.69c.19.09.415.013.507-.175a.373.373 0 00-.176-.5l-1.442-.69a.382.382 0 00-.508.174z"/>
    <path fill="url(#o)" d="M32.275 33.373a.372.372 0 00-.037.529l1.05 1.194a.383.383 0 00.536.037.372.372 0 00.037-.529l-1.05-1.194a.383.383 0 00-.536-.037z"/>
  </g>
</svg>
