<svg 
  xmlns="http://www.w3.org/2000/svg" 
  viewBox="0 0 55 64">
  <defs/>
  <defs>
    <linearGradient id="a" x1="37.558%" x2="63.213%" y1="0%" y2="100%">
      <stop offset="0%" stop-color="#FFC422"/>
      <stop offset="100%" stop-color="#DAA002"/>
    </linearGradient>
    <linearGradient id="b" x1="27.7%" x2="73.681%" y1="33.552%" y2="66.448%">
      <stop offset="0%" stop-color="#FFC422"/>
      <stop offset="100%" stop-color="#DAA002"/>
    </linearGradient>
    <linearGradient id="c" x1="27.7%" x2="73.681%" y1="43.981%" y2="56.019%">
      <stop offset="0%" stop-color="#FFC422"/>
      <stop offset="100%" stop-color="#DAA002"/>
    </linearGradient>
    <linearGradient id="d" x1="27.7%" x2="73.681%" y1="28.889%" y2="71.111%">
      <stop offset="0%" stop-color="#FFC422"/>
      <stop offset="100%" stop-color="#DAA002"/>
    </linearGradient>
    <linearGradient id="e" x1="37.746%" x2="63.013%" y1="0%" y2="100%">
      <stop offset="0%" stop-color="#FFC422"/>
      <stop offset="100%" stop-color="#DAA002"/>
    </linearGradient>
    <linearGradient id="f" x1="47.608%" x2="52.54%" y1="0%" y2="100%">
      <stop offset="0%" stop-color="#FFC422"/>
      <stop offset="100%" stop-color="#DAA002"/>
    </linearGradient>
    <linearGradient id="g" x1="41.04%" x2="59.515%" y1="0%" y2="100%">
      <stop offset="0%" stop-color="#FFC422"/>
      <stop offset="100%" stop-color="#DAA002"/>
    </linearGradient>
    <linearGradient id="h" x1="27.7%" x2="73.681%" y1="4.424%" y2="95.576%">
      <stop offset="0%" stop-color="#FFC422"/>
      <stop offset="100%" stop-color="#DAA002"/>
    </linearGradient>
    <linearGradient id="i" x1="30.424%" x2="70.788%" y1="0%" y2="100%">
      <stop offset="0%" stop-color="#FFC422"/>
      <stop offset="100%" stop-color="#DAA002"/>
    </linearGradient>
    <linearGradient id="j" x1="41.037%" x2="59.518%" y1="0%" y2="100%">
      <stop offset="0%" stop-color="#FFC422"/>
      <stop offset="100%" stop-color="#DAA002"/>
    </linearGradient>
    <linearGradient id="k" x1="27.7%" x2="73.681%" y1="4.439%" y2="95.561%">
      <stop offset="0%" stop-color="#FFC422"/>
      <stop offset="100%" stop-color="#DAA002"/>
    </linearGradient>
    <linearGradient id="l" x1="27.7%" x2="73.681%" y1="33.559%" y2="66.441%">
      <stop offset="0%" stop-color="#FFC422"/>
      <stop offset="100%" stop-color="#DAA002"/>
    </linearGradient>
    <linearGradient id="m" x1="27.7%" x2="73.681%" y1="43.971%" y2="56.029%">
      <stop offset="0%" stop-color="#FFC422"/>
      <stop offset="100%" stop-color="#DAA002"/>
    </linearGradient>
    <linearGradient id="n" x1="27.7%" x2="73.681%" y1="28.886%" y2="71.114%">
      <stop offset="0%" stop-color="#FFC422"/>
      <stop offset="100%" stop-color="#DAA002"/>
    </linearGradient>
    <linearGradient id="o" x1="30.44%" x2="70.771%" y1="0%" y2="100%">
      <stop offset="0%" stop-color="#FFC422"/>
      <stop offset="100%" stop-color="#DAA002"/>
    </linearGradient>
  </defs>
  <g fill="none" fill-rule="nonzero">
    <path fill="url(#a)" d="M10.366 40.078c3.86 4.677 5.284 8.296 6.194 10.026a2.612 2.612 0 00-.868 1.942c0 1.135.73 2.1 1.75 2.481a2.652 2.652 0 00-.76 1.842c0 1.467 1.217 2.66 2.711 2.66h1.65C21.336 62.067 24.199 64 26.275 64h3.096c2.237 0 4.539-2.134 4.658-4.97h1.523c1.495 0 2.71-1.194 2.71-2.661 0-.716-.292-1.363-.76-1.842 1.02-.381 1.751-1.345 1.751-2.48 0-.737-.306-1.403-.8-1.885.022-.03.056-.05.071-.084 1.444-3.413 3.068-6.396 5.793-9.652 3.977-4.76 5.685-10.189 5.079-16.132C48.28 13.18 39.09 5.097 27.545 5.072c-6.065-.036-11.59 2.178-15.667 6.17-4.055 3.972-6.381 9.53-6.381 15.247 0 5 1.683 9.698 4.869 13.589zM29.37 63h-3.096c-1.54 0-3.926-1.461-4.22-3.97H33.02c-.114 2.238-1.954 3.97-3.65 3.97zm6.181-4.97H19.393c-.933 0-1.692-.745-1.692-1.661 0-.908.748-1.661 1.692-1.661h16.158c.933 0 1.692.745 1.692 1.66 0 .917-.759 1.662-1.692 1.662zm.992-4.322H18.402c-.933 0-1.692-.746-1.692-1.662 0-.896.736-1.66 1.692-1.66h18.14c.933 0 1.692.745 1.692 1.66 0 .916-.76 1.662-1.691 1.662zM23.953 28.2h-2.887c-1.6 0-2.901-1.272-2.901-2.835v-.382c0-1.57 1.301-2.849 2.9-2.849 1.555 0 2.889 1.243 2.889 2.849V28.2zm1.02 1.013h5.049v20.172h-5.05V29.214zM12.597 11.95c3.87-3.792 9.156-5.878 14.889-5.878h.055c11.012.023 19.776 7.728 20.84 18.32.578 5.671-1.055 10.852-4.854 15.4-2.802 3.352-4.428 6.37-5.815 9.594H31.04V29.2h2.902c2.153 0 3.906-1.72 3.906-3.835v-.382c0-2.136-1.765-3.849-3.906-3.849-2.162 0-3.92 1.727-3.92 3.849v3.23h-5.05v-3.23c0-2.155-1.786-3.849-3.906-3.849-2.162 0-3.92 1.727-3.92 3.849v.382c0 2.114 1.758 3.835 3.92 3.835h2.888v20.185h-6.609a43.779 43.779 0 00-6.187-9.937c-3.037-3.71-4.643-8.19-4.643-12.96 0-5.454 2.217-10.753 6.083-14.54zM31.04 28.2v-3.217c0-1.57 1.302-2.849 2.902-2.849 1.567 0 2.887 1.255 2.887 2.849v.382c0 1.563-1.295 2.835-2.887 2.835H31.04z"/>
    <path fill="url(#b)" d="M4.667 17.792l-2.013-.738a.512.512 0 00-.655.293.498.498 0 00.298.643l2.013.739a.512.512 0 00.655-.293.498.498 0 00-.298-.644z"/>
    <path fill="url(#c)" d="M.306 27.938a.506.506 0 00.508.477h.024l2.147-.1a.504.504 0 00.485-.522.493.493 0 00-.533-.476l-2.146.098a.504.504 0 00-.485.523z"/>
    <path fill="url(#d)" d="M5.164 36.741l-1.934.92a.496.496 0 00-.237.668c.123.25.429.351.68.232l1.934-.92c.253-.12.36-.419.237-.667a.515.515 0 00-.68-.233z"/>
    <path fill="url(#e)" d="M42.658 18.799c.131.251.442.34.685.218a.496.496 0 00.222-.673 21.755 21.755 0 00-2.628-3.928.515.515 0 00-.717-.068.494.494 0 00-.069.704 20.742 20.742 0 012.507 3.747z"/>
    <path fill="url(#f)" d="M28.01 2.61V.5c0-.276-.228-.5-.51-.5a.504.504 0 00-.509.5v2.11c0 .276.228.5.51.5.28 0 .509-.224.509-.5z"/>
    <path fill="url(#g)" d="M18.016 5.012a.496.496 0 00.268-.657l-.845-1.94a.511.511 0 00-.669-.262.496.496 0 00-.267.656l.845 1.94c.112.257.414.37.668.263z"/>
    <path fill="url(#h)" d="M10.09 10.41a.494.494 0 00-.017-.706L8.519 8.247a.517.517 0 00-.72.017.494.494 0 00.016.707l1.555 1.456c.203.19.526.184.72-.016z"/>
    <path fill="url(#i)" d="M10.987 44.546l-1.41 1.593a.494.494 0 00.05.705.516.516 0 00.719-.05l1.41-1.591a.494.494 0 00-.05-.706.517.517 0 00-.72.05z"/>
    <path fill="url(#j)" d="M37.653 4.749l.845-1.94a.497.497 0 00-.268-.656.512.512 0 00-.669.263l-.845 1.94c-.11.253.01.547.268.656a.513.513 0 00.669-.263z"/>
    <path fill="url(#k)" d="M45.63 10.427l1.555-1.456a.493.493 0 00.016-.707.516.516 0 00-.719-.017l-1.554 1.457a.493.493 0 00-.017.707.515.515 0 00.719.016z"/>
    <path fill="url(#l)" d="M52.347 17.054l-2.012.738a.498.498 0 00-.3.644c.098.257.39.39.656.293l2.012-.739a.498.498 0 00.3-.643.514.514 0 00-.656-.293z"/>
    <path fill="url(#m)" d="M51.531 27.793a.503.503 0 00.485.523l2.146.098h.024c.27 0 .496-.208.508-.476a.503.503 0 00-.484-.523l-2.147-.098a.503.503 0 00-.532.476z"/>
    <path fill="url(#n)" d="M49.156 36.974a.496.496 0 00.237.668l1.934.919c.254.12.557.017.68-.232a.496.496 0 00-.236-.668l-1.935-.92a.514.514 0 00-.68.233z"/>
    <path fill="url(#o)" d="M43.295 44.497a.494.494 0 00-.05.706l1.41 1.592c.185.209.506.23.718.05a.494.494 0 00.05-.706l-1.41-1.593a.516.516 0 00-.718-.049z"/>
  </g>
</svg>
