<svg 
  class="o-svg__magnifying-glass"
  xmlns="http://www.w3.org/2000/svg" 
  viewBox="0 0 41 40">
  <defs/>
  <defs>
    <linearGradient id="a" x1="50%" x2="50%" y1="0%" y2="100%">
      <stop offset="0%" stop-color="#062FF9"/>
      <stop offset="100%" stop-color="#0225D0"/>
    </linearGradient>
    <linearGradient id="b" x1="50%" x2="50%" y1="0%" y2="100%">
      <stop offset="0%" stop-color="#062FF9"/>
      <stop offset="100%" stop-color="#0225D0"/>
    </linearGradient>
    <linearGradient id="c" x1="50%" x2="50%" y1="0%" y2="100%">
      <stop offset="0%" stop-color="#062FF9"/>
      <stop offset="100%" stop-color="#0225D0"/>
    </linearGradient>
  </defs>
  <g fill="none" fill-rule="nonzero">
    <path fill="url(#a)" d="M20.5.35l-.075.003c-.084 0-.169.006-.253.008C9.317.586.462 11.85.373 11.964a.298.298 0 000 .366c.086.11 8.261 10.507 18.527 11.526v2.135c-.655.07-1.168.607-1.168 1.265l-.025 9.697c0 1.487 1.24 2.697 2.764 2.697 1.53 0 2.765-1.209 2.765-2.697 0-7.867.025-9.676.025-9.693v-.004c0-.653-.507-1.188-1.156-1.264v-2.136C32.368 22.834 40.541 12.44 40.627 12.33a.298.298 0 000-.366C40.537 11.848 31.504.35 20.5.35zM9.079 12.1C9.079 6.07 13.926 1.15 20.173.966c.092-.002.182-.008.274-.008 10.01-.063 15.099 11.536 8.58 18.571-7.03 7.59-19.948 2.755-19.948-7.43zm-8.063.048c.913-1.115 5.975-7.024 12.731-9.776-3.255 2.139-5.29 5.73-5.29 9.728 0 4.214 2.276 7.934 5.744 10.005-6.98-2.665-12.251-8.817-13.185-9.957zM22.64 27.254c-.001.079-.025 1.958-.025 9.7 0 1.145-.95 2.09-2.144 2.09-1.181 0-2.143-.938-2.143-2.09l.025-9.698c0-.37.31-.673.69-.673H21.95c.38 0 .689.3.69.671zm-1.156-1.277h-1.963v-2.065a15.28 15.28 0 001.963 0v2.065zm5.283-3.86c7.688-4.541 7.576-15.058.508-19.736 6.743 2.757 11.796 8.652 12.709 9.766-.935 1.142-6.22 7.311-13.217 9.97z"/>
    <path fill="url(#b)" d="M20.506 2.844h-.012c-5.227 0-9.48 4.15-9.48 9.25 0 .246.005.537.036.824.429 4.533 4.068 7.992 8.605 8.394.253.027.535.042.84.042 5.148 0 9.497-4.084 9.497-9.255 0-5.102-4.248-9.255-9.486-9.255zm-.012 17.904c-.28 0-.54-.014-.794-.04-4.206-.375-7.629-3.583-8.031-7.85a7.04 7.04 0 01-.033-.765c0-4.765 3.973-8.642 8.859-8.642h.01c4.888 0 8.866 3.873 8.866 8.648 0 4.826-4.061 8.649-8.877 8.649z"/>
    <path fill="url(#c)" d="M20.506 6.935c-.416 0-.825.046-1.214.136a.308.308 0 00-.21.164.298.298 0 000 .261c.125.253.188.52.188.79 0 1.01-.842 1.831-1.876 1.831-.43 0-.852-.146-1.19-.412a.316.316 0 00-.472.098 5.046 5.046 0 00-.574 2.344c0 2.874 2.4 5.213 5.348 5.213 2.946 0 5.343-2.339 5.343-5.213s-2.397-5.212-5.343-5.212zm0 9.819c-2.606 0-4.727-2.067-4.727-4.607 0-.606.123-1.206.357-1.755.382.215.818.331 1.258.331 1.377 0 2.497-1.093 2.497-2.436 0-.236-.035-.467-.105-.693.235-.035.476-.053.72-.053 2.604 0 4.721 2.067 4.721 4.606 0 2.54-2.117 4.607-4.72 4.607z"/>
  </g>
</svg>
