<svg 
  class="o-svg__phone-support"
  xmlns="http://www.w3.org/2000/svg" 
  viewBox="0 0 41 47">
  <defs/>
  <defs>
    <linearGradient id="a" x1="50%" x2="50%" y1="0%" y2="100%">
      <stop offset="0%" stop-color="#062FF9"/>
      <stop offset="100%" stop-color="#0225D0"/>
    </linearGradient>
    <linearGradient id="b" x1="50%" x2="50%" y1="0%" y2="100%">
      <stop offset="0%" stop-color="#062FF9"/>
      <stop offset="100%" stop-color="#0225D0"/>
    </linearGradient>
    <linearGradient id="c" x1="50%" x2="50%" y1="0%" y2="100%">
      <stop offset="0%" stop-color="#062FF9"/>
      <stop offset="100%" stop-color="#0225D0"/>
    </linearGradient>
  </defs>
  <g fill="none" fill-rule="nonzero">
    <path fill="url(#a)" d="M10.138 15.611c1.647-.557 3.253-1.287 4.806-1.992l.166-.075c1.287-.59 1.546-1.18 1.108-2.534-.953-2.817-2.013-5.732-2.898-8.627-.376-1.2-1.118-1.72-2.34-1.659-5.778.363-9.134 2.62-10.26 6.9-1.297 5.209-.612 11.798 1.882 18.08C5.697 33.43 11.27 39.81 19.638 45.21c2.937 1.9 6.012 2.24 9.118 1.258 2.446-.781 5.402-2.115 6.558-5.526.309-.918.155-1.59-.511-2.239a289.74 289.74 0 01-6.045-6.32c-1.334-1.415-1.906-1.504-3.611-.561-1.337.755-2.613 1.584-3.946 2.31-1.152.606-1.308.532-2.378-.327-3.8-3.116-6.566-7.183-8.706-12.8a23.902 23.902 0 01-1.07-3.611c-.183-.9.156-1.45 1.09-1.783zm-1.836 1.922a24.587 24.587 0 001.101 3.719c2.187 5.738 5.023 9.9 8.927 13.103 1.269 1.02 1.754 1.19 3.243.407 1.342-.73 2.629-1.566 3.958-2.316 1.39-.772 1.566-.744 2.66.419a289.544 289.544 0 006.064 6.34c.477.464.561.847.336 1.516-.82 2.42-2.694 3.982-6.075 5.061-2.96.939-5.804.543-8.452-1.17v-.001C11.828 39.298 6.348 33.03 3.312 25.447.872 19.298.195 12.862 1.458 7.795c1.048-3.987 4.09-6.005 9.57-6.35a3.33 3.33 0 01.165-.004c.754 0 1.141.325 1.4 1.147.888 2.911 1.92 5.738 2.9 8.64.329 1.013.236 1.23-.71 1.663l-.165.075c-1.536.698-3.125 1.42-4.74 1.966-1.283.455-1.829 1.353-1.576 2.6z"/>
    <path fill="url(#b)" d="M41 16.316C41 11.73 36.121 8 30.125 8c-5.997 0-10.876 3.73-10.876 8.316 0 1.516.534 2.99 1.547 4.275l-1.776 4.94a.347.347 0 00.118.393c.12.092.287.103.42.02l4.45-2.755c1.806.944 3.916 1.442 6.117 1.442 5.996 0 10.875-3.73 10.875-8.315zm-10.875 7.61c-2.155 0-4.213-.503-5.952-1.453a.373.373 0 00-.373.01l-3.748 2.32 1.495-4.161a.343.343 0 00-.06-.338c-.989-1.194-1.511-2.573-1.511-3.988 0-4.197 4.552-7.61 10.149-7.61 5.596 0 10.149 3.413 10.149 7.61 0 4.196-4.553 7.61-10.15 7.61z"/>
    <path fill="url(#c)" d="M5.342 4.584c-.72.648-1.3 1.38-1.727 2.175a.354.354 0 00.165.487.39.39 0 00.511-.158A7.322 7.322 0 015.863 5.11a.35.35 0 00.016-.511.393.393 0 00-.537-.015z"/>
  </g>
</svg>
