<svg 
  class="o-svg__previous-event"
  xmlns="http://www.w3.org/2000/svg" 
  viewBox="0 0 42 41">
  <defs/>
  <defs>
    <linearGradient id="a" x1="50%" x2="50%" y1="0%" y2="100%">
      <stop offset="0%" stop-color="#062FF9"/>
      <stop offset="100%" stop-color="#0225D0"/>
    </linearGradient>
    <linearGradient id="b" x1="50%" x2="50%" y1="0%" y2="100%">
      <stop offset="0%" stop-color="#062FF9"/>
      <stop offset="100%" stop-color="#0225D0"/>
    </linearGradient>
    <linearGradient id="c" x1="50%" x2="50%" y1="0%" y2="100%">
      <stop offset="0%" stop-color="#062FF9"/>
      <stop offset="100%" stop-color="#0225D0"/>
    </linearGradient>
    <linearGradient id="d" x1="50%" x2="50%" y1="0%" y2="100%">
      <stop offset="0%" stop-color="#062FF9"/>
      <stop offset="100%" stop-color="#0225D0"/>
    </linearGradient>
    <linearGradient id="e" x1="50%" x2="50%" y1="0%" y2="100%">
      <stop offset="0%" stop-color="#062FF9"/>
      <stop offset="100%" stop-color="#0225D0"/>
    </linearGradient>
    <linearGradient id="f" x1="50%" x2="50%" y1="0%" y2="100%">
      <stop offset="0%" stop-color="#062FF9"/>
      <stop offset="100%" stop-color="#0225D0"/>
    </linearGradient>
    <linearGradient id="g" x1="50%" x2="50%" y1="0%" y2="100%">
      <stop offset="0%" stop-color="#062FF9"/>
      <stop offset="100%" stop-color="#0225D0"/>
    </linearGradient>
  </defs>
  <g fill="none" fill-rule="nonzero">
    <path fill="url(#a)" d="M41.286 7.55a.314.314 0 00-.116-.24L34.014.092c-.065-.035-.12-.09-.225-.09H11.375a.321.321 0 00-.323.32v4.473l-.002.012V6.09l.002.012v4.12a9.248 9.248 0 00-1.755-.18c-5.123 0-9.29 4.138-9.29 9.225 0 4.581 3.384 8.444 7.91 9.112v1.784a1.141 1.141 0 00-.968 1.121l-.013 7.381a2.34 2.34 0 002.348 2.332c.71 0 1.338-.322 1.768-.82v.5c0 .177.144.32.323.32h29.588a.321.321 0 00.323-.32V7.55zm-7.175-.32V1.104l6.073 6.124-6.073.002zM.651 19.267c0-4.733 3.88-8.585 8.646-8.585 4.74 0 8.652 3.764 8.652 8.585 0 5.238-4.654 9.177-9.672 8.522C3.93 27.282.651 23.618.651 19.267zm7.911 9.196a9.483 9.483 0 001.484 0v1.681H8.562v-1.68zm2.42 10.202c0 .932-.762 1.691-1.704 1.691a1.696 1.696 0 01-1.697-1.69l.013-7.381c0-.276.226-.5.503-.5h2.401c.281 0 .502.22.502.5l-.018 7.38zm-.291-8.501v-1.78c.117-.018.237-.038.361-.062v1.97a1.137 1.137 0 00-.361-.128zm29.95 10.192H11.697V28.177c3.01-.792 5.503-3.056 6.472-6.156h19.13a.321.321 0 00.322-.32.321.321 0 00-.323-.32h-2.19v-4.575a.321.321 0 00-.322-.32.321.321 0 00-.322.32v4.575h-2.228v-8.67a.321.321 0 00-.323-.32.321.321 0 00-.322.32v8.67h-2.228v-3.276a.321.321 0 00-.323-.32.321.321 0 00-.323.32v3.276H26.49V13.11a.321.321 0 00-.323-.32.321.321 0 00-.322.32v8.27h-2.228V11.213a.321.321 0 00-.323-.32.321.321 0 00-.323.32V21.38h-2.227V13.11a.321.321 0 00-.323-.32.321.321 0 00-.323.32v8.27h-1.752c.173-.736.25-1.412.25-2.113 0-4.269-2.921-7.87-6.898-8.912V.644h21.764l.005 6.907c0 .177.145.32.323.32h6.852v32.485z" transform="translate(.614)"/>
    <path fill="url(#b)" d="M30.257 4.79H14.288a.321.321 0 00-.322.32v2.441c0 .177.144.32.322.32h15.969a.321.321 0 00.322-.32V5.11a.321.321 0 00-.322-.32zm-.323 2.44H14.611v-1.8h15.323v1.8z" transform="translate(.614)"/>
    <path fill="url(#c)" d="M25.802 31.21c0 3.282 2.665 6.068 6.111 6.068 3.356 0 6.111-2.713 6.111-6.068 0-8.031-12.222-8.021-12.222 0zm6.111 5.427c-1.073-.007-1.997-.27-2.88-.818l2.88-4.053 2.875 4.054a5.324 5.324 0 01-2.875.817zm3.398-1.192l-3.134-4.42a.324.324 0 00-.527 0l-3.14 4.42a5.416 5.416 0 01-2.063-4.235c0-2.992 2.452-5.427 5.466-5.427 3.014 0 5.466 2.435 5.466 5.427 0 1.659-.77 3.213-2.068 4.235z" transform="translate(.614)"/>
    <path fill="url(#d)" d="M15.037 28.087h8.256a.321.321 0 00.323-.32.321.321 0 00-.323-.32h-8.256a.321.321 0 00-.323.32c0 .177.144.32.323.32z" transform="translate(.614)"/>
    <path fill="url(#e)" d="M24.45 30.89h-9.413a.321.321 0 00-.323.32c0 .177.144.32.323.32h9.413a.321.321 0 00.323-.32.321.321 0 00-.323-.32zM24.45 34.333h-9.413a.321.321 0 00-.323.32c0 .177.144.32.323.32h9.413a.321.321 0 00.323-.32.321.321 0 00-.323-.32z" transform="translate(.614)"/>
    <path fill="url(#f)" d="M16.87 19.264c0-4.14-3.397-7.509-7.571-7.509-4.168 0-7.559 3.368-7.559 7.509a7.45 7.45 0 001.726 4.78c4.546 5.43 13.404 2.177 13.404-4.78zM3.964 23.636a6.82 6.82 0 01-1.579-4.372c0-3.787 3.102-6.868 6.914-6.868 3.818 0 6.925 3.081 6.925 6.868 0 6.38-8.106 9.324-12.26 4.372z" transform="translate(.614)"/>
    <path fill="url(#g)" d="M9.057 14.634a.321.321 0 00-.322-.32c-2.436 0-4.418 1.969-4.418 4.389 0 .177.145.32.323.32a.321.321 0 00.322-.32c0-2.067 1.693-3.748 3.773-3.748a.321.321 0 00.322-.32z" transform="translate(.614)"/>
  </g>
</svg>
