<svg
    xmlns="http://www.w3.org/2000/svg"
    xmlns:xlink="http://www.w3.org/1999/xlink"
    class="o-svg o-svg__quote"
    viewBox="0 0 32 20">
    <defs/>
    <defs>
    <filter id="a" width="104.6%" height="106.2%" x="-2.3%" y="-3.1%" filterUnits="objectBoundingBox">
        <feOffset in="SourceAlpha" result="shadowOffsetOuter1"/>
        <feGaussianBlur in="shadowOffsetOuter1" result="shadowBlurOuter1" stdDeviation="2.5"/>
        <feColorMatrix in="shadowBlurOuter1" values="0 0 0 0 0 0 0 0 0 0 0 0 0 0 0 0 0 0 0.15 0"/>
    </filter>
    <filter id="c">
        <feColorMatrix in="SourceGraphic" values="0 0 0 0 0.007843 0 0 0 0 0.149020 0 0 0 0 0.843137 0 0 0 1.000000 0"/>
    </filter>
    <rect id="b" width="327" height="240" x="0" y="0" rx="5"/>
    </defs>
    <g fill="none" fill-rule="evenodd">
    <g transform="translate(-16 -24)">
        <use fill="#000" filter="url(#a)" xlink:href="#b"/>
        <use fill="#FFF" xlink:href="#b"/>
    </g>
    <g filter="url(#c)" transform="translate(-40 -4215)">
        <g fill="#4E67E2" fill-rule="nonzero">
        <path d="M57.0702255 4222.21083333C57.0766568 4218.23405556 60.4229935 4215 64.53511274 4215 68.65142384 4215 72 4218.23972222 72 4222.22222222c0 3.53977778-2.62970751 6.52399998-6.18833412 7.11455558-.19402964 2.5442222 1.97808028 4.6929444 2.0013937 4.7154444.18363623.1790556.22009933.4551667.08831536.6727222-.10485296.1733334-.295265.2750556-.49543883.2750556-.05104834 0-.10261348-.0065-.15337472-.0203333-10.41954709-2.8000556-10.20312279-12.25205559-10.18233589-12.76883337zM40.0035588 4222.21083333C40.0099901 4218.23405556 43.3563268 4215 47.4684461 4215c4.1163111 0 7.4648872 3.23972222 7.4648872 7.22222222 0 3.53977778-2.6297075 6.52399998-6.1883341 7.11455558-.1940296 2.5442222 1.9780803 4.6929444 2.0013937 4.7154444.1836362.1790556.2200993.4551667.0883154.6727222-.104853.1733334-.295265.2750556-.4954389.2750556-.0510483 0-.1026134-.0065-.1533747-.0203333-10.419547-2.8000556-10.2031227-12.25205559-10.1823359-12.76883337z"/>
        </g>
    </g>
    </g>
</svg>
