<svg 
  width="50px" 
  height="46px" 
  xmlns="http://www.w3.org/2000/svg" 
  viewBox="0 0 50 46">
  <defs/>
  <defs>
    <linearGradient id="a" x1="50%" x2="50%" y1="0%" y2="100%">
      <stop offset="0%" stop-color="#062ff9"/>
      <stop offset="100%" stop-color="#0225d0"/>
    </linearGradient>
    <linearGradient id="b" x1="50%" x2="50%" y1="0%" y2="100%">
      <stop offset="0%" stop-color="#062ff9"/>
      <stop offset="100%" stop-color="#0225d0"/>
    </linearGradient>
    <linearGradient id="c" x1="50%" x2="50%" y1="0%" y2="100%">
      <stop offset="0%" stop-color="#062ff9"/>
      <stop offset="100%" stop-color="#0225d0"/>
    </linearGradient>
    <linearGradient id="d" x1="50%" x2="50%" y1="0%" y2="100%">
      <stop offset="0%" stop-color="#062ff9"/>
      <stop offset="100%" stop-color="#0225d0"/>
    </linearGradient>
    <linearGradient id="e" x1="50%" x2="50%" y1="0%" y2="100%">
      <stop offset="0%" stop-color="#062ff9"/>
      <stop offset="100%" stop-color="#0225d0"/>
    </linearGradient>
    <linearGradient id="f" x1="50%" x2="50%" y1="0%" y2="100%">
      <stop offset="0%" stop-color="#062ff9"/>
      <stop offset="100%" stop-color="#0225d0"/>
    </linearGradient>
  </defs>
  <g fill="none" fill-rule="nonzero">
    <path fill="url(#a)" d="M3.386 42.604H44.78a.38.38 0 00.376-.384V10.994a.38.38 0 00-.376-.383H3.386a.38.38 0 00-.376.383V42.22a.38.38 0 00.376.384zm.377-31.227h40.64v30.46H3.764v-30.46z" transform="translate(.9)"/>
    <path fill="url(#b)" d="M45.533.33H2.634C1.182.33 0 1.534 0 3.013v39.974c0 1.48 1.182 2.683 2.634 2.683h42.899c1.452 0 2.634-1.204 2.634-2.683V3.013c0-1.48-1.182-2.683-2.634-2.683zm1.881 42.657c0 1.057-.844 1.917-1.881 1.917H2.634c-1.037 0-1.881-.86-1.881-1.917V8.311h46.661v34.676zm0-35.443H.753V3.013c0-1.057.844-1.917 1.881-1.917h42.899c1.037 0 1.881.86 1.881 1.917v4.531z" transform="translate(.9)"/>
    <path fill="url(#c)" d="M6.019 2.88c-.784 0-1.422.646-1.422 1.44 0 .794.638 1.44 1.422 1.44.775 0 1.405-.646 1.405-1.44 0-.794-.63-1.44-1.405-1.44zm0 2.113a.672.672 0 01-.67-.673c0-.371.3-.673.67-.673.36 0 .652.302.652.673a.664.664 0 01-.652.673z" transform="translate(.9)"/>
    <path fill="url(#d)" d="M9.909 2.88c-.784 0-1.422.646-1.422 1.44 0 .794.638 1.44 1.422 1.44.775 0 1.405-.646 1.405-1.44 0-.794-.63-1.44-1.405-1.44zm0 2.113a.672.672 0 01-.67-.673c0-.371.3-.673.67-.673.36 0 .652.302.652.673a.664.664 0 01-.652.673z" transform="translate(.9)"/>
    <path fill="url(#c)" d="M13.799 2.88c-.784 0-1.422.646-1.422 1.44 0 .794.638 1.44 1.422 1.44.775 0 1.405-.646 1.405-1.44 0-.794-.63-1.44-1.405-1.44zm0 2.113a.672.672 0 01-.67-.673c0-.371.3-.673.67-.673.36 0 .652.302.652.673a.664.664 0 01-.652.673z" transform="translate(.9)"/>
    <path fill="url(#e)" d="M42.784 3.937H18.653a.38.38 0 00-.376.383.38.38 0 00.376.383h24.13a.38.38 0 00.377-.383.38.38 0 00-.376-.383z" transform="translate(.9)"/>
    <path fill="url(#f)" d="M37.014 23.478l1-.725a.388.388 0 00.088-.534.373.373 0 00-.525-.09l-1.08.782C25.737 11.594 7.02 19.5 7.02 35.061a.38.38 0 00.376.383h3.763a.38.38 0 00.376-.383c0-7.138 5.694-12.88 12.644-12.88 3.035 0 6.106 1.106 8.575 3.444l-2.025 1.467c-1.783-1.579-4.105-2.542-6.648-2.542-5.602 0-10.16 4.643-10.16 10.35a.38.38 0 00.376.383.38.38 0 00.376-.383c0-5.284 4.22-9.583 9.408-9.583 2.29 0 4.389.839 6.022 2.229l-4.457 3.23a1.934 1.934 0 00-1.464-.691c-1.079 0-1.957.894-1.957 1.993 0 .354.094.693.26.99L20.99 34.15a.388.388 0 00-.088.535c.12.171.354.213.524.09l1.556-1.128c.341.27.76.424 1.2.424 1.078 0 1.956-.894 1.956-1.993 0-.225-.047-.434-.114-.636l4.648-3.368a9.64 9.64 0 012.815 6.826.38.38 0 00.377.383.38.38 0 00.376-.383c0-2.835-1.127-5.406-2.946-7.277L33.3 26.17c2.377 2.526 3.523 5.677 3.523 8.891a.38.38 0 00.376.383h3.763a.38.38 0 00.376-.383c0-4.163-1.467-8.303-4.323-11.583zM24.18 33.305a1.21 1.21 0 01-1.204-1.227c0-.676.54-1.227 1.204-1.227a1.22 1.22 0 011.204 1.227c0 .676-.54 1.227-1.204 1.227zm.373-11.886v-3.052c4.236.098 8.274 1.842 11.317 4.999l-2.482 1.798a13.22 13.22 0 00-8.835-3.745zm-9.588 3.745l-2.486-1.8c3.038-3.147 7.107-4.906 11.321-5.007v3.062c-3.234.09-6.458 1.44-8.835 3.745zm-7.19 9.514a16.848 16.848 0 014.19-10.747l2.461 1.784c-2.127 2.297-3.547 5.517-3.64 8.963H7.776zm29.793 0c-.092-3.416-1.507-6.66-3.64-8.963l2.46-1.782a16.82 16.82 0 014.191 10.745h-3.01z" transform="translate(.9)"/>
  </g>
</svg>
