<svg width="50px" height="49px" xmlns="http://www.w3.org/2000/svg" viewBox="0 0 50 49">
  <defs/>
  <defs>
    <linearGradient id="a" x1="50%" x2="50%" y1="0%" y2="100%">
      <stop offset="0%" stop-color="#062FF9"/>
      <stop offset="100%" stop-color="#0225D0"/>
    </linearGradient>
    <linearGradient id="b" x1="50%" x2="50%" y1="0%" y2="100%">
      <stop offset="0%" stop-color="#062FF9"/>
      <stop offset="100%" stop-color="#0225D0"/>
    </linearGradient>
  </defs>
  <g fill="none" fill-rule="nonzero">
    <path fill="url(#a)" d="M16.891-.003h-.007C7.574.002.024 7.555.022 16.887.019 26.356 7.727 33.779 16.88 33.779c3.606 0 7.219-1.17 10.261-3.521l2.372 2.376c-.59.699-.567 1.752.087 2.415l12.018 12.077a3.81 3.81 0 005.401.002c1.504-1.49 1.485-3.943.001-5.412C37.74 32.41 35.038 29.668 35.01 29.64a1.777 1.777 0 00-2.392-.103l-2.375-2.373a16.827 16.827 0 003.202-7.222l1.028.838a.374.374 0 00.486-.009l1.902-1.67 2.285 1.69c.15.111.36.096.492-.039l1.604-1.634 2.213 1.671a.377.377 0 00.506-.048l4.087-4.523a.377.377 0 00-.028-.534l-2.973-2.669a.376.376 0 00-.251-.096H33.258C31.494 5.576 24.926-.003 16.89-.003zm16.86 29.874c.263 0 .525.1.725.3.026.026 2.727 2.77 12.015 12.08 1.173 1.162 1.22 3.133-.002 4.342a3.058 3.058 0 01-4.337 0L30.135 34.52a1.043 1.043 0 01-.008-1.454l.156-.156c.007-.006.016-.008.023-.015l2.566-2.57.001-.002.15-.15c.2-.2.464-.301.728-.301zm-3.71 2.223l-2.3-2.303c.039-.032.077-.073.115-.106.316-.27.63-.554.937-.862.369-.37.913-.985.98-1.064l2.3 2.298-2.033 2.037zm17.195-16.102l-3.602 3.987-2.202-1.663a.376.376 0 00-.495.037L39.33 19.99l-2.266-1.675a.376.376 0 00-.471.02l-1.891 1.66L32.6 18.28a.376.376 0 00-.5.022l-1.854 1.808H25.8a.376.376 0 00-.35.236 9.17 9.17 0 01-8.538 5.772c-5.084 0-9.22-4.146-9.22-9.242 0-5.088 4.136-9.227 9.22-9.227a9.147 9.147 0 018.538 5.786.376.376 0 00.35.237h18.852l2.584 2.32zM29.89 20.864a13.562 13.562 0 01-3.376 5.67 13.571 13.571 0 01-9.189 3.982C4.882 30.866-1.353 15.854 7.246 7.24a13.531 13.531 0 019.639-3.999h.011c6.145 0 11.314 4.023 13.022 9.677h-3.867a9.893 9.893 0 00-9.14-6.023c-5.498 0-9.971 4.478-9.971 9.981 0 5.512 4.473 9.996 9.972 9.996a9.917 9.917 0 009.138-6.008h3.841zm.812-7.946c-1.726-6.06-7.227-10.43-13.807-10.43h-.012a14.279 14.279 0 00-10.17 4.22c-9.063 9.077-2.516 24.919 10.634 24.562a14.46 14.46 0 009.7-4.204 14.304 14.304 0 003.678-6.372l1.66-1.618.391.32a16.017 16.017 0 01-4.516 8.894C18.003 38.557.771 31.045.774 16.887.776 7.977 7.984.755 16.884.751h.007c7.58 0 13.835 5.206 15.59 12.167h-1.778z" transform="translate(.9)"/>
    <path fill="url(#b)" d="M14.12 13.446a3.435 3.435 0 000 6.868 3.435 3.435 0 003.431-3.43 3.438 3.438 0 00-3.432-3.438zm0 6.114a2.68 2.68 0 010-5.36 2.685 2.685 0 012.679 2.684 2.68 2.68 0 01-2.68 2.676z" transform="translate(.9)"/>
  </g>
</svg>
