<svg
    class="o-svg o-svg__seo"
    xmlns="http://www.w3.org/2000/svg"
    viewBox="0 0 63 64">
    <defs/>
    <defs>
      <linearGradient id="a" x1="50%" x2="50%" y1="0%" y2="100%">
        <stop offset="0%" stop-color="#062FF9"/>
        <stop offset="100%" stop-color="#0225D0"/>
      </linearGradient>
      <linearGradient id="b" x1="50%" x2="50%" y1="0%" y2="100%">
        <stop offset="0%" stop-color="#062FF9"/>
        <stop offset="100%" stop-color="#0225D0"/>
      </linearGradient>
    </defs>
    <g fill="none" fill-rule="nonzero">
      <path fill="url(#a)" d="M22.0930762-.003968h-.0100898C9.90667125.00198892.03025969 9.86804185.02827057 22.0561231.02524922 34.4236406 10.1067356 44.1190991 22.0791375 44.1190991c4.7168198 0 9.4425877-1.5283693 13.422022-4.5987348l3.1024842 3.1032419c-.7722225.9131618-.741825 2.2888861.11277 3.1551113l15.7197207 15.7730757c1.9413351 1.9527385 5.1077545 1.959749 7.0641408.002885 1.9672734-1.945728 1.9424179-5.1500505.0019195-7.0682684-12.1417341-12.154811-15.6735731-15.737019-15.7105758-15.7740406-.8568197-.8570289-2.2146666-.8934498-3.1290427-.1351581l-3.1056145-3.0984369c2.1252656-2.7643668 3.5592244-6.0002954 4.1875017-9.4339545l1.3454044 1.0954338c.185535.1528813.4546927.1475939.6349416-.0115397l2.4878503-2.1807655 2.9886905 2.2067299c.1965895.1451913.4710431.1245144.6431118-.0509637l2.0990025-2.1341342 2.8944858 2.1822129c.2037952.1519262.490268.1254794.6608995-.062976l5.3453335-5.9076923c.0879637-.0971126.133619-.2250043.1268958-.3557711-.0072057-.1312492-.0658449-.2538436-.163426-.3413464l-3.8884781-3.4855779c-.0898833-.080768-.2071617-.1254793-.3282891-.1254793H43.4997478C41.1932391 7.28246154 32.6019881-.003968 22.0930762-.003968zm22.0523035 39.0187422c.343665 0 .6868476.1307667.9478448.3913452.0341283.0346191 3.5669222 3.617792 15.7149169 15.7783631 1.5350048 1.518779 1.594845 4.0921797-.0019195 5.6721132-1.5711314 1.5715151-4.1114588 1.5700283-5.6726578.0004825L39.4152905 45.0854498c-.5191003-.5259618-.5191003-1.3822129-.0105722-1.8980726l.2042775-.2037858c.0093122-.0079951.0215086-.0114806.0302794-.0202536l3.3563939-3.357696c.0004823-.0004824.0005414-.001083.0010237-.0015655l.1960481-.1955545c.2624246-.2624984.6075366-.3937476.9526388-.3937476zm-4.8541008 2.9043298l-3.0074428-3.0081772c.0508922-.0426634.1003964-.095429.1512295-.1389391.4121578-.3529452.8227603-.7227766 1.2253599-1.1254843.4823339-.4824517 1.19385-1.2865477 1.2819023-1.3903852l3.00888 3.0019249-2.6599289 2.6610609zm22.4911477-21.0317292L57.07107 26.0945822l-2.8795823-2.1711557c-.1961072-.1480763-.4739274-.1278819-.6469608.0480787l-2.1023691 2.1370191-2.9636972-2.1879828c-.1850526-.137019-.4431656-.1264443-.6166715.0259643l-2.4729568 2.1677884-2.7493298-2.238464c-.193223-.1572136-.473445-.1451914-.6536841.0288492l-2.4258543 2.3615409h-5.8149296c-.2009109 0-.3811598.1216394-.456622.3081748-1.8485873 4.5798104-6.2326097 7.5394166-11.1684234 7.5394166-6.649335 0-12.0585938-5.4153846-12.0585938-12.0716308 0-6.6451889 5.4092588-12.05144613 12.0585938-12.05144613 4.9507171 0 9.3342571 2.96635073 11.1679411 7.55720863.0744975.1870178.255711.3096123.4571043.3096123h24.6574421l3.37995 3.0298191zm-22.686113 6.3634609c-.8303302 2.7716923-2.34234 5.3231951-4.4154436 7.4052825-3.1285111 3.129275-7.3774772 5.052603-12.018697 5.20192-16.27670956.457216-24.43188238-19.1513896-13.18380331-30.40143758C12.8371655 6.09217969 17.3139553 4.23737108 22.0844236 4.23352123h.0149034c8.0375007 0 14.7977846 5.25425231 17.0321386 12.63941907h-5.0576597c-2.054302-4.7903803-6.7103761-7.86683076-11.953807-7.86683076-7.1919914 0-13.04296874 5.84807386-13.04296874 13.03606156 0 7.1990351 5.85097734 13.0562461 13.04296874 13.0562461 5.228055 0 9.8831644-3.0687507 11.9528522-7.8475914h5.0234625v.0000099zm1.0616386-10.3778855C37.9009477 8.95778462 30.7057472 3.24891569 22.099327 3.24891569h-.0153857c-5.033385.00384985-9.7577157 1.96154093-13.30203661 5.51154216C-3.07227375 20.6175212 5.49017437 41.3083175 22.6905328 40.8421809c4.6849064-.150656 9.2926181-2.0991507 12.6872845-5.4903827 2.3134388-2.3239779 3.9722879-5.2 4.8100008-8.3228357l2.1705075-2.1127385.5129185.4176049c-.6730861 4.3067176-2.655893 8.3648296-5.9067914 11.6165219C23.5469194 50.3597292 1.00791141 40.5489231 1.0126455 22.0566055 1.01463469 10.4197514 10.4436773.98661415 22.0829864.98064739h.0100898c9.9142608 0 18.0951258 6.80001969 20.390393 15.89231261h-2.325517v-.0000098z"/>
      <path fill="url(#b)" d="M18.4675247 17.5623778c-2.4695902 0-4.4787094 2.0139422-4.4787094 4.4899053 0 2.4701932 2.0091291 4.4798031 4.4787094 4.4798031 2.4753586 0 4.488809-2.0096197 4.488809-4.4798031 0-2.4759631-2.0134603-4.4899053-4.488809-4.4899053zm0 7.985093c-1.9269338 0-3.4943344-1.5677933-3.4943344-3.4951877 0-1.9326917 1.5674105-3.5052899 3.4943344-3.5052899 1.9322198 0 3.5044341 1.5725982 3.5044341 3.5052899 0 1.9273944-1.5722143 3.4951877-3.5044341 3.4951877z"/>
    </g>
</svg>
