<svg 
  class="o-svg__speed"
  xmlns="http://www.w3.org/2000/svg" viewBox="0 0 42 39">
  <defs/>
  <defs>
    <linearGradient id="a" x1="50%" x2="50%" y1="0%" y2="100%">
      <stop offset="0%" stop-color="#062FF9"/>
      <stop offset="100%" stop-color="#0225D0"/>
    </linearGradient>
    <linearGradient id="b" x1="50%" x2="50%" y1="0%" y2="100%">
      <stop offset="0%" stop-color="#062FF9"/>
      <stop offset="100%" stop-color="#0225D0"/>
    </linearGradient>
    <linearGradient id="c" x1="50%" x2="50%" y1="0%" y2="100%">
      <stop offset="0%" stop-color="#062FF9"/>
      <stop offset="100%" stop-color="#0225D0"/>
    </linearGradient>
    <linearGradient id="d" x1="50%" x2="50%" y1="0%" y2="100%">
      <stop offset="0%" stop-color="#062FF9"/>
      <stop offset="100%" stop-color="#0225D0"/>
    </linearGradient>
    <linearGradient id="e" x1="50%" x2="50%" y1="0%" y2="100%">
      <stop offset="0%" stop-color="#062FF9"/>
      <stop offset="100%" stop-color="#0225D0"/>
    </linearGradient>
    <linearGradient id="f" x1="50%" x2="50%" y1="0%" y2="100%">
      <stop offset="0%" stop-color="#062FF9"/>
      <stop offset="100%" stop-color="#0225D0"/>
    </linearGradient>
    <linearGradient id="g" x1="50%" x2="50%" y1="0%" y2="100%">
      <stop offset="0%" stop-color="#062FF9"/>
      <stop offset="100%" stop-color="#0225D0"/>
    </linearGradient>
    <linearGradient id="h" x1="50%" x2="50%" y1="0%" y2="100%">
      <stop offset="0%" stop-color="#062FF9"/>
      <stop offset="100%" stop-color="#0225D0"/>
    </linearGradient>
    <linearGradient id="i" x1="50%" x2="50%" y1="0%" y2="100%">
      <stop offset="0%" stop-color="#062FF9"/>
      <stop offset="100%" stop-color="#0225D0"/>
    </linearGradient>
    <linearGradient id="j" x1="50%" x2="50%" y1="0%" y2="100%">
      <stop offset="0%" stop-color="#062FF9"/>
      <stop offset="100%" stop-color="#0225D0"/>
    </linearGradient>
  </defs>
  <g fill="none" fill-rule="nonzero">
    <path fill="url(#a)" d="M2.903 36.37H38.39c.178 0 .322-.14.322-.314V8.863a.318.318 0 00-.322-.315H2.903a.318.318 0 00-.322.315v27.193c0 .174.144.315.322.315zm.323-27.193h34.84v26.564H3.226V9.177z" transform="translate(.597)"/>
    <path fill="url(#b)" d="M39.034.113H2.258C1.013.113 0 1.101 0 2.315v34.37c0 1.214 1.013 2.202 2.258 2.202h36.776c1.245 0 2.259-.988 2.259-2.202V2.315c0-1.214-1.014-2.202-2.259-2.202zm1.613 36.572c0 .867-.723 1.573-1.613 1.573H2.258c-.89 0-1.613-.706-1.613-1.573V6.661h40.002v30.024zm0-30.653H.645V2.315c0-.867.724-1.573 1.613-1.573h36.776c.89 0 1.613.706 1.613 1.573v3.717z" transform="translate(.597)"/>
    <path fill="url(#c)" d="M5.16 2.206c-.672 0-1.22.53-1.22 1.181 0 .652.548 1.182 1.22 1.182.664 0 1.205-.53 1.205-1.182 0-.651-.54-1.181-1.205-1.181zm0 1.734a.564.564 0 01-.574-.553c0-.304.257-.552.574-.552.308 0 .56.248.56.552a.556.556 0 01-.56.553z" transform="translate(.597)"/>
    <path fill="url(#d)" d="M8.494 2.206c-.672 0-1.218.53-1.218 1.181 0 .652.546 1.182 1.218 1.182.665 0 1.205-.53 1.205-1.182 0-.651-.54-1.181-1.205-1.181zm0 1.734a.564.564 0 01-.573-.553c0-.304.257-.552.573-.552.309 0 .56.248.56.552a.556.556 0 01-.56.553z" transform="translate(.597)"/>
    <path fill="url(#c)" d="M11.83 2.206c-.673 0-1.22.53-1.22 1.181 0 .652.547 1.182 1.22 1.182.664 0 1.204-.53 1.204-1.182 0-.651-.54-1.181-1.205-1.181zm0 1.734a.564.564 0 01-.575-.553c0-.304.258-.552.574-.552.309 0 .56.248.56.552a.556.556 0 01-.56.553z" transform="translate(.597)"/>
    <path fill="url(#e)" d="M36.677 3.073H15.991a.318.318 0 00-.323.314c0 .174.145.315.323.315h20.686c.179 0 .323-.14.323-.315a.318.318 0 00-.323-.314z" transform="translate(.597)"/>
    <path fill="url(#f)" d="M20.646 12.17c-5.82 0-10.553 4.616-10.553 10.29 0 5.592 4.7 10.289 10.553 10.289 5.791 0 10.553-4.637 10.553-10.29 0-5.673-4.734-10.288-10.553-10.288zm0 .63c5.463 0 9.908 4.333 9.908 9.66 0 5.31-4.476 9.66-9.908 9.66-5.482 0-9.908-4.4-9.908-9.66 0-5.327 4.444-9.66 9.908-9.66z" transform="translate(.597)"/>
    <path fill="url(#g)" d="M14.111 26.175a7.237 7.237 0 01-1.015-3.401h1.242c.178 0 .323-.14.323-.315a.318.318 0 00-.323-.314h-1.247a7.249 7.249 0 011.987-4.67l.88.858c.125.123.33.123.456 0a.309.309 0 000-.445l-.88-.857a7.63 7.63 0 014.79-1.937v1.216c0 .174.144.314.322.314.178 0 .323-.14.323-.314v-1.216a7.63 7.63 0 014.79 1.937l-.88.857a.309.309 0 000 .445c.126.122.33.122.456 0l.88-.857a7.249 7.249 0 011.986 4.669h-1.246a.318.318 0 00-.323.314c0 .174.144.315.323.315h1.24a7.24 7.24 0 01-1.014 3.401.31.31 0 00.116.43.327.327 0 00.44-.113 7.852 7.852 0 001.125-4.028l.001-.005v-.004c-.003-4.429-3.705-8.006-8.217-8.006-4.518 0-8.216 3.585-8.216 8.01 0 1.411.388 2.806 1.124 4.033.215.36.772.042.557-.317z" transform="translate(.597)"/>
    <path fill="url(#h)" d="M22.788 27.517h-4.284a.318.318 0 00-.323.314c0 .174.144.315.323.315h4.284c.178 0 .323-.14.323-.315a.318.318 0 00-.323-.314z" transform="translate(.597)"/>
    <path fill="url(#i)" d="M21.515 29.276h-1.738a.318.318 0 00-.323.315c0 .173.145.314.323.314h1.738c.179 0 .323-.14.323-.314a.318.318 0 00-.323-.315z" transform="translate(.597)"/>
    <path fill="url(#j)" d="M20.646 18.728a.318.318 0 00-.323.314v5.95c-.761.145-1.338.8-1.338 1.584 0 .174.145.314.323.314.178 0 .323-.14.323-.314 0-.535.463-.987 1.011-.987.563 0 1.02.442 1.02.987 0 .174.145.314.323.314.179 0 .323-.14.323-.314 0-.783-.577-1.436-1.34-1.584v-5.95a.318.318 0 00-.322-.314z" transform="translate(.597)"/>
  </g>
</svg>
