<svg 
  xmlns="http://www.w3.org/2000/svg" 
  viewBox="0 0 69 48">
  <defs/>
  <defs>
    <linearGradient id="a" x1="50%" x2="50%" y1="0%" y2="100%">
      <stop offset="0%" stop-color="#062FF9"/>
      <stop offset="100%" stop-color="#0225D0"/>
    </linearGradient>
    <linearGradient id="b" x1="50%" x2="50%" y1="0%" y2="100%">
      <stop offset="0%" stop-color="#062FF9"/>
      <stop offset="100%" stop-color="#0225D0"/>
    </linearGradient>
    <linearGradient id="c" x1="50%" x2="50%" y1="0%" y2="100%">
      <stop offset="0%" stop-color="#062FF9"/>
      <stop offset="100%" stop-color="#0225D0"/>
    </linearGradient>
    <linearGradient id="d" x1="50%" x2="50%" y1="0%" y2="100%">
      <stop offset="0%" stop-color="#062FF9"/>
      <stop offset="100%" stop-color="#0225D0"/>
    </linearGradient>
    <linearGradient id="e" x1="50%" x2="50%" y1="0%" y2="100%">
      <stop offset="0%" stop-color="#062FF9"/>
      <stop offset="100%" stop-color="#0225D0"/>
    </linearGradient>
    <linearGradient id="f" x1="50%" x2="50%" y1="0%" y2="100%">
      <stop offset="0%" stop-color="#062FF9"/>
      <stop offset="100%" stop-color="#0225D0"/>
    </linearGradient>
    <linearGradient id="g" x1="50%" x2="50%" y1="0%" y2="100%">
      <stop offset="0%" stop-color="#062FF9"/>
      <stop offset="100%" stop-color="#0225D0"/>
    </linearGradient>
    <linearGradient id="h" x1="50%" x2="50%" y1="0%" y2="100%">
      <stop offset="0%" stop-color="#062FF9"/>
      <stop offset="100%" stop-color="#0225D0"/>
    </linearGradient>
  </defs>
  <g fill="none" fill-rule="nonzero">
    <path fill="url(#a)" d="M3.507 4.383v36.396H.53a.525.525 0 00-.53.522c0 3.291 2.719 5.968 6.06 5.968h55.69c3.343 0 6.062-2.677 6.062-5.968a.525.525 0 00-.53-.522h-2.977V4.383c0-2.014-1.664-3.652-3.709-3.652H7.216C5.17.73 3.507 2.369 3.507 4.383zm58.244 41.843H6.06c-2.58 0-4.708-1.932-4.974-4.403h26.991c.255 1.542 1.617 2.724 3.253 2.724h5.15c1.636 0 2.998-1.182 3.252-2.724h26.991c-.265 2.47-2.394 4.403-4.973 4.403zm-32.585-4.403h9.48a2.228 2.228 0 01-2.165 1.68h-5.15a2.228 2.228 0 01-2.165-1.68zm34.079-37.44v36.396H4.567V4.383c0-1.44 1.188-2.609 2.649-2.609h53.38c1.46 0 2.649 1.17 2.649 2.609z" transform="translate(.596)"/>
    <path fill="url(#b)" d="M6.686 4.383V38.17c0 .288.237.521.53.521h53.38c.293 0 .53-.233.53-.521V4.383a.525.525 0 00-.53-.522H7.216a.525.525 0 00-.53.522zm1.06.522h52.32v32.744H7.746V4.905z" transform="translate(.596)"/>
    <path fill="url(#c)" d="M56.276 6.47h-.19a.525.525 0 00-.53.522c0 .288.237.521.53.521h.19c.63 0 1.141.505 1.141 1.124 0 .289.237.522.53.522.293 0 .53-.233.53-.522 0-1.195-.988-2.167-2.201-2.167z" transform="translate(.596)"/>
    <path fill="url(#d)" d="M46.846 20.278v-1.44c0-7.023-5.802-12.737-12.933-12.737-7.139 0-12.947 5.714-12.947 12.737v1.44c-1.101.499-1.872 1.59-1.872 2.859v4.085c0 1.738 1.436 3.15 3.2 3.15h2.419c.733 0 1.33-.587 1.33-1.31v-7.765c0-.724-.597-1.312-1.33-1.312h-.017v-1.147c0-4.999 4.135-9.065 9.217-9.065 5.074 0 9.203 4.066 9.203 9.065v1.147h-.017c-.734 0-1.33.588-1.33 1.312v7.765c0 .723.596 1.31 1.33 1.31h1.56a4.334 4.334 0 01-4.312 3.778h-4.013a1.804 1.804 0 00-1.725-1.266H32.7c-.998 0-1.81.8-1.81 1.784 0 .985.812 1.784 1.81 1.784h1.91c.812 0 1.493-.532 1.722-1.258h4.016c2.818 0 5.113-2.133 5.374-4.841 1.668-.106 2.996-1.462 2.996-3.13v-4.086c0-1.27-.77-2.36-1.871-2.859zM34.609 35.409H32.7a.747.747 0 01-.75-.74c0-.41.336-.742.75-.742h1.91c.415 0 .752.333.752.741 0 .409-.337.741-.752.741zm-9.625-14.112v7.765a.27.27 0 01-.271.267h-2.419c-1.18 0-2.14-.945-2.14-2.107v-4.085c0-1.163.96-2.108 2.14-2.108h2.419c.15 0 .27.12.27.268zM33.913 8.73c-5.667 0-10.277 4.535-10.277 10.108v1.147h-1.61v-1.147c0-6.448 5.332-11.694 11.887-11.694 6.547 0 11.873 5.246 11.873 11.694v1.147h-1.61v-1.147c0-5.573-4.604-10.108-10.263-10.108zm13.745 18.492c0 1.162-.96 2.107-2.14 2.107h-2.42a.27.27 0 01-.27-.267v-7.765a.27.27 0 01.27-.268h2.42c1.18 0 2.14.945 2.14 2.108v4.085z" transform="translate(.596)"/>
    <path fill="url(#e)" d="M37.269 32.29l1.8-1.773a.516.516 0 000-.738.535.535 0 00-.75 0l-1.8 1.773c-.502.495.261 1.219.75.738z" transform="translate(.596)"/>
    <path fill="url(#f)" d="M35.586 31.022l.742-2.727a.522.522 0 00-.374-.64.537.537 0 00-.65.37l-.741 2.726c-.182.671.844.933 1.023.271z" transform="translate(.596)"/>
    <path fill="url(#g)" d="M32.462 31.021a.53.53 0 00.649.37.522.522 0 00.374-.639l-.769-2.827a.535.535 0 00-.648-.37.522.522 0 00-.375.64l.769 2.826z" transform="translate(.596)"/>
    <path fill="url(#h)" d="M31.529 32.29a.516.516 0 000-.738l-2.037-2.006a.535.535 0 00-.749 0 .516.516 0 000 .737l2.036 2.007a.535.535 0 00.75 0z" transform="translate(.596)"/>
  </g>
</svg>
