<svg 
  xmlns="http://www.w3.org/2000/svg" 
  viewBox="0 0 67 48">
  <defs/>
  <g fill="#F7B500" fill-rule="nonzero">
    <path d="M3.465 4.383v36.396H.523a.522.522 0 00-.523.522c0 3.291 2.686 5.968 5.988 5.968h55.024c3.302 0 5.988-2.677 5.988-5.968a.522.522 0 00-.523-.522h-2.942V4.383A3.663 3.663 0 0059.87.73H7.129a3.663 3.663 0 00-3.664 3.652zm57.547 41.843H5.988a4.942 4.942 0 01-4.914-4.403h26.668a3.258 3.258 0 003.214 2.724h5.088a3.258 3.258 0 003.214-2.724h26.667a4.942 4.942 0 01-4.913 4.403zm-32.195-4.403h9.366a2.206 2.206 0 01-2.139 1.68h-5.088a2.206 2.206 0 01-2.14-1.68zm33.67-37.44v36.396H4.513V4.383A2.616 2.616 0 017.13 1.774h52.742a2.616 2.616 0 012.617 2.609z"/>
    <path d="M6.606 4.383V38.17c0 .288.234.521.523.521h52.742c.289 0 .523-.233.523-.521V4.383a.522.522 0 00-.523-.522H7.129a.522.522 0 00-.523.522zm1.047.522h51.694v32.744H7.653V4.905z"/>
    <path d="M55.602 6.47h-.187a.522.522 0 100 1.043h.187c.622 0 1.128.505 1.128 1.124a.522.522 0 001.047 0 2.174 2.174 0 00-2.175-2.167zM46.285 20.278v-1.44c0-7.023-5.732-12.737-12.778-12.737-7.053 0-12.792 5.714-12.792 12.737v1.44a3.15 3.15 0 00-1.85 2.859v4.085a3.16 3.16 0 003.162 3.15h2.39c.725 0 1.315-.587 1.315-1.31v-7.765c0-.724-.59-1.312-1.315-1.312H24.4v-1.147c0-4.999 4.085-9.065 9.107-9.065 5.014 0 9.093 4.066 9.093 9.065v1.147h-.017c-.725 0-1.315.588-1.315 1.312v7.765c0 .723.59 1.31 1.315 1.31h1.542c-.262 2.123-2.062 3.778-4.26 3.778h-3.966a1.785 1.785 0 00-1.704-1.266h-1.887c-.986 0-1.79.8-1.79 1.784 0 .985.804 1.784 1.79 1.784h1.887c.802 0 1.475-.532 1.701-1.258h3.968c2.784 0 5.052-2.133 5.31-4.841 1.648-.106 2.96-1.462 2.96-3.13v-4.086a3.15 3.15 0 00-1.85-2.859zm-12.09 15.131h-1.887a.743.743 0 01-.742-.74c0-.41.333-.742.742-.742h1.887c.41 0 .743.333.743.741 0 .409-.333.741-.743.741zm-9.51-14.112v7.765c0 .147-.12.267-.268.267h-2.39a2.114 2.114 0 01-2.114-2.107v-4.085c0-1.163.948-2.108 2.114-2.108h2.39c.148 0 .268.12.268.268zM33.507 8.73c-5.599 0-10.154 4.535-10.154 10.108v1.147H21.762v-1.147c0-6.448 5.269-11.694 11.745-11.694 6.468 0 11.731 5.246 11.731 11.694v1.147H43.647v-1.147c0-5.573-4.55-10.108-10.14-10.108zm13.58 18.492a2.114 2.114 0 01-2.114 2.107h-2.39a.268.268 0 01-.268-.267v-7.765c0-.148.12-.268.268-.268h2.39c1.166 0 2.114.945 2.114 2.108v4.085z"/>
    <path d="M36.823 32.29l1.778-1.773a.52.52 0 000-.738.524.524 0 00-.74 0l-1.779 1.773c-.496.495.258 1.219.74.738zM35.16 31.022l.733-2.727a.523.523 0 00-.37-.64.53.53 0 00-.64.37l-.734 2.726c-.18.671.834.933 1.011.271zM32.073 31.021a.524.524 0 001.011-.269l-.76-2.827a.522.522 0 10-1.011.269l.76 2.827zM31.151 32.29a.52.52 0 000-.738l-2.012-2.006a.524.524 0 00-.74 0 .52.52 0 000 .737l2.012 2.007a.524.524 0 00.74 0z"/>
  </g>
</svg>
