<svg 
  width="51px" 
  height="48px" 
  xmlns="http://www.w3.org/2000/svg" 
  viewBox="0 0 51 48">
  <defs/>
  <defs>
    <linearGradient id="a" x1="50%" x2="50%" y1="0%" y2="100%">
      <stop offset="0%" stop-color="#062ff9"/>
      <stop offset="100%" stop-color="#0225d0"/>
    </linearGradient>
    <linearGradient id="b" x1="50%" x2="50%" y1="0%" y2="100%">
      <stop offset="0%" stop-color="#062ff9"/>
      <stop offset="100%" stop-color="#0225d0"/>
    </linearGradient>
    <linearGradient id="c" x1="50%" x2="50%" y1="0%" y2="100%">
      <stop offset="0%" stop-color="#062ff9"/>
      <stop offset="100%" stop-color="#0225d0"/>
    </linearGradient>
    <linearGradient id="d" x1="50%" x2="50%" y1="0%" y2="100%">
      <stop offset="0%" stop-color="#062ff9"/>
      <stop offset="100%" stop-color="#0225d0"/>
    </linearGradient>
    <linearGradient id="e" x1="50%" x2="50%" y1="0%" y2="100%">
      <stop offset="0%" stop-color="#062ff9"/>
      <stop offset="100%" stop-color="#0225d0"/>
    </linearGradient>
    <linearGradient id="f" x1="50%" x2="50%" y1="0%" y2="100%">
      <stop offset="0%" stop-color="#062ff9"/>
      <stop offset="100%" stop-color="#0225d0"/>
    </linearGradient>
    <linearGradient id="g" x1="50%" x2="50%" y1="0%" y2="100%">
      <stop offset="0%" stop-color="#062ff9"/>
      <stop offset="100%" stop-color="#0225d0"/>
    </linearGradient>
    <linearGradient id="h" x1="50%" x2="50%" y1="0%" y2="100%">
      <stop offset="0%" stop-color="#062ff9"/>
      <stop offset="100%" stop-color="#0225d0"/>
    </linearGradient>
    <linearGradient id="i" x1="50%" x2="50%" y1="0%" y2="100%">
      <stop offset="0%" stop-color="#062ff9"/>
      <stop offset="100%" stop-color="#0225d0"/>
    </linearGradient>
    <linearGradient id="j" x1="50%" x2="50%" y1="0%" y2="100%">
      <stop offset="0%" stop-color="#062ff9"/>
      <stop offset="100%" stop-color="#0225d0"/>
    </linearGradient>
    <linearGradient id="k" x1="50%" x2="50%" y1="0%" y2="100%">
      <stop offset="0%" stop-color="#062ff9"/>
      <stop offset="100%" stop-color="#0225d0"/>
    </linearGradient>
    <linearGradient id="l" x1="50%" x2="50%" y1="0%" y2="100%">
      <stop offset="0%" stop-color="#062ff9"/>
      <stop offset="100%" stop-color="#0225d0"/>
    </linearGradient>
    <linearGradient id="m" x1="50%" x2="50%" y1="0%" y2="100%">
      <stop offset="0%" stop-color="#062ff9"/>
      <stop offset="100%" stop-color="#0225d0"/>
    </linearGradient>
    <linearGradient id="n" x1="50%" x2="50%" y1="0%" y2="100%">
      <stop offset="0%" stop-color="#062ff9"/>
      <stop offset="100%" stop-color="#0225d0"/>
    </linearGradient>
    <linearGradient id="o" x1="50%" x2="50%" y1="0%" y2="100%">
      <stop offset="0%" stop-color="#062ff9"/>
      <stop offset="100%" stop-color="#0225d0"/>
    </linearGradient>
  </defs>
  <g fill="none" fill-rule="nonzero">
    <path fill="url(#a)" d="M3.585 44.456h43.828c.22 0 .399-.179.399-.4V11.472c0-.22-.178-.4-.399-.4H3.585a.399.399 0 00-.398.4v32.584c0 .221.178.4.398.4zm.399-32.584h43.03v31.784H3.985V11.872z"/>
    <path fill="url(#b)" d="M2.79 47.656h45.42a2.798 2.798 0 002.79-2.8V3.144c0-1.544-1.251-2.8-2.79-2.8H2.79A2.798 2.798 0 000 3.144v41.712c0 1.544 1.251 2.8 2.79 2.8zM.796 3.144c0-1.103.893-2 1.992-2h45.422c1.099 0 1.992.897 1.992 2v4.728H.797V3.144zm0 5.528h49.406v36.184c0 1.103-.893 2-1.992 2H2.789a1.998 1.998 0 01-1.992-2V8.672z"/>
    <path fill="url(#c)" d="M6.373 3.005c-.83 0-1.506.675-1.506 1.503 0 .829.675 1.503 1.506 1.503.82 0 1.488-.674 1.488-1.503 0-.828-.668-1.503-1.488-1.503zm0 2.206a.707.707 0 01-.71-.703c0-.387.319-.703.71-.703.381 0 .69.316.69.703 0 .387-.309.703-.69.703zM10.492 3.005c-.83 0-1.506.675-1.506 1.503 0 .829.675 1.503 1.506 1.503.82 0 1.488-.674 1.488-1.503 0-.828-.668-1.503-1.488-1.503zm0 2.206a.707.707 0 01-.71-.703c0-.387.319-.703.71-.703.381 0 .69.316.69.703 0 .387-.309.703-.69.703z"/>
    <path fill="url(#d)" d="M14.61 3.005c-.83 0-1.505.675-1.505 1.503 0 .829.675 1.503 1.505 1.503.82 0 1.488-.674 1.488-1.503 0-.828-.668-1.503-1.488-1.503zm0 2.206a.706.706 0 01-.708-.703c0-.387.317-.703.708-.703.381 0 .69.316.69.703 0 .387-.309.703-.69.703z"/>
    <path fill="url(#e)" d="M45.3 4.108H19.75a.399.399 0 00-.399.4c0 .221.179.4.399.4H45.3c.22 0 .398-.179.398-.4 0-.22-.178-.4-.398-.4z"/>
    <path fill="url(#f)" d="M20.28 25.967a.398.398 0 00.56-.042.402.402 0 00-.041-.564l-4.47-3.868 4.47-3.872a.402.402 0 00.042-.564.398.398 0 00-.563-.042l-4.82 4.176a.401.401 0 00.002.605l4.82 4.171z"/>
    <path fill="url(#g)" d="M34.67 21.493l-4.47 3.868a.402.402 0 00-.042.564.398.398 0 00.562.042l4.82-4.17a.401.401 0 000-.606l-4.82-4.176a.398.398 0 00-.562.042.402.402 0 00.042.564l4.47 3.872z"/>
    <path fill="url(#h)" d="M22.365 29.09a.398.398 0 00.52-.217l5.965-14.457a.398.398 0 10-.736-.306l-5.965 14.456a.4.4 0 00.216.523z"/>
    <path fill="url(#i)" d="M9.74 32.872h16.094c.22 0 .398-.179.398-.4 0-.22-.178-.4-.398-.4H9.74a.399.399 0 00-.399.4c0 .221.178.4.399.4z"/>
    <path fill="url(#j)" d="M33.873 32.472c0-.22-.179-.4-.399-.4h-4.991a.399.399 0 00-.399.4c0 .221.179.4.399.4h4.991c.22 0 .399-.179.399-.4z"/>
    <path fill="url(#k)" d="M41.259 32.072h-5.681a.399.399 0 00-.399.4c0 .221.178.4.399.4h5.68c.22 0 .399-.179.399-.4 0-.22-.178-.4-.398-.4z"/>
    <path fill="url(#l)" d="M9.74 36.072h12.11c.22 0 .398-.179.398-.4 0-.22-.178-.4-.399-.4H9.741a.399.399 0 00-.399.4c0 .221.178.4.399.4z"/>
    <path fill="url(#j)" d="M24.498 35.272a.399.399 0 00-.398.4c0 .221.178.4.398.4h4.992c.22 0 .398-.179.398-.4 0-.22-.178-.4-.398-.4h-4.992z"/>
    <path fill="url(#m)" d="M41.259 35.272h-9.666a.399.399 0 00-.398.4c0 .221.178.4.398.4h9.666c.22 0 .398-.179.398-.4 0-.22-.178-.4-.398-.4z"/>
    <path fill="url(#n)" d="M17.865 38.472H9.741a.399.399 0 00-.399.4c0 .221.178.4.399.4h8.124c.22 0 .399-.179.399-.4 0-.22-.179-.4-.399-.4z"/>
    <path fill="url(#j)" d="M25.505 38.472h-4.99a.399.399 0 00-.4.4c0 .221.179.4.4.4h4.99c.22 0 .399-.179.399-.4 0-.22-.178-.4-.399-.4z"/>
    <path fill="url(#o)" d="M41.259 38.472h-13.65a.399.399 0 00-.399.4c0 .221.179.4.399.4h13.65c.22 0 .398-.179.398-.4 0-.22-.178-.4-.398-.4z"/>
  </g>
</svg>
