<svg 
  width="51px" 
  height="48px" 
  xmlns="http://www.w3.org/2000/svg" 
  viewBox="0 0 47 48">
  <defs/>
  <defs>
    <linearGradient id="a" x1="50%" x2="50%" y1="0%" y2="100%">
      <stop offset="0%" stop-color="#062ff9"/>
      <stop offset="100%" stop-color="#0225d0"/>
    </linearGradient>
    <linearGradient id="b" x1="50%" x2="50%" y1="0%" y2="100%">
      <stop offset="0%" stop-color="#062ff9"/>
      <stop offset="100%" stop-color="#0225d0"/>
    </linearGradient>
    <linearGradient id="c" x1="50%" x2="50%" y1="0%" y2="100%">
      <stop offset="0%" stop-color="#062ff9"/>
      <stop offset="100%" stop-color="#0225d0"/>
    </linearGradient>
    <linearGradient id="d" x1="50%" x2="50%" y1="0%" y2="100%">
      <stop offset="0%" stop-color="#062ff9"/>
      <stop offset="100%" stop-color="#0225d0"/>
    </linearGradient>
    <linearGradient id="e" x1="50%" x2="50%" y1="0%" y2="100%">
      <stop offset="0%" stop-color="#062ff9"/>
      <stop offset="100%" stop-color="#0225d0"/>
    </linearGradient>
    <linearGradient id="f" x1="50%" x2="50%" y1="0%" y2="100%">
      <stop offset="0%" stop-color="#062ff9"/>
      <stop offset="100%" stop-color="#0225d0"/>
    </linearGradient>
    <linearGradient id="g" x1="50%" x2="50%" y1="0%" y2="100%">
      <stop offset="0%" stop-color="#062ff9"/>
      <stop offset="100%" stop-color="#0225d0"/>
    </linearGradient>
    <linearGradient id="h" x1="50%" x2="50%" y1="0%" y2="100%">
      <stop offset="0%" stop-color="#062ff9"/>
      <stop offset="100%" stop-color="#0225d0"/>
    </linearGradient>
  </defs>
  <g fill="none" fill-rule="nonzero">
    <path fill="url(#a)" d="M11.064 44.775a.655.655 0 100 1.309.655.655 0 100-1.31z"/>
    <path fill="url(#b)" d="M6.812 44.775a.655.655 0 100 1.309.655.655 0 100-1.31z"/>
    <path fill="url(#c)" d="M8.934 44.775a.66.66 0 00-.66.654.66.66 0 00.66.655c.368 0 .669-.291.669-.655a.661.661 0 00-.669-.654z"/>
    <path fill="url(#d)" d="M42.55 28.371c2.71-1.255 4.45-3.94 4.45-6.913 0-3.844-2.84-7.05-6.652-7.572-.696-4.377-4.533-7.643-9.042-7.643-.974 0-1.937.153-2.867.455C26.692 2.84 22.848.367 18.55.367 12.683.367 7.89 5.01 7.723 10.843 3.298 11.546 0 15.35 0 19.821c0 3.186 1.701 6.142 4.443 7.78v14.017c0 .627.253 1.195.66 1.615H3.654a1.829 1.829 0 00-1.836 1.818v.764c0 1.003.824 1.818 1.836 1.818H43.34a1.829 1.829 0 001.836-1.818v-.764a1.829 1.829 0 00-1.836-1.818h-1.45c.406-.42.66-.988.66-1.615V28.371zM.734 19.821c0-4.21 3.18-7.78 7.397-8.3.184-.023.322-.244.322-.427 0-5.514 4.53-10 10.098-10 4.114 0 7.783 2.433 9.346 6.197a.367.367 0 00.466.202 8.566 8.566 0 012.943-.522c4.236 0 7.827 3.133 8.353 7.289a.365.365 0 00.327.316c3.58.358 6.28 3.317 6.28 6.882a6.897 6.897 0 01-3.716 6.107v-7.329c0-1.291-1.061-2.341-2.365-2.341H6.808c-1.304 0-2.365 1.05-2.365 2.341v6.516a8.368 8.368 0 01-3.709-6.93zm4.443.415c0-.89.732-1.614 1.63-1.614h33.378c.9 0 1.63.724 1.63 1.614v21.382c0 .89-.73 1.615-1.63 1.615H6.808c-.9 0-1.63-.725-1.63-1.615V20.236zm14.169 23.725h8.302v.741c0 .2-.165.364-.367.364h-7.568a.366.366 0 01-.367-.364v-.741zm25.096 1.09v.764c0 .602-.495 1.09-1.102 1.09H3.654c-.607 0-1.101-.488-1.101-1.09v-.764c0-.601.494-1.09 1.101-1.09h14.957v.741c0 .602.495 1.091 1.102 1.091h7.568c.607 0 1.101-.49 1.101-1.09v-.742H43.34c.607 0 1.102.489 1.102 1.09z"/>
    <path fill="url(#e)" d="M8.138 41.985h30.718c.937 0 1.7-.755 1.7-1.684V21.556c0-.927-.763-1.682-1.7-1.682H8.138c-.937 0-1.699.755-1.699 1.682v18.745c0 .929.762 1.684 1.7 1.684zm-.965-20.429c0-.527.433-.955.965-.955h30.718c.532 0 .965.428.965.955v18.745a.962.962 0 01-.965.956H8.138a.962.962 0 01-.965-.956V21.556z"/>
    <path fill="url(#f)" d="M37.19 22.25c.533 0 .966.429.966.956 0 .2.164.363.367.363a.365.365 0 00.367-.363c0-.929-.762-1.684-1.7-1.684a.365.365 0 00-.367.364c0 .201.165.364.368.364z"/>
    <path fill="url(#g)" d="M35.856 27.602a.37.37 0 00.52 0 .361.361 0 000-.514l-4.18-4.14a.37.37 0 00-.52 0 .361.361 0 000 .515l4.18 4.139z"/>
    <path fill="url(#h)" d="M32.951 28.865a.37.37 0 00.52 0 .361.361 0 000-.515l-2.55-2.524a.37.37 0 00-.52 0 .361.361 0 000 .514l2.55 2.525z"/>
  </g>
</svg>
