<svg 
  width="51px" 
  height="48px" 
  xmlns="http://www.w3.org/2000/svg" 
  viewBox="0 0 51 48">
  <defs/>
  <defs>
    <linearGradient id="a" x1="50%" x2="50%" y1="0%" y2="100%">
      <stop offset="0%" stop-color="#062ff9"/>
      <stop offset="100%" stop-color="#0225d0"/>
    </linearGradient>
    <linearGradient id="b" x1="50%" x2="50%" y1="0%" y2="100%">
      <stop offset="0%" stop-color="#062ff9"/>
      <stop offset="100%" stop-color="#0225d0"/>
    </linearGradient>
    <linearGradient id="c" x1="50%" x2="50%" y1="0%" y2="100%">
      <stop offset="0%" stop-color="#062ff9"/>
      <stop offset="100%" stop-color="#0225d0"/>
    </linearGradient>
    <linearGradient id="d" x1="50%" x2="50%" y1="0%" y2="100%">
      <stop offset="0%" stop-color="#062ff9"/>
      <stop offset="100%" stop-color="#0225d0"/>
    </linearGradient>
    <linearGradient id="e" x1="50%" x2="50%" y1="0%" y2="100%">
      <stop offset="0%" stop-color="#062ff9"/>
      <stop offset="100%" stop-color="#0225d0"/>
    </linearGradient>
    <linearGradient id="f" x1="50%" x2="50%" y1="0%" y2="100%">
      <stop offset="0%" stop-color="#062ff9"/>
      <stop offset="100%" stop-color="#0225d0"/>
    </linearGradient>
    <linearGradient id="g" x1="50%" x2="50%" y1="0%" y2="100%">
      <stop offset="0%" stop-color="#062ff9"/>
      <stop offset="100%" stop-color="#0225d0"/>
    </linearGradient>
    <linearGradient id="h" x1="50%" x2="50%" y1="0%" y2="100%">
      <stop offset="0%" stop-color="#062ff9"/>
      <stop offset="100%" stop-color="#0225d0"/>
    </linearGradient>
    <linearGradient id="i" x1="50%" x2="50%" y1="0%" y2="100%">
      <stop offset="0%" stop-color="#062ff9"/>
      <stop offset="100%" stop-color="#0225d0"/>
    </linearGradient>
  </defs>
  <g fill="none" fill-rule="nonzero">
    <path fill="url(#a)" d="M3.586 44.456h43.828c.22 0 .398-.179.398-.4V11.472c0-.22-.178-.4-.398-.4H3.586a.399.399 0 00-.398.4v32.584c0 .22.178.4.398.4zm.398-32.584h43.032v31.784H3.984V11.872z"/>
    <path fill="url(#b)" d="M2.79 47.656h45.42a2.798 2.798 0 002.79-2.8V3.144c0-1.544-1.251-2.8-2.79-2.8H2.79A2.798 2.798 0 000 3.144v41.712c0 1.544 1.251 2.8 2.79 2.8zM.796 3.144c0-1.103.894-2 1.992-2h45.422c1.098 0 1.992.897 1.992 2v4.728H.797V3.144zm0 5.528h49.406v36.184c0 1.103-.894 2-1.992 2H2.789a1.998 1.998 0 01-1.992-2V8.672z"/>
    <path fill="url(#c)" d="M6.373 3.006c-.83 0-1.506.674-1.506 1.502s.676 1.503 1.506 1.503c.82 0 1.488-.675 1.488-1.503 0-.828-.667-1.502-1.488-1.502zm0 2.205a.706.706 0 01-.709-.703c0-.387.318-.702.71-.702.38 0 .69.315.69.702 0 .388-.31.703-.69.703z"/>
    <path fill="url(#d)" d="M10.492 3.006c-.83 0-1.506.674-1.506 1.502s.676 1.503 1.506 1.503c.82 0 1.488-.675 1.488-1.503 0-.828-.668-1.502-1.488-1.502zm0 2.205a.706.706 0 01-.709-.703c0-.387.318-.702.709-.702.38 0 .69.315.69.702 0 .388-.31.703-.69.703z"/>
    <path fill="url(#c)" d="M14.61 3.006c-.83 0-1.505.674-1.505 1.502s.675 1.503 1.505 1.503c.82 0 1.489-.675 1.489-1.503 0-.828-.668-1.502-1.489-1.502zm0 2.205a.706.706 0 01-.708-.703c0-.387.318-.702.708-.702.382 0 .692.315.692.702 0 .388-.31.703-.692.703z"/>
    <path fill="url(#e)" d="M45.3 4.108H19.75a.399.399 0 00-.398.4c0 .221.178.4.399.4H45.3c.22 0 .398-.179.398-.4 0-.22-.178-.4-.399-.4z"/>
    <path fill="url(#f)" d="M13.519 14.458c-3.292 0-5.969 2.688-5.969 5.992s2.677 5.993 5.969 5.993c3.293 0 5.969-2.67 5.969-5.993 0-3.304-2.678-5.992-5.97-5.992zM8.347 20.45c0-2.728 2.107-4.971 4.773-5.176v10.353c-2.666-.205-4.773-2.448-4.773-5.177zm5.57.966l2.968 2.979c-.84.72-1.87 1.15-2.968 1.233v-4.212zm3.531 2.413l-2.967-2.979h4.195a5.18 5.18 0 01-1.228 2.98zm-3.53-3.779v-4.776c2.534.194 4.564 2.232 4.758 4.776h-4.759z"/>
    <path fill="url(#g)" d="M43.051 16.51H24.215a.399.399 0 00-.399.4c0 .222.179.4.399.4H43.05c.22 0 .399-.178.399-.4 0-.22-.179-.4-.399-.4zM43.051 20.05H24.215a.399.399 0 00-.399.4c0 .221.179.4.399.4H43.05c.22 0 .399-.179.399-.4 0-.22-.179-.4-.399-.4z"/>
    <path fill="url(#h)" d="M24.215 24.39h15.314c.22 0 .399-.179.399-.4 0-.22-.178-.4-.399-.4H24.215a.399.399 0 00-.399.4c0 .221.179.4.399.4z"/>
    <path fill="url(#i)" d="M13.519 29.086c-3.292 0-5.969 2.688-5.969 5.992s2.677 5.993 5.969 5.993c3.295 0 5.969-2.672 5.969-5.993 0-3.304-2.678-5.992-5.97-5.992zm-5.172 5.992c0-2.728 2.107-4.972 4.773-5.177v10.354c-2.666-.205-4.773-2.448-4.773-5.177zm5.57 5.178v-4.213l2.074 2.082.894.898a5.151 5.151 0 01-2.968 1.233zm3.531-1.799l-.894-.898-2.073-2.081h4.195a5.185 5.185 0 01-1.228 2.98zm-3.53-3.78v-4.776c2.534.195 4.564 2.232 4.758 4.777h-4.759z"/>
    <path fill="url(#g)" d="M43.051 31.138H24.215a.399.399 0 00-.399.4c0 .221.179.4.399.4H43.05c.22 0 .399-.179.399-.4 0-.221-.179-.4-.399-.4zM43.051 34.678H24.215a.399.399 0 00-.399.4c0 .22.179.4.399.4H43.05c.22 0 .399-.18.399-.4 0-.221-.179-.4-.399-.4z"/>
    <path fill="url(#h)" d="M39.53 38.218H24.214a.399.399 0 00-.399.4c0 .22.179.4.399.4h15.314c.22 0 .399-.18.399-.4 0-.222-.178-.4-.399-.4z"/>
  </g>
</svg>
