<svg
    class="o-svg o-svg__sass"
    xmlns="http://www.w3.org/2000/svg"
    viewBox="0 0 63 61">
    <defs/>
    <defs>
      <linearGradient id="a" x1="50%" x2="50%" y1="0%" y2="100%">
        <stop offset="0%" stop-color="#062FF9"/>
        <stop offset="100%" stop-color="#0225D0"/>
      </linearGradient>
      <linearGradient id="b" x1="50%" x2="50%" y1="0%" y2="100%">
        <stop offset="0%" stop-color="#062FF9"/>
        <stop offset="100%" stop-color="#0225D0"/>
      </linearGradient>
      <linearGradient id="c" x1="50%" x2="50%" y1="0%" y2="100%">
        <stop offset="0%" stop-color="#062FF9"/>
        <stop offset="100%" stop-color="#0225D0"/>
      </linearGradient>
      <linearGradient id="d" x1="50%" x2="50%" y1="0%" y2="100%">
        <stop offset="0%" stop-color="#062FF9"/>
        <stop offset="100%" stop-color="#0225D0"/>
      </linearGradient>
      <linearGradient id="e" x1="50%" x2="50%" y1="0%" y2="100%">
        <stop offset="0%" stop-color="#062FF9"/>
        <stop offset="100%" stop-color="#0225D0"/>
      </linearGradient>
      <linearGradient id="f" x1="50%" x2="50%" y1="0%" y2="100%">
        <stop offset="0%" stop-color="#062FF9"/>
        <stop offset="100%" stop-color="#0225D0"/>
      </linearGradient>
    </defs>
    <g fill="none" fill-rule="nonzero">
      <path fill="url(#a)" d="M4.42920516 56.4962277H58.5703125c.2720517 0 .4921875-.2273572.4921875-.5083334v-41.408813c0-.2809761-.2201358-.5083333-.4921875-.5083333H4.42920516c-.27205172 0-.4921875.2273572-.4921875.5083333v41.408813c0 .2809762.22013578.5083334.4921875.5083334zm.4921875-41.408813H58.078125V55.479561H4.92139266V15.0874147z"/>
      <path fill="url(#b)" d="M59.5546875.43708533H3.4453125C1.54577391.43708533 0 2.03356717 0 3.99541867V57.004561c0 1.9618515 1.54577391 3.5583333 3.4453125 3.5583333h56.109375C61.4542261 60.5628943 63 58.9664125 63 57.004561V3.99541867C63 2.03357733 61.4542261.43708533 59.5546875.43708533zM62.015625 57.004561c0 1.4013937-1.103573 2.5416667-2.4609375 2.5416667H3.4453125c-1.35688219 0-2.4609375-1.140273-2.4609375-2.5416667V11.020748h61.03125v45.983813zm0-47.0004797H.984375V3.99541867c0-1.40139367 1.10405531-2.54166667 2.4609375-2.54166667h56.109375c1.3573645 0 2.4609375 1.140273 2.4609375 2.54166667v6.00866263z"/>
      <path fill="url(#c)" d="M7.87211578 3.81919983c-1.02522656 0-1.85964187.85681617-1.85964187 1.909727 0 1.05291084.83441531 1.90922884 1.85964187 1.90922884 1.01369953 0 1.83801516-.85632817 1.83801516-1.90922884 0-1.05290066-.82431563-1.909727-1.83801516-1.909727zm0 2.802279c-.48257016 0-.87526687-.40060733-.87526687-.89256216 0-.492453.39269671-.89306034.87526687-.89306034.47056078 0 .85364016.40060734.85364016.89306034 0 .49195483-.38307938.89256216-.85364016.89256216z"/>
      <path fill="url(#d)" d="M12.9603009 3.81919983c-1.0257089 0-1.8601242.85681617-1.8601242 1.909727 0 1.05291084.8344153 1.90922884 1.8601242 1.90922884 1.0136996 0 1.8380152-.85632817 1.8380152-1.90922884 0-1.05290066-.8243255-1.909727-1.8380152-1.909727zm0 2.802279c-.4830525 0-.8757492-.40060733-.8757492-.89256216 0-.492453.3926967-.89306034.8757492-.89306034.4705608 0 .8536402.40060734.8536402.89306034 0 .49195483-.3830892.89256216-.8536402.89256216z"/>
      <path fill="url(#c)" d="M18.0479939 3.81919983c-1.0252266 0-1.8596419.85681617-1.8596419 1.909727 0 1.05291084.8344153 1.90922884 1.8596419 1.90922884 1.0136995 0 1.8380152-.85632817 1.8380152-1.90922884 0-1.05290066-.8243157-1.909727-1.8380152-1.909727zm0 2.802279c-.4825702 0-.8752669-.40060733-.8752669-.89256216 0-.492453.3926967-.89306034.8752669-.89306034.4705608 0 .8536402.40060734.8536402.89306034 0 .49195483-.3830794.89256216-.8536402.89256216z"/>
      <path fill="url(#e)" d="M55.9594153 5.22058333H24.3974095c-.2720517 0-.4921875.22735717-.4921875.50833334 0 .28097616.2201358.50833333.4921875.50833333h31.5620058c.2720517 0 .4921875-.22735717.4921875-.50833333 0-.28097617-.2201456-.50833334-.4921875-.50833334z"/>
      <path fill="url(#f)" d="M48.4125173 31.133668l1.3080375-.9610652c.2211005-.1623311.2730066-.4800395.115359-.7088911-.1586124-.2283535-.4652747-.2814744-.6863752-.1191432L47.7371475 30.38227C33.6635381 15.3749077 9.17997609 25.8584388 9.17997609 46.4938645c0 .2809762.22013579.5083435.4921875.5083435h4.92187501c.2720517 0 .4921875-.2273673.4921875-.5083435 0-9.4660715 7.4469937-17.0802948 16.5373031-17.0802948 3.9701813 0 7.9861655 1.4675075 11.2154667 4.5674868l-2.6474273 1.9451578c-2.3332641-2.093276-5.3698444-3.3708091-8.69589-3.3708091-7.3275399 0-13.2890625 6.1570858-13.2890625 13.725 0 .2809761.2201358.5083333.4921875.5083333s.4921875-.2273572.4921875-.5083333c0-7.0074564 5.5198041-12.7083334 12.3046875-12.7083334 2.9944589 0 5.7403631 1.1130365 7.8762009 2.956365l-5.8289864 4.2827287c-.4819697-.5685912-1.1705695-.9161997-1.9150326-.9161997-1.4111902 0-2.5594735 1.1854537-2.5594735 2.6429369 0 .4702286.1224464.9196156.3398161 1.3124048l-1.9543289 1.4357672c-.2211004.1623311-.2730065.4800395-.1153589.7088911.156427.2273165.463552.282796.6863752.1191432l2.0347228-1.4948457c.4459809.3569212.9949472.5620744 1.5682472.5620744 1.4111901 0 2.5589911-1.1859417 2.5589911-2.643435 0-.2976699-.0608639-.575535-.1490639-.8427964l6.0795295-4.4667758c2.2700573 2.3067963 3.6825764 5.5109332 3.6825764 9.0520848 0 .2809762.2201358.5083334.4921875.5083334s.4921875-.2273572.4921875-.5083334c0-3.7596943-1.473383-7.1691673-3.8524894-9.6505151l2.6217746-1.9262275c3.1091878 3.349327 4.6077707 7.5286505 4.6077707 11.790202 0 .2809761.2201358.5083333.4921875.5083333h4.921875c.2720419 0 .4921875-.2273572.4921875-.5083333 0-5.5207949-1.9198364-11.0107644-5.6550572-15.3602067zM31.6278506 44.1646812c-.8218054 0-1.5750984-.6675332-1.5750984-1.6267684 0-.8965373.7065548-1.6262701 1.5750984-1.6262701.8425266 0 1.5746161.7097146 1.5746161 1.6262701 0 .8970254-.7065548 1.6267684-1.5746161 1.6267684zm.4878661-15.760814v-4.0482345c5.5406236.1309975 10.8215396 2.4426128 14.8016138 6.629053l-3.2456025 2.384612c-3.0762211-3.0241259-7.1723138-4.8412955-11.5560113-4.9654305zm-12.5408686 4.9654305l-3.25143-2.3878349c3.9734396-4.171424 9.295778-6.505162 14.8079236-6.6378675v4.0602719c-4.2300661.1196921-8.4478964 1.9096151-11.5564936 4.9654305zm-9.4047384 12.6162436c.1179576-5.3780853 2.145022-10.415079 5.4797892-14.2510233.1358142.0997452 3.3896067 2.4894608 3.2204911 2.3652547-2.7825427 3.0459231-4.6399697 7.316889-4.7618156 11.8857686h-3.9384647zm38.9688567 0c-.1203792-4.5292195-1.9713487-8.8317833-4.7621798-11.8856466l3.217725-2.363079c3.5402161 4.0836348 5.3713012 9.1582248 5.4829195 14.2487256h-3.9384647z"/>
    </g>
</svg>
